{
.appVersion = "3151";
classes = (
{
automatic = 1;
code = "A Aacute Abreve Acircumflex Adieresis Adotbelow Agrave Amacron Aogonek Aring Aringacute Atilde AE AEacute B C Cacute Ccaron Ccedilla Ccedillaacute Ccircumflex Cdotaccent D Eth Dcaron Dcroat Ddotbelow Dmacronbelow E Eacute Ebreve Ecaron Ecedillabreve Ecircumflex Edieresis Edotaccent Edotbelow Egrave Emacron Emacronacute Emacrongrave Eogonek Etilde Schwa F G Gbreve Gcaron Gcircumflex Gcommaaccent Gdotaccent Gmacron H Hbar Hbrevebelow Hcircumflex Hdotbelow I IJ Iacute Ibreve Icircumflex Idieresis Idieresisacute Idotaccent Idotbelow Igrave Imacron Iogonek Itilde J Jacute Jcircumflex K Kcommaaccent L Lacute Lcaron Lcommaaccent Ldot Ldotbelow Lmacronbelow Lslash M Mdotbelow N Nacute Ncaron Ncommaaccent Ndotaccent Ndotbelow Nhookleft Nmacronbelow Ntilde Eng O Oacute Obreve Ocircumflex Odieresis Odotbelow Ograve Ohungarumlaut Omacron Omacronacute Omacrongrave Oogonek Oslash Oslashacute Otilde Otildeacute Otildedieresis OE P Thorn Q R Racute Rcaron Rcommaaccent Rdotbelow Rmacronbelow S Sacute Sacutedotaccent Scaron Scarondotaccent Scedilla Scircumflex Scommaaccent Sdotaccent Sdotbelow Sdotbelowdotaccent Germandbls T Tbar Tcaron Tcedilla Tcommaaccent Tdotbelow Tmacronbelow U Uacute Ubreve Ucircumflex Udieresis Udotbelow Ugrave Uhungarumlaut Umacron Umacrondieresis Uogonek Uring Utilde Utildeacute V W Wacute Wcircumflex Wdieresis Wgrave X Y Yacute Ycircumflex Ydieresis Ydotaccent Ygrave Ymacron Ytilde Z Zacute Zcaron Zdotaccent Zdotbelow Delta Omega";
name = Uppercase;
}
);
copyright = "Copyright 2023 The Panamera Project Authors (https://github.com//noirblancrouge)";
customParameters = (
{
name = blueScale;
value = 0.037;
},
{
name = fsType;
value = (
);
},
{
name = "Use Typo Metrics";
value = 1;
},
{
name = "GASP Table";
value = {
9 = 10;
21 = 7;
65535 = 15;
};
},
{
name = panose;
value = (
2,
11,
3,
4,
4,
4,
2,
0,
2,
3
);
},
{
name = unicodeRanges;
value = (
0,
1
);
},
{
name = codePageRanges;
value = (
"1252"
);

glyphs = (
{
glyphname = A;
lastChange = "2023-07-27 15:47:19 +0000";
layers = (
{
anchors = (
{
name = bottom;
position = "{329, 0}";
},
{
name = ogonek;
position = "{591, 0}";
},
{
name = top;
position = "{329, 700}";
}
);
layerId = "F5467FAD-1970-4982-B3D3-939C01050498";
paths = (
{
closed = 1;
nodes = (
"67 0 LINE",
"172 261 LINE",
"130 219 LINE",
"528 219 LINE",
"486 261 LINE",
"591 0 LINE",
"638 0 LINE",
"354 700 LINE",
"304 700 LINE",
"20 0 LINE"
);
},
{
closed = 1;
nodes = (
"339 674 LINE",
"319 674 LINE",
"509 204 LINE",
"517 249 LINE",
"141 249 LINE",
"149 204 LINE"
);
}
);
width = 678;
},
{
anchors = (
{
name = bottom;
position = "{406, 0}";
},
{
name = ogonek;
position = "{611, 0}";
},
{
name = top;
position = "{407, 700}";
}
);
layerId = "6DD95C5A-998B-41AB-BDFB-84A73C209871";
paths = (
{
closed = 1;
nodes = (
"202 0 LINE",
"292 219 LINE",
"230 177 LINE",
"583 177 LINE",
"521 219 LINE",
"611 0 LINE",
"773 0 LINE",
"489 700 LINE",
"324 700 LINE",
"40 0 LINE"
);
},
{
closed = 1;
nodes = (
"424 540 LINE",
"389 540 LINE",
"510 246 LINE",
"538 288 LINE",
"275 288 LINE",
"303 246 LINE"
);
}
);
width = 813;
}
);
leftKerningGroup = A;
note = A;
rightKerningGroup = A;
unicode = 0041;
},
{
glyphname = AE;
lastChange = "2023-07-27 15:47:19 +0000";
layers = (
{
anchors = (
{
name = top;
position = "{706, 700}";
}
);
layerId = "F5467FAD-1970-4982-B3D3-939C01050498";
paths = (
{
closed = 1;
nodes = (
"117 0 LINE",
"262.58 258 LINE",
"496 258 LINE",
"496 0 LINE",
"1023 0 LINE",
"1023 30 LINE",
"538 30 LINE",
"538 338 LINE",
"1001 338 LINE",
"1001 370 LINE",
"538 370 LINE",
"538 669 LINE",
"1012 669 LINE",
"1012 700 LINE",
"462 700 LINE",
"64 0 LINE"
);
},
{
closed = 1;
nodes = (
"496 671.64 LINE",
"496 285 LINE",
"277.82 285 LINE"
);
}
);
width = 1070;
},
{
anchors = (
{
name = top;
position = "{674, 700}";
}
);
layerId = "6DD95C5A-998B-41AB-BDFB-84A73C209871";
paths = (
{
closed = 1;
nodes = (
"181 0 LINE",
"280 175 LINE",
"487 175 LINE",
"487 0 LINE",
"1066 0 LINE",
"1066 124 LINE",
"641 124 LINE",
"641 296 LINE",
"1046 296 LINE",
"1046 420 LINE",
"641 420 LINE",
"641 576 LINE",
"1056 576 LINE",
"1056 700 LINE",
"406 700 LINE",
"8 0 LINE"
);
},
{
closed = 1;
nodes = (
"487 540.77 LINE",
"487 286 LINE",
"343 286 LINE"
);
}
);
width = 1070;
}
);
leftKerningGroup = A;
note = AE;
rightKerningGroup = E;
unicode = 00C6;
},
{
glyphname = B;
lastChange = "2023-07-27 15:47:19 +0000";
layers = (
{
layerId = "F5467FAD-1970-4982-B3D3-939C01050498";
paths = (
{
closed = 1;
nodes = (
"292.99 -0.01 LINE SMOOTH",
"446.99 -0.01 OFFCURVE",
"551.99 65.99 OFFCURVE",
"551.99 207.99 CURVE SMOOTH",
"551.99 341.98 OFFCURVE",
"464.32 408.09 OFFCURVE",
"310.04 411.82 CURVE",
"377.31 428.76 OFFCURVE",
"423.99 469.91 OFFCURVE",
"423.99 552.99 CURVE SMOOTH",
"423.99 664.99 OFFCURVE",
"338.99 699.99 OFFCURVE",
"229.99 699.99 CURVE SMOOTH",
"55.99 699.99 LINE",
"55.99 -0.01 LINE"
);
},
{
closed = 1;
nodes = (
"98.99 390.99 LINE",
"287.99 390.99 LINE SMOOTH",
"411.99 390.99 OFFCURVE",
"507.99 334.99 OFFCURVE",
"507.99 207.99 CURVE SMOOTH",
"507.99 84.99 OFFCURVE",
"415.99 30.99 OFFCURVE",
"282.99 30.99 CURVE SMOOTH",
"98.99 30.99 LINE"
);
},
{
closed = 1;
nodes = (
"98.99 668.99 LINE",
"229.99 668.99 LINE SMOOTH",
"325.99 668.99 OFFCURVE",
"381.99 617.99 OFFCURVE",
"381.99 541.99 CURVE SMOOTH",
"381.99 466.99 OFFCURVE",
"327.99 411.99 OFFCURVE",
"225.99 411.99 CURVE SMOOTH",
"98.99 411.99 LINE"
);
}
);
width = 599;
},
{
layerId = "6DD95C5A-998B-41AB-BDFB-84A73C209871";
paths = (
{
closed = 1;
nodes = (
"314.99 0 LINE SMOOTH",
"474.99 0 OFFCURVE",
"599.99 77 OFFCURVE",
"599.99 225 CURVE SMOOTH",
"599.99 339.38 OFFCURVE",
"533.02 393.99 OFFCURVE",
"444.84 418.73 CURVE",
"472.41 447.79 OFFCURVE",
"487.99 485.07 OFFCURVE",
"487.99 528 CURVE SMOOTH",
"487.99 657 OFFCURVE",
"372.99 700 OFFCURVE",
"259.99 700 CURVE SMOOTH",
"49.99 700 LINE",
"49.99 0 LINE"
);
},
{
closed = 1;
nodes = (
"202.99 351.76 LINE",
"294.58 352 LINE SMOOTH",
"394.57 352 OFFCURVE",
"446 315.59 OFFCURVE",
"446 225 CURVE SMOOTH",
"446 144 OFFCURVE",
"387.26 115 OFFCURVE",
"297.26 115 CURVE SMOOTH",
"202.99 115 LINE"
);
},
{
closed = 1;
nodes = (
"202.99 585 LINE",
"259.99 585 LINE SMOOTH",
"310.99 585 OFFCURVE",
"344.99 564 OFFCURVE",
"344.99 508 CURVE SMOOTH",
"344.99 462 OFFCURVE",
"310.99 438 OFFCURVE",
"256.99 438 CURVE SMOOTH",
"202.99 438 LINE"
);
}
);
width = 630;
}
);
leftKerningGroup = B;
note = B;
rightKerningGroup = B;
unicode = 0042;
},
{
glyphname = C;
lastChange = "2023-07-27 15:47:19 +0000";
layers = (
{
anchors = (
{
name = bottom;
position = "{383, 0}";
},
{
name = top;
position = "{383, 700}";
}
);
layerId = "F5467FAD-1970-4982-B3D3-939C01050498";
paths = (
{
closed = 1;
nodes = (
"497 -5 OFFCURVE",
"587 36 OFFCURVE",
"648 107 CURVE",
"606 127 LINE",
"552 64 OFFCURVE",
"468 26 OFFCURVE",
"383 26 CURVE SMOOTH",
"210 26 OFFCURVE",
"88 164 OFFCURVE",
"88 348 CURVE SMOOTH",
"88 533 OFFCURVE",
"211 674 OFFCURVE",
"383 674 CURVE SMOOTH",
"470 674 OFFCURVE",
"556 634 OFFCURVE",
"610 567 CURVE",
"651 588 LINE",
"590 662 OFFCURVE",
"498 705 OFFCURVE",
"383 705 CURVE SMOOTH",
"172 705 OFFCURVE",
"34 546 OFFCURVE",
"34 348 CURVE SMOOTH",
"34 152 OFFCURVE",
"173 -5 OFFCURVE",
"383 -5 CURVE SMOOTH"
);
}
);
width = 693;
},
{
anchors = (
{
name = bottom;
position = "{414, 0}";
},
{
name = top;
position = "{414, 700}";
}
);
layerId = "6DD95C5A-998B-41AB-BDFB-84A73C209871";
paths = (
{
closed = 1;
nodes = (
"554 -5 OFFCURVE",
"669 61 OFFCURVE",
"723 151 CURVE",
"587 217 LINE",
"545 142 OFFCURVE",
"487 110 OFFCURVE",
"414 110 CURVE SMOOTH",
"299 110 OFFCURVE",
"214 206 OFFCURVE",
"214 348 CURVE SMOOTH",
"214 492 OFFCURVE",
"300 590 OFFCURVE",
"414 590 CURVE SMOOTH",
"489 590 OFFCURVE",
"548 556 OFFCURVE",
"590 477 CURVE",
"725 545 LINE",
"670 637 OFFCURVE",
"555 705 OFFCURVE",
"414 705 CURVE SMOOTH",
"194 705 OFFCURVE",
"50 538 OFFCURVE",
"50 348 CURVE SMOOTH",
"50 160 OFFCURVE",
"196 -5 OFFCURVE",
"414 -5 CURVE SMOOTH"
);
}
);
width = 745;
}
);
leftKerningGroup = C;
note = C;
rightKerningGroup = C;
unicode = 0043;
},
{
glyphname = D;
lastChange = "2023-07-27 15:47:19 +0000";
layers = (
{
anchors = (
{
name = bottom;
position = "{313, 0}";
},
{
name = top;
position = "{313, 700}";
}
);
layerId = "F5467FAD-1970-4982-B3D3-939C01050498";
paths = (
{
closed = 1;
nodes = (
"235 0 LINE SMOOTH",
"444 0 OFFCURVE",
"601 104 OFFCURVE",
"601 351 CURVE SMOOTH",
"601 602 OFFCURVE",
"423 700 OFFCURVE",
"217 700 CURVE SMOOTH",
"56 700 LINE",
"56 0 LINE"
);
},
{
closed = 1;
nodes = (
"98 658.06 LINE",
"217 659 LINE SMOOTH",
"401 660 OFFCURVE",
"553 585 OFFCURVE",
"553 351 CURVE SMOOTH",
"553 125 OFFCURVE",
"425 41 OFFCURVE",
"235 41 CURVE SMOOTH",
"98 41 LINE"
);
}
);
width = 636;
},
{
anchors = (
{
name = bottom;
position = "{343, 0}";
},
{
name = top;
position = "{343, 700}";
}
);
layerId = "6DD95C5A-998B-41AB-BDFB-84A73C209871";
paths = (
{
closed = 1;
nodes = (
"275 0 LINE SMOOTH",
"496 0 OFFCURVE",
"655 109 OFFCURVE",
"655 351 CURVE SMOOTH",
"655 599 OFFCURVE",
"474 700 OFFCURVE",
"260 700 CURVE SMOOTH",
"50 700 LINE",
"50 0 LINE"
);
},
{
closed = 1;
nodes = (
"203.93 585 LINE",
"260 585 LINE SMOOTH",
"401.49 585 OFFCURVE",
"496 528 OFFCURVE",
"496 351 CURVE SMOOTH",
"496 176 OFFCURVE",
"423 115 OFFCURVE",
"275 115 CURVE SMOOTH",
"203.65 115 LINE"
);
}
);
width = 690;
}
);
leftKerningGroup = B;
note = D;
rightKerningGroup = D;
unicode = 0044;
},
{
glyphname = Eth;
lastChange = "2023-07-27 15:47:19 +0000";
layers = (
{
layerId = "F5467FAD-1970-4982-B3D3-939C01050498";
paths = (
{
closed = 1;
nodes = (
"345 0 LINE SMOOTH",
"554 0 OFFCURVE",
"711 104 OFFCURVE",
"711 351 CURVE SMOOTH",
"711 602 OFFCURVE",
"533 700 OFFCURVE",
"327 700 CURVE SMOOTH",
"166 700 LINE",
"166 325 LINE",
"48 325 LINE",
"48 291 LINE",
"166 291 LINE",
"166 0 LINE"
);
},
{
closed = 1;
nodes = (
"208 291 LINE",
"437 291 LINE",
"437 325 LINE",
"208 325 LINE",
"208 658.06 LINE",
"327 659 LINE SMOOTH",
"511 659 OFFCURVE",
"663 585 OFFCURVE",
"663 351 CURVE SMOOTH",
"663 125 OFFCURVE",
"535 41 OFFCURVE",
"345 41 CURVE SMOOTH",
"208 41 LINE"
);
}
);
width = 777;
},
{
layerId = "6DD95C5A-998B-41AB-BDFB-84A73C209871";
paths = (
{
closed = 1;
nodes = (
"411 0 LINE SMOOTH",
"632 0 OFFCURVE",
"791 109 OFFCURVE",
"791 351 CURVE SMOOTH",
"791 599 OFFCURVE",
"610 700 OFFCURVE",
"396 700 CURVE SMOOTH",
"186 700 LINE",
"186 366 LINE",
"59 366 LINE",
"59 250 LINE",
"186 250 LINE",
"186 0 LINE"
);
},
{
closed = 1;
nodes = (
"339.73 250 LINE",
"518 250 LINE",
"518 366 LINE",
"339.8 366 LINE",
"339.93 585 LINE",
"396 585 LINE SMOOTH",
"537.49 585 OFFCURVE",
"632 528 OFFCURVE",
"632 351 CURVE SMOOTH",
"632 176 OFFCURVE",
"559 115 OFFCURVE",
"411 115 CURVE SMOOTH",
"339.65 115 LINE"
);
}
);
width = 806;
}
);
leftKerningGroup = Eth;
note = Eth;
rightKerningGroup = D;
unicode = 00D0;
},
{
glyphname = E;
lastChange = "2023-07-27 15:47:19 +0000";
layers = (
{
anchors = (
{
name = bottom;
position = "{333, 0}";
},
{
name = ogonek;
position = "{572, 0}";
},
{
name = top;
position = "{333, 700}";
}
);
layerId = "F5467FAD-1970-4982-B3D3-939C01050498";
paths = (
{
closed = 1;
nodes = (
"586 0 LINE",
"586 30 LINE",
"101 30 LINE",
"101 338 LINE",
"564 338 LINE",
"564 370 LINE",
"101 370 LINE",
"101 669 LINE",
"575 669 LINE",
"575 700 LINE",
"59 700 LINE",
"59 0 LINE"
);
}
);
width = 633;
},
{
anchors = (
{
name = bottom;
position = "{353, 0}";
},
{
name = ogonek;
position = "{512, 0}";
},
{
name = top;
position = "{353, 700}";
}
);
layerId = "6DD95C5A-998B-41AB-BDFB-84A73C209871";
paths = (
{
closed = 1;
nodes = (
"629 0 LINE",
"629 124 LINE",
"204 124 LINE",
"204 296 LINE",
"609 296 LINE",
"609 420 LINE",
"204 420 LINE",
"204 576 LINE",
"619 576 LINE",
"619 700 LINE",
"50 700 LINE",
"50 0 LINE"
);
}
);
width = 669;
}
);
leftKerningGroup = B;
note = E;
rightKerningGroup = E;
unicode = 0045;
},
{
glyphname = Schwa;
lastChange = "2023-09-12 18:30:38 +0000";
layers = (
{
layerId = "F5467FAD-1970-4982-B3D3-939C01050498";
paths = (
{
closed = 1;
nodes = (
"666 347 LINE",
"33 347 LINE",
"31 328 OFFCURVE",
"30 309 OFFCURVE",
"30 291 CURVE SMOOTH",
"30 112 OFFCURVE",
"149 -5 OFFCURVE",
"344 -5 CURVE SMOOTH",
"536 -5 OFFCURVE",
"698 120 OFFCURVE",
"698 341 CURVE SMOOTH",
"698 588 OFFCURVE",
"528 704 OFFCURVE",
"335 704 CURVE SMOOTH",
"196 704 OFFCURVE",
"80 659 OFFCURVE",
"32 580 CURVE",
"64 560 LINE",
"116 630 OFFCURVE",
"180 673 OFFCURVE",
"335 673 CURVE SMOOTH",
"505 673 OFFCURVE",
"660 571 OFFCURVE",
"657 334 CURVE SMOOTH",
"655 147 OFFCURVE",
"537 26 OFFCURVE",
"344 26 CURVE SMOOTH",
"171 26 OFFCURVE",
"61 140 OFFCURVE",
"77 308 CURVE",
"666 308 LINE"
);
}
);
width = 728;
},
{
layerId = "6DD95C5A-998B-41AB-BDFB-84A73C209871";
paths = (
{
closed = 1;
nodes = (
"631 403 LINE",
"70 397 LINE",
"62 360 OFFCURVE",
"58 326 OFFCURVE",
"58 293 CURVE SMOOTH",
"58 110 OFFCURVE",
"190 -5 OFFCURVE",
"402 -5 CURVE SMOOTH",
"612 -5 OFFCURVE",
"759 128 OFFCURVE",
"759 342 CURVE SMOOTH",
"759 582 OFFCURVE",
"607 705 OFFCURVE",
"389 705 CURVE SMOOTH",
"236 705 OFFCURVE",
"98 641 OFFCURVE",
"50 515 CURVE",
"168 447 LINE",
"199 529 OFFCURVE",
"261 589 OFFCURVE",
"369 589 CURVE SMOOTH",
"533 589 OFFCURVE",
"605 503 OFFCURVE",
"605 343 CURVE SMOOTH",
"605 173 OFFCURVE",
"496 110 OFFCURVE",
"397 110 CURVE SMOOTH",
"286 110 OFFCURVE",
"219 151 OFFCURVE",
"231 261 CURVE",
"622 261 LINE"
);
}
);
width = 809;
}
);
leftKerningGroup = C;
leftMetricsKey = O;
rightKerningGroup = O;
rightMetricsKey = O;
unicode = 018F;
},
{
glyphname = F;
lastChange = "2023-07-27 15:47:19 +0000";
layers = (
{
layerId = "F5467FAD-1970-4982-B3D3-939C01050498";
paths = (
{
closed = 1;
nodes = (
"101 0 LINE",
"101 338 LINE",
"564 338 LINE",
"564 370 LINE",
"101 370 LINE",
"101 669 LINE",
"575 669 LINE",
"575 700 LINE",
"59 700 LINE",
"59 0 LINE"
);
}
);
width = 610;
},
{
layerId = "6DD95C5A-998B-41AB-BDFB-84A73C209871";
paths = (
{
closed = 1;
nodes = (
"214 0 LINE",
"214 296 LINE",
"619 296 LINE",
"619 420 LINE",
"214 420 LINE",
"214 576 LINE",
"629 576 LINE",
"629 700 LINE",
"60 700 LINE",
"60 0 LINE"
);
}
);
width = 669;
}
);
leftKerningGroup = B;
note = F;
rightKerningGroup = F;
unicode = 0046;
},
{
glyphname = G;
lastChange = "2023-07-27 15:47:19 +0000";
layers = (
{
anchors = (
{
name = bottom;
position = "{384, 0}";
},
{
name = top;
position = "{384, 700}";
}
);
layerId = "F5467FAD-1970-4982-B3D3-939C01050498";
paths = (
{
closed = 1;
nodes = (
"549.52 -5.03 OFFCURVE",
"641.14 97.66 OFFCURVE",
"661 247.9 CURVE",
"661 0 LINE",
"692 0 LINE",
"692 370 LINE",
"407 370 LINE",
"407 339 LINE",
"650 339 LINE",
"650 296 LINE SMOOTH",
"650 190 OFFCURVE",
"578 26 OFFCURVE",
"383 26 CURVE SMOOTH",
"212 26 OFFCURVE",
"86 166 OFFCURVE",
"86 348 CURVE SMOOTH",
"86 534 OFFCURVE",
"213 674 OFFCURVE",
"384 674 CURVE SMOOTH",
"472 674 OFFCURVE",
"554 634 OFFCURVE",
"608 567 CURVE",
"649 588 LINE",
"588 662 OFFCURVE",
"499 705 OFFCURVE",
"384 705 CURVE SMOOTH",
"173 705 OFFCURVE",
"32 546 OFFCURVE",
"32 348 CURVE SMOOTH",
"32 148.51 OFFCURVE",
"175.12 -5.03 OFFCURVE",
"383.33 -5.03 CURVE SMOOTH"
);
}
);
width = 737;
},
{
anchors = (
{
name = bottom;
position = "{415, 0}";
},
{
name = top;
position = "{416, 700}";
}
);
layerId = "6DD95C5A-998B-41AB-BDFB-84A73C209871";
paths = (
{
closed = 1;
nodes = (
"532 -5 OFFCURVE",
"602 76 OFFCURVE",
"602 163 CURVE",
"602 0 LINE",
"746 0 LINE",
"746 411 LINE",
"380 411 LINE",
"380 296 LINE",
"593 296 LINE",
"593 293 LINE SMOOTH",
"593 198 OFFCURVE",
"546 110 OFFCURVE",
"416 110 CURVE SMOOTH",
"287 110 OFFCURVE",
"213 205 OFFCURVE",
"213 348 CURVE SMOOTH",
"213 492 OFFCURVE",
"302 590 OFFCURVE",
"416 590 CURVE SMOOTH",
"491 590 OFFCURVE",
"547 556 OFFCURVE",
"589 477 CURVE",
"724 545 LINE",
"669 637 OFFCURVE",
"558 705 OFFCURVE",
"416 705 CURVE SMOOTH",
"197 705 OFFCURVE",
"50 538 OFFCURVE",
"50 348 CURVE SMOOTH",
"50 160 OFFCURVE",
"177 -5 OFFCURVE",
"411 -5 CURVE SMOOTH"
);
}
);
width = 806;
}
);
leftKerningGroup = C;
note = G;
rightKerningGroup = G;
unicode = 0047;
},
{
glyphname = H;
lastChange = "2023-07-27 15:47:19 +0000";
layers = (
{
anchors = (
{
name = bottom;
position = "{351, 0}";
},
{
name = top;
position = "{351, 700}";
}
);
layerId = "F5467FAD-1970-4982-B3D3-939C01050498";
paths = (
{
closed = 1;
nodes = (
"98 0 LINE",
"98 348 LINE",
"603 348 LINE",
"603 0 LINE",
"645 0 LINE",
"645 700 LINE",
"603 700 LINE",
"603 390 LINE",
"98 390 LINE",
"98 700 LINE",
"56 700 LINE",
"56 0 LINE"
);
}
);
width = 701;
},
{
anchors = (
{
name = bottom;
position = "{367, 0}";
},
{
name = top;
position = "{367, 700}";
}
);
layerId = "6DD95C5A-998B-41AB-BDFB-84A73C209871";
paths = (
{
closed = 1;
nodes = (
"204 0 LINE",
"204 304 LINE",
"529 304 LINE",
"529 0 LINE",
"683 0 LINE",
"683 700 LINE",
"529 700 LINE",
"529 429 LINE",
"204 429 LINE",
"204 700 LINE",
"50 700 LINE",
"50 0 LINE"
);
}
);
width = 733;
}
);
leftKerningGroup = B;
note = H;
rightKerningGroup = H;
unicode = 0048;
},
{
glyphname = Hbar;
lastChange = "2023-07-27 15:47:19 +0000";
layers = (
{
components = (
{
name = H;
transform = "{1, 0, 0, 1, 39, 0}";
}
);
layerId = "F5467FAD-1970-4982-B3D3-939C01050498";
paths = (
{
closed = 1;
nodes = (
"759 547 LINE",
"20 547 LINE",
"20 505 LINE",
"759 505 LINE"
);
}
);
width = 779;
},
{
components = (
{
name = H;
transform = "{1, 0, 0, 1, 45, 0}";
}
);
layerId = "6DD95C5A-998B-41AB-BDFB-84A73C209871";
paths = (
{
closed = 1;
nodes = (
"803 609 LINE",
"20 609 LINE",
"20 484 LINE",
"803 484 LINE"
);
}
);
width = 823;
}
);
unicode = 0126;
},
{
glyphname = I;
lastChange = "2023-07-27 15:47:19 +0000";
layers = (
{
anchors = (
{
name = bottom;
position = "{103, 0}";
},
{
name = ogonek;
position = "{83, 0}";
},
{
name = top;
position = "{103, 700}";
}
);
layerId = "F5467FAD-1970-4982-B3D3-939C01050498";
paths = (
{
closed = 1;
nodes = (
"125 0 LINE",
"125 700 LINE",
"83 700 LINE",
"83 0 LINE"
);
}
);
width = 208;
},
{
anchors = (
{
name = bottom;
position = "{147, 0}";
},
{
name = ogonek;
position = "{70, 0}";
},
{
name = top;
position = "{147, 700}";
}
);
layerId = "6DD95C5A-998B-41AB-BDFB-84A73C209871";
paths = (
{
closed = 1;
nodes = (
"224 0 LINE",
"224 700 LINE",
"70 700 LINE",
"70 0 LINE"
);
}
);
width = 294;
}
);
leftKerningGroup = I;
note = I;
rightKerningGroup = I;
unicode = 0049;
},
{
glyphname = Iacute;
lastChange = "2023-07-27 15:47:19 +0000";
layers = (
{
layerId = "F5467FAD-1970-4982-B3D3-939C01050498";
paths = (
{
closed = 1;
nodes = (
"125 0 LINE",
"125 700 LINE",
"83 700 LINE",
"83 0 LINE"
);
},
{
closed = 1;
nodes = (
"187 894 LINE",
"164 933 LINE",
"44 820 LINE",
"61 815 LINE"
);
}
);
width = 208;
},
{
layerId = "6DD95C5A-998B-41AB-BDFB-84A73C209871";
paths = (
{
closed = 1;
nodes = (
"224 0 LINE",
"224 700 LINE",
"70 700 LINE",
"70 0 LINE"
);
},
{
closed = 1;
nodes = (
"290 848 LINE",
"213 976 LINE",
"0 777 LINE",
"118 741 LINE"
);
}
);
width = 294;
}
);
leftKerningGroup = I;
note = Iacute;
rightKerningGroup = I;
unicode = 00CD;
},
{
glyphname = J;
lastChange = "2023-07-27 15:47:19 +0000";
layers = (
{
anchors = (
{
name = top;
position = "{465, 700}";
}
);
layerId = "F5467FAD-1970-4982-B3D3-939C01050498";
paths = (
{
closed = 1;
nodes = (
"376 -12 OFFCURVE",
"488 59 OFFCURVE",
"488 195 CURVE",
"487 700 LINE",
"444 700 LINE",
"444 195 LINE SMOOTH",
"444 75 OFFCURVE",
"348 15 OFFCURVE",
"250 15 CURVE SMOOTH",
"157 15 OFFCURVE",
"110 56 OFFCURVE",
"85 99 CURVE",
"50 76 LINE",
"84 24 OFFCURVE",
"146 -12 OFFCURVE",
"250 -12 CURVE SMOOTH"
);
}
);
width = 551;
},
{
anchors = (
{
name = top;
position = "{450, 700}";
}
);
layerId = "6DD95C5A-998B-41AB-BDFB-84A73C209871";
paths = (
{
closed = 1;
nodes = (
"421 -12 OFFCURVE",
"537 82 OFFCURVE",
"537 257 CURVE SMOOTH",
"536 700 LINE",
"382 700 LINE",
"382 239 LINE SMOOTH",
"382 141 OFFCURVE",
"329 100 OFFCURVE",
"268 100 CURVE SMOOTH",
"185 100 OFFCURVE",
"173 146 OFFCURVE",
"151 208 CURVE",
"24 120 LINE",
"52 53 OFFCURVE",
"129 -12 OFFCURVE",
"268 -12 CURVE SMOOTH"
);
}
);
width = 617;
}
);
leftKerningGroup = J;
note = J;
rightKerningGroup = J;
unicode = 004A;
},
{
glyphname = K;
lastChange = "2023-07-27 15:47:19 +0000";
layers = (
{
anchors = (
{
name = bottom;
position = "{279, 0}";
},
{
name = top;
position = "{279, 700}";
}
);
layerId = "F5467FAD-1970-4982-B3D3-939C01050498";
paths = (
{
closed = 1;
nodes = (
"99 0 LINE",
"99 259.48 LINE",
"235.26 408.8 LINE",
"502 0 LINE",
"552 0 LINE",
"265 441.38 LINE",
"501 700 LINE",
"455 700 LINE",
"99 310.62 LINE",
"99 700 LINE",
"56 700 LINE",
"56 0 LINE"
);
}
);
width = 587;
},
{
anchors = (
{
name = bottom;
position = "{349, 0}";
},
{
name = top;
position = "{349, 700}";
}
);
layerId = "6DD95C5A-998B-41AB-BDFB-84A73C209871";
paths = (
{
closed = 1;
nodes = (
"204 0 LINE",
"204 238 LINE",
"274 314 LINE",
"481 0 LINE",
"654 0 LINE",
"374 425 LINE",
"626 700 LINE",
"449 700 LINE",
"204 433 LINE",
"204 700 LINE",
"50 700 LINE",
"50 0 LINE"
);
}
);
width = 679;
}
);
leftKerningGroup = B;
note = K;
rightKerningGroup = K;
unicode = 004B;
},
{
glyphname = L;
lastChange = "2023-07-27 15:47:19 +0000";
layers = (
{
anchors = (
{
name = bottom;
position = "{298, 0}";
},
{
name = top;
position = "{298, 700}";
}
);
layerId = "F5467FAD-1970-4982-B3D3-939C01050498";
paths = (
{
closed = 1;
nodes = (
"535 0 LINE",
"535 30 LINE",
"98 30 LINE",
"98 700 LINE",
"56 700 LINE",
"56 0 LINE"
);
}
);
width = 577;
},
{
anchors = (
{
name = bottom;
position = "{336, 0}";
},
{
name = top;
position = "{336, 700}";
}
);
layerId = "6DD95C5A-998B-41AB-BDFB-84A73C209871";
paths = (
{
closed = 1;
nodes = (
"585 0 LINE",
"585 124 LINE",
"203 124 LINE",
"203 700 LINE",
"50 700 LINE",
"50 0 LINE"
);
}
);
width = 615;
}
);
leftKerningGroup = B;
note = L;
rightKerningGroup = L;
unicode = 004C;
},
{
glyphname = Lslash;
lastChange = "2023-07-27 15:47:19 +0000";
layers = (
{
layerId = "F5467FAD-1970-4982-B3D3-939C01050498";
paths = (
{
closed = 1;
nodes = (
"650 0 LINE",
"650 30 LINE",
"213 30 LINE",
"213 391.5 LINE",
"344 429 LINE",
"344 465 LINE",
"213 427.5 LINE",
"213 700 LINE",
"171 700 LINE",
"171 415.48 LINE",
"54 382 LINE",
"54 346 LINE",
"171 379.48 LINE",
"171 0 LINE"
);
}
);
width = 697;
},
{
layerId = "6DD95C5A-998B-41AB-BDFB-84A73C209871";
paths = (
{
closed = 1;
nodes = (
"700 0 LINE",
"700 124 LINE",
"318 124 LINE",
"318 363.85 LINE",
"406 389 LINE",
"404 514 LINE",
"318 489.36 LINE",
"318 700 LINE",
"165 700 LINE",
"165 445.53 LINE",
"34 408 LINE",
"35 283 LINE",
"165 320.14 LINE",
"165 0 LINE"
);
}
);
width = 697;
}
);
note = Lslash;
unicode = 0141;
},
{
glyphname = M;
lastChange = "2023-07-27 15:47:19 +0000";
layers = (
{
anchors = (
{
name = bottom;
position = "{397, 0}";
},
{
name = top;
position = "{397, 700}";
}
);
layerId = "F5467FAD-1970-4982-B3D3-939C01050498";
paths = (
{
closed = 1;
nodes = (
"98 0 LINE",
"98 616.91 LINE",
"371 0 LINE",
"423 0 LINE",
"695 616.65 LINE",
"695 0 LINE",
"737 0 LINE",
"737 700 LINE",
"680 700 LINE",
"396.94 41.72 LINE",
"112 700 LINE",
"56 700 LINE",
"56 0 LINE"
);
}
);
width = 793;
},
{
anchors = (
{
name = bottom;
position = "{467, 0}";
},
{
name = top;
position = "{467, 700}";
}
);
layerId = "6DD95C5A-998B-41AB-BDFB-84A73C209871";
paths = (
{
closed = 1;
nodes = (
"204 0 LINE",
"204 407 LINE",
"385 0 LINE",
"549 0 LINE",
"730 409 LINE",
"730 0 LINE",
"884 0 LINE",
"884 700 LINE",
"691 701 LINE",
"467 181 LINE",
"243 701 LINE",
"50 700 LINE",
"50 0 LINE"
);
}
);
width = 934;
}
);
leftKerningGroup = B;
note = M;
rightKerningGroup = H;
unicode = 004D;
},
{
glyphname = N;
lastChange = "2023-07-27 15:47:19 +0000";
layers = (
{
anchors = (
{
name = bottom;
position = "{300, 0}";
},
{
name = top;
position = "{300, 700}";
}
);
layerId = "F5467FAD-1970-4982-B3D3-939C01050498";
paths = (
{
closed = 1;
nodes = (
"99 0 LINE",
"99 624.4 LINE",
"498 0 LINE",
"543 0 LINE",
"543 700 LINE",
"500 700 LINE",
"500 69.84 LINE",
"100 700 LINE",
"56 700 LINE",
"56 0 LINE"
);
}
);
width = 599;
},
{
anchors = (
{
name = bottom;
position = "{340, 0}";
},
{
name = top;
position = "{340, 700}";
}
);
layerId = "6DD95C5A-998B-41AB-BDFB-84A73C209871";
paths = (
{
closed = 1;
nodes = (
"204 0 LINE",
"204 436 LINE",
"477 0 LINE",
"629 0 LINE",
"629 700 LINE",
"475 700 LINE",
"475 272 LINE",
"204 700 LINE",
"50 700 LINE",
"50 0 LINE"
);
}
);
width = 679;
}
);
leftKerningGroup = B;
note = N;
rightKerningGroup = H;
unicode = 004E;
},
{
glyphname = Nhookleft;
lastChange = "2023-07-27 15:47:19 +0000";
layers = (
{
components = (
{
name = N;
}
);
layerId = "F5467FAD-1970-4982-B3D3-939C01050498";
paths = (
{
closed = 1;
nodes = (
"56 0 LINE",
"56 -125 LINE SMOOTH",
"56 -159 OFFCURVE",
"41 -166 OFFCURVE",
"25 -166 CURVE SMOOTH",
"3 -166 OFFCURVE",
"-25 -157 OFFCURVE",
"-51 -135 CURVE",
"-55 -169 LINE",
"-40 -185 OFFCURVE",
"-8 -203 OFFCURVE",
"25 -203 CURVE SMOOTH",
"84 -203 OFFCURVE",
"99 -159 OFFCURVE",
"99 -125 CURVE SMOOTH",
"99 0 LINE"
);
}
);
width = 600;
},
{
components = (
{
name = N;
}
);
layerId = "6DD95C5A-998B-41AB-BDFB-84A73C209871";
paths = (
{
closed = 1;
nodes = (
"50 0 LINE",
"50 -65 LINE SMOOTH",
"50 -99 OFFCURVE",
"36 -106 OFFCURVE",
"20 -106 CURVE SMOOTH",
"-2 -106 OFFCURVE",
"-30 -97 OFFCURVE",
"-56 -75 CURVE",
"-56 -169 LINE",
"-31 -185 OFFCURVE",
"4 -203 OFFCURVE",
"58 -203 CURVE SMOOTH",
"131 -203 OFFCURVE",
"204 -159 OFFCURVE",
"204 -65 CURVE SMOOTH",
"204 0 LINE"
);
}
);
width = 679;
}
);
unicode = 019D;
},
{
glyphname = Eng;
lastChange = "2023-07-27 15:47:19 +0000";
layers = (
{
components = (
{
name = N;
}
);
layerId = "F5467FAD-1970-4982-B3D3-939C01050498";
paths = (
{
closed = 1;
nodes = (
"498 0 LINE",
"498 -125 LINE SMOOTH",
"498 -152 OFFCURVE",
"487 -166 OFFCURVE",
"452 -166 CURVE SMOOTH",
"430 -166 OFFCURVE",
"409 -157 OFFCURVE",
"383 -135 CURVE",
"379 -169 LINE",
"398 -185 OFFCURVE",
"426 -203 OFFCURVE",
"459 -203 CURVE SMOOTH",
"518 -203 OFFCURVE",
"543 -169 OFFCURVE",
"543 -125 CURVE SMOOTH",
"543 0 LINE"
);
}
);
width = 599;
},
{
components = (
{
name = N;
}
);
layerId = "6DD95C5A-998B-41AB-BDFB-84A73C209871";
paths = (
{
closed = 1;
nodes = (
"477 0 LINE",
"477 -65 LINE SMOOTH",
"477 -99 OFFCURVE",
"461 -106 OFFCURVE",
"445 -106 CURVE SMOOTH",
"423 -106 OFFCURVE",
"395 -97 OFFCURVE",
"369 -75 CURVE",
"369 -169 LINE",
"394 -185 OFFCURVE",
"429 -203 OFFCURVE",
"483 -203 CURVE SMOOTH",
"556 -203 OFFCURVE",
"629 -159 OFFCURVE",
"629 -65 CURVE SMOOTH",
"629 0 LINE"
);
}
);
width = 679;
}
);
unicode = 014A;
},
{
glyphname = O;
lastChange = "2023-07-27 15:47:19 +0000";
layers = (
{
anchors = (
{
name = bottom;
position = "{414, 0}";
},
{
name = ogonek;
position = "{380, 0}";
},
{
name = top;
position = "{414, 700}";
}
);
layerId = "F5467FAD-1970-4982-B3D3-939C01050498";
paths = (
{
closed = 1;
nodes = (
"590 -5 OFFCURVE",
"728 151 OFFCURVE",
"728 348 CURVE SMOOTH",
"728 546 OFFCURVE",
"590 705 OFFCURVE",
"379 705 CURVE SMOOTH",
"168 705 OFFCURVE",
"30 546 OFFCURVE",
"30 348 CURVE SMOOTH",
"30 152 OFFCURVE",
"169 -5 OFFCURVE",
"379 -5 CURVE SMOOTH"
);
},
{
closed = 1;
nodes = (
"195 26 OFFCURVE",
"73 164 OFFCURVE",
"73 348 CURVE SMOOTH",
"73 533 OFFCURVE",
"196 674 OFFCURVE",
"379 674 CURVE SMOOTH",
"563 674 OFFCURVE",
"685 533 OFFCURVE",
"685 348 CURVE SMOOTH",
"685 164 OFFCURVE",
"563 26 OFFCURVE",
"379 26 CURVE SMOOTH"
);
}
);
width = 758;
},
{
anchors = (
{
name = bottom;
position = "{414, 0}";
},
{
name = ogonek;
position = "{380, 0}";
},
{
name = top;
position = "{414, 700}";
}
);
layerId = "6DD95C5A-998B-41AB-BDFB-84A73C209871";
paths = (
{
closed = 1;
nodes = (
"634 -5 OFFCURVE",
"778 160 OFFCURVE",
"778 348 CURVE SMOOTH",
"778 538 OFFCURVE",
"634 705 OFFCURVE",
"414 705 CURVE SMOOTH",
"194 705 OFFCURVE",
"50 538 OFFCURVE",
"50 348 CURVE SMOOTH",
"50 160 OFFCURVE",
"195 -5 OFFCURVE",
"414 -5 CURVE SMOOTH"
);
},
{
closed = 1;
nodes = (
"289 110 OFFCURVE",
"204 206 OFFCURVE",
"204 348 CURVE SMOOTH",
"204 492 OFFCURVE",
"290 590 OFFCURVE",
"414 590 CURVE SMOOTH",
"539 590 OFFCURVE",
"624 492 OFFCURVE",
"624 348 CURVE SMOOTH",
"624 206 OFFCURVE",
"539 110 OFFCURVE",
"414 110 CURVE SMOOTH"
);
}
);
width = 828;
}
);
leftKerningGroup = C;
note = O;
rightKerningGroup = O;
unicode = 004F;
},
{
glyphname = Oslash;
lastChange = "2023-07-27 15:47:19 +0000";
layers = (
{
components = (
{
name = O;
}
);
layerId = "F5467FAD-1970-4982-B3D3-939C01050498";
paths = (
{
closed = 1;
nodes = (
"235 -74 LINE",
"270 -74 LINE",
"524 785 LINE",
"489 785 LINE"
);
}
);
width = 758;
},
{
components = (
{
name = O;
}
);
layerId = "6DD95C5A-998B-41AB-BDFB-84A73C209871";
paths = (
{
closed = 1;
nodes = (
"230 -64 LINE",
"350 -64 LINE",
"599 775 LINE",
"479 775 LINE"
);
}
);
width = 828;
}
);
leftKerningGroup = C;
note = Oslash;
rightKerningGroup = O;
unicode = 00D8;
},
{
glyphname = OE;
lastChange = "2023-07-27 15:47:19 +0000";
layers = (
{
layerId = "F5467FAD-1970-4982-B3D3-939C01050498";
paths = (
{
closed = 1;
nodes = (
"447.64 -5 OFFCURVE",
"524.76 24.06 OFFCURVE",
"583 73.49 CURVE",
"583 0 LINE",
"1110 0 LINE",
"1110 30 LINE",
"625 30 LINE",
"625 338 LINE",
"1088 338 LINE",
"1088 370 LINE",
"625 370 LINE",
"625 669 LINE",
"1099 669 LINE",
"1099 700 LINE",
"583 700 LINE",
"583 625.54 LINE",
"524.76 675.13 OFFCURVE",
"447.64 705 OFFCURVE",
"355.99 705 CURVE SMOOTH",
"144.99 705 OFFCURVE",
"7.99 546 OFFCURVE",
"7.99 348 CURVE SMOOTH",
"7.99 152 OFFCURVE",
"145.99 -5 OFFCURVE",
"355.99 -5 CURVE SMOOTH"
);
},
{
closed = 1;
nodes = (
"172 26 OFFCURVE",
"50 164 OFFCURVE",
"50 348 CURVE SMOOTH",
"50 533 OFFCURVE",
"173 674 OFFCURVE",
"356 674 CURVE SMOOTH",
"469.1 674 OFFCURVE",
"542.91 642.63 OFFCURVE",
"583 562.02 CURVE",
"583 139.67 LINE",
"542.91 59.63 OFFCURVE",
"469.1 26 OFFCURVE",
"356 26 CURVE SMOOTH"
);
}
);
width = 1157;
},
{
layerId = "6DD95C5A-998B-41AB-BDFB-84A73C209871";
paths = (
{
closed = 1;
nodes = (
"455.42 -5 OFFCURVE",
"520.87 13.26 OFFCURVE",
"574 42.49 CURVE",
"574 0 LINE",
"1153 0 LINE",
"1153 124 LINE",
"728 124 LINE",
"728 296 LINE",
"1133 296 LINE",
"1133 420 LINE",
"728 420 LINE",
"728 576 LINE",
"1143 576 LINE",
"1143 700 LINE",
"574 700 LINE",
"574 656.84 LINE",
"520.87 686.37 OFFCURVE",
"455.42 705 OFFCURVE",
"384 705 CURVE SMOOTH",
"164 705 OFFCURVE",
"20 538 OFFCURVE",
"20 348 CURVE SMOOTH",
"20 160 OFFCURVE",
"166 -5 OFFCURVE",
"384 -5 CURVE SMOOTH"
);
},
{
closed = 1;
nodes = (
"259 110 OFFCURVE",
"174 206 OFFCURVE",
"174 348 CURVE SMOOTH",
"174 492 OFFCURVE",
"260 590 OFFCURVE",
"384 590 CURVE SMOOTH",
"473.07 590 OFFCURVE",
"541.83 540.24 OFFCURVE",
"574 459.53 CURVE",
"574 238.13 LINE",
"541.83 158.74 OFFCURVE",
"473.07 109.99 OFFCURVE",
"384 109.99 CURVE SMOOTH"
);
}
);
width = 1157;
}
);
leftKerningGroup = C;
note = OE;
rightKerningGroup = E;
unicode = 0152;
},
{
glyphname = P;
lastChange = "2023-07-27 15:47:19 +0000";
layers = (
{
layerId = "F5467FAD-1970-4982-B3D3-939C01050498";
paths = (
{
closed = 1;
nodes = (
"92 0 LINE",
"92 340 LINE",
"231 340 LINE SMOOTH",
"341 340 OFFCURVE",
"439 383 OFFCURVE",
"439 520 CURVE SMOOTH",
"439 655 OFFCURVE",
"335 700 OFFCURVE",
"237 700 CURVE SMOOTH",
"50 700 LINE",
"50 0 LINE"
);
},
{
closed = 1;
nodes = (
"92 669 LINE",
"234 669 LINE SMOOTH",
"327 669 OFFCURVE",
"397 621 OFFCURVE",
"397 520 CURVE SMOOTH",
"397 420 OFFCURVE",
"330 368 OFFCURVE",
"231 368 CURVE SMOOTH",
"92 368 LINE"
);
}
);
width = 479;
},
{
layerId = "6DD95C5A-998B-41AB-BDFB-84A73C209871";
paths = (
{
closed = 1;
nodes = (
"204 0 LINE",
"204 297 LINE",
"297 297 LINE SMOOTH",
"412 297 OFFCURVE",
"539 349 OFFCURVE",
"539 499 CURVE SMOOTH",
"539 647 OFFCURVE",
"407 700 OFFCURVE",
"303 700 CURVE SMOOTH",
"50 700 LINE",
"50 0 LINE"
);
},
{
closed = 1;
nodes = (
"204 585 LINE",
"300 585 LINE SMOOTH",
"354 585 OFFCURVE",
"395 563 OFFCURVE",
"395 499 CURVE SMOOTH",
"395 434 OFFCURVE",
"354 409 OFFCURVE",
"297 409 CURVE SMOOTH",
"204 409 LINE"
);
}
);
width = 579;
}
);
leftKerningGroup = B;
note = P;
rightKerningGroup = P;
unicode = 0050;
},
{
glyphname = Thorn;
lastChange = "2023-07-27 15:47:19 +0000";
layers = (
{
layerId = "F5467FAD-1970-4982-B3D3-939C01050498";
paths = (
{
closed = 1;
nodes = (
"136 0 LINE",
"136 221 LINE",
"289 221 LINE SMOOTH",
"398 221 OFFCURVE",
"498 268 OFFCURVE",
"498 405 CURVE SMOOTH",
"498 540 OFFCURVE",
"393 585 OFFCURVE",
"295 585 CURVE SMOOTH",
"136 585 LINE",
"136 700 LINE",
"93 700 LINE",
"93 0 LINE"
);
},
{
closed = 1;
nodes = (
"136 554 LINE",
"292 554 LINE SMOOTH",
"385 554 OFFCURVE",
"455 507 OFFCURVE",
"455 405 CURVE SMOOTH",
"455 306 OFFCURVE",
"388 253 OFFCURVE",
"289 253 CURVE SMOOTH",
"136 253 LINE"
);
}
);
width = 531;
},
{
layerId = "6DD95C5A-998B-41AB-BDFB-84A73C209871";
paths = (
{
closed = 1;
nodes = (
"186 0 LINE",
"186 193 LINE",
"288 193 LINE SMOOTH",
"403 193 OFFCURVE",
"529 249 OFFCURVE",
"529 399 CURVE SMOOTH",
"529 546 OFFCURVE",
"397 600 OFFCURVE",
"294 600 CURVE SMOOTH",
"186 600 LINE",
"186 700 LINE",
"32 700 LINE",
"32 0 LINE"
);
},
{
closed = 1;
nodes = (
"186 485 LINE",
"291 485 LINE SMOOTH",
"344 485 OFFCURVE",
"375 463 OFFCURVE",
"375 399 CURVE SMOOTH",
"375 334 OFFCURVE",
"344 309 OFFCURVE",
"288 309 CURVE SMOOTH",
"186 309 LINE"
);
}
);
width = 531;
}
);
note = Thorn;
unicode = 00DE;
},
{
glyphname = Q;
lastChange = "2023-07-27 15:47:19 +0000";
layers = (
{
layerId = "F5467FAD-1970-4982-B3D3-939C01050498";
paths = (
{
closed = 1;
nodes = (
"455.31 -5 OFFCURVE",
"529.89 24.05 OFFCURVE",
"586.79 72.92 CURVE",
"665 0 LINE",
"714 0 LINE",
"610.32 95.31 LINE",
"670.91 159.1 OFFCURVE",
"706 248.3 OFFCURVE",
"706 348 CURVE SMOOTH",
"706 546 OFFCURVE",
"568 705 OFFCURVE",
"369 705 CURVE SMOOTH",
"169 705 OFFCURVE",
"31 546 OFFCURVE",
"31 348 CURVE SMOOTH",
"31 152 OFFCURVE",
"170 -5 OFFCURVE",
"369 -5 CURVE SMOOTH"
);
},
{
closed = 1;
nodes = (
"196 26 OFFCURVE",
"73 164 OFFCURVE",
"73 348 CURVE SMOOTH",
"73 533 OFFCURVE",
"197 674 OFFCURVE",
"369 674 CURVE SMOOTH",
"542 674 OFFCURVE",
"664 533 OFFCURVE",
"664 348 CURVE SMOOTH",
"664 257.24 OFFCURVE",
"634.08 177.67 OFFCURVE",
"583.1 120.33 CURVE",
"429 262 LINE",
"384 262 LINE",
"560.4 97.52 LINE",
"510.11 52.41 OFFCURVE",
"444.24 26 OFFCURVE",
"369 26 CURVE SMOOTH"
);
}
);
width = 772;
},
{
layerId = "6DD95C5A-998B-41AB-BDFB-84A73C209871";
paths = (
{
closed = 1;
nodes = (
"474 -5 OFFCURVE",
"536 13 OFFCURVE",
"588 44 CURVE",
"636 0 LINE",
"829 0 LINE",
"686 132 LINE",
"732 192 OFFCURVE",
"758 268 OFFCURVE",
"758 348 CURVE SMOOTH",
"758 538 OFFCURVE",
"614 705 OFFCURVE",
"404 705 CURVE SMOOTH",
"194 705 OFFCURVE",
"50 538 OFFCURVE",
"50 348 CURVE SMOOTH",
"50 160 OFFCURVE",
"195 -5 OFFCURVE",
"404 -5 CURVE SMOOTH"
);
},
{
closed = 1;
nodes = (
"289 110 OFFCURVE",
"204 206 OFFCURVE",
"204 348 CURVE SMOOTH",
"204 492 OFFCURVE",
"290 590 OFFCURVE",
"404 590 CURVE SMOOTH",
"519 590 OFFCURVE",
"604 492 OFFCURVE",
"604 348 CURVE SMOOTH",
"604 303 OFFCURVE",
"595 263 OFFCURVE",
"580 229 CURVE",
"484 317 LINE",
"296 317 LINE",
"494 132 LINE",
"467 118 OFFCURVE",
"437 110 OFFCURVE",
"404 110 CURVE SMOOTH"
);
}
);
width = 836;
}
);
leftKerningGroup = C;
note = Q;
rightKerningGroup = Q;
unicode = 0051;
},
{
glyphname = R;
lastChange = "2023-07-27 15:47:19 +0000";
layers = (
{
anchors = (
{
name = bottom;
position = "{278, 0}";
},
{
name = top;
position = "{248, 700}";
}
);
layerId = "F5467FAD-1970-4982-B3D3-939C01050498";
paths = (
{
closed = 1;
nodes = (
"99 0 LINE",
"99 389.07 LINE",
"233 390 LINE SMOOTH",
"240 390 OFFCURVE",
"245.98 390.12 OFFCURVE",
"252.35 390.37 CURVE",
"510 0 LINE",
"560 0 LINE",
"300.64 395.34 LINE",
"378.69 409.17 OFFCURVE",
"435 452.31 OFFCURVE",
"435 553 CURVE SMOOTH",
"435 665 OFFCURVE",
"350 700 OFFCURVE",
"241 700 CURVE SMOOTH",
"56 700 LINE",
"56 0 LINE"
);
},
{
closed = 1;
nodes = (
"98.99 669 LINE",
"240.99 669 LINE",
"336.99 669 OFFCURVE",
"392.99 620 OFFCURVE",
"392.99 542 CURVE SMOOTH",
"392.99 465 OFFCURVE",
"338.99 412 OFFCURVE",
"236.99 412 CURVE SMOOTH",
"98.99 412 LINE"
);
}
);
width = 570;
},
{
anchors = (
{
name = bottom;
position = "{361, 0}";
},
{
name = top;
position = "{308, 700}";
}
);
layerId = "6DD95C5A-998B-41AB-BDFB-84A73C209871";
paths = (
{
closed = 1;
nodes = (
"204 0 LINE",
"204 316 LINE",
"290 316 LINE SMOOTH",
"292.92 316 OFFCURVE",
"295.85 316.03 OFFCURVE",
"298.77 316.09 CURVE",
"499 0 LINE",
"672 0 LINE",
"448.39 352.46 LINE",
"501.94 382.52 OFFCURVE",
"539 432.61 OFFCURVE",
"539 508 CURVE SMOOTH",
"539 647 OFFCURVE",
"413 700 OFFCURVE",
"290 700 CURVE SMOOTH",
"50 700 LINE",
"50 0 LINE"
);
},
{
closed = 1;
nodes = (
"204 585 LINE",
"290 585 LINE SMOOTH",
"352 585 OFFCURVE",
"385 564 OFFCURVE",
"385 508 CURVE SMOOTH",
"385 452 OFFCURVE",
"352 431 OFFCURVE",
"290 431 CURVE SMOOTH",
"204 431 LINE"
);
}
);
width = 682;
}
);
leftKerningGroup = B;
note = R;
rightKerningGroup = R;
unicode = 0052;
},
{
glyphname = S;
lastChange = "2023-07-27 15:47:19 +0000";
layers = (
{
anchors = (
{
name = bottom;
position = "{305, 0}";
},
{
name = top;
position = "{306, 700}";
}
);
layerId = "F5467FAD-1970-4982-B3D3-939C01050498";
paths = (
{
closed = 1;
nodes = (
"476 -7 OFFCURVE",
"549 73 OFFCURVE",
"549 180 CURVE SMOOTH",
"549 301 OFFCURVE",
"452 332 OFFCURVE",
"303 382 CURVE SMOOTH",
"159 430 OFFCURVE",
"131 472 OFFCURVE",
"131 544 CURVE SMOOTH",
"131 623 OFFCURVE",
"182 683 OFFCURVE",
"299 683 CURVE SMOOTH",
"378 683 OFFCURVE",
"437 651 OFFCURVE",
"457 593 CURVE",
"499 604 LINE",
"471 673 OFFCURVE",
"393 708 OFFCURVE",
"299 708 CURVE SMOOTH",
"155 708 OFFCURVE",
"87 636 OFFCURVE",
"87 544 CURVE SMOOTH",
"87 451 OFFCURVE",
"154 400 OFFCURVE",
"292 355 CURVE SMOOTH",
"451 303 OFFCURVE",
"503 280 OFFCURVE",
"503 180 CURVE SMOOTH",
"503 85 OFFCURVE",
"441 20 OFFCURVE",
"304 20 CURVE SMOOTH",
"169 20 OFFCURVE",
"100 83 OFFCURVE",
"69 172 CURVE",
"30 152 LINE",
"73 57 OFFCURVE",
"155 -7 OFFCURVE",
"304 -7 CURVE SMOOTH"
);
}
);
width = 579;
},
{
anchors = (
{
name = bottom;
position = "{321, 0}";
},
{
name = top;
position = "{322, 700}";
}
);
layerId = "6DD95C5A-998B-41AB-BDFB-84A73C209871";
paths = (
{
closed = 1;
nodes = (
"495 -8 OFFCURVE",
"586 80 OFFCURVE",
"586 210 CURVE SMOOTH",
"586 342 OFFCURVE",
"424 391 OFFCURVE",
"338 423 CURVE SMOOTH",
"258 453 OFFCURVE",
"221 476 OFFCURVE",
"221 521 CURVE SMOOTH",
"221 568 OFFCURVE",
"262 599 OFFCURVE",
"316 599 CURVE SMOOTH",
"381 599 OFFCURVE",
"410 571 OFFCURVE",
"417 508 CURVE",
"558 544 LINE",
"547 649 OFFCURVE",
"434 709 OFFCURVE",
"316 709 CURVE SMOOTH",
"178 709 OFFCURVE",
"71 641 OFFCURVE",
"71 521 CURVE SMOOTH",
"71 410 OFFCURVE",
"153 363 OFFCURVE",
"293 315 CURVE SMOOTH",
"378 286 OFFCURVE",
"437 265 OFFCURVE",
"437 200 CURVE SMOOTH",
"437 144 OFFCURVE",
"393 111 OFFCURVE",
"321 111 CURVE SMOOTH",
"222 111 OFFCURVE",
"172 161 OFFCURVE",
"137 258 CURVE",
"12 195 LINE",
"48 84 OFFCURVE",
"144 -8 OFFCURVE",
"321 -8 CURVE SMOOTH"
);
}
);
width = 612;
}
);
leftKerningGroup = S;
note = S;
rightKerningGroup = S;
unicode = 0053;
},
{
glyphname = Germandbls;
lastChange = "2023-07-27 15:47:19 +0000";
layers = (
{
layerId = "F5467FAD-1970-4982-B3D3-939C01050498";
paths = (
{
closed = 1;
nodes = (
"494 -10 OFFCURVE",
"603 68 OFFCURVE",
"603 202 CURVE SMOOTH",
"603 355 OFFCURVE",
"503 422 OFFCURVE",
"380 422 CURVE SMOOTH",
"373 422 OFFCURVE",
"366 421 OFFCURVE",
"358 421 CURVE",
"589 671 LINE",
"589 700 LINE",
"50 700 LINE",
"50 0 LINE",
"94 0 LINE",
"94 671 LINE",
"544 671 LINE",
"307 411 LINE",
"334 384 LINE",
"350 388 OFFCURVE",
"365 389 OFFCURVE",
"383 389 CURVE SMOOTH",
"485 389 OFFCURVE",
"562 319 OFFCURVE",
"562 202 CURVE SMOOTH",
"562 82 OFFCURVE",
"472 13 OFFCURVE",
"372 13 CURVE SMOOTH",
"272 13 OFFCURVE",
"198 59 OFFCURVE",
"184 163 CURVE",
"142 163 LINE",
"159 45 OFFCURVE",
"250 -10 OFFCURVE",
"372 -10 CURVE SMOOTH"
);
}
);
width = 653;
},
{
layerId = "6DD95C5A-998B-41AB-BDFB-84A73C209871";
paths = (
{
closed = 1;
nodes = (
"632 -10 OFFCURVE",
"760 80 OFFCURVE",
"760 220 CURVE SMOOTH",
"760 327 OFFCURVE",
"693 399 OFFCURVE",
"604 424 CURVE SMOOTH",
"596 427 OFFCURVE",
"588 428 OFFCURVE",
"580 430 CURVE",
"748 602 LINE",
"748 700 LINE",
"50 700 LINE",
"50 0 LINE",
"202 0 LINE",
"202 592 LINE",
"552 592 LINE",
"377 404 LINE",
"442 326 LINE",
"479 337 OFFCURVE",
"488 340 OFFCURVE",
"509 340 CURVE SMOOTH",
"565 340 OFFCURVE",
"607 301 OFFCURVE",
"607 220 CURVE SMOOTH",
"607 137 OFFCURVE",
"557 98 OFFCURVE",
"499 98 CURVE SMOOTH",
"428 98 OFFCURVE",
"387 130 OFFCURVE",
"390 229 CURVE",
"237 229 LINE",
"232 71 OFFCURVE",
"351 -10 OFFCURVE",
"499 -10 CURVE SMOOTH"
);
}
);
width = 810;
}
);
unicode = 1E9E;
},
{
glyphname = T;
lastChange = "2023-07-27 15:47:19 +0000";
layers = (
{
anchors = (
{
name = bottom;
position = "{333, 0}";
},
{
name = top;
position = "{334, 700}";
}
);
layerId = "F5467FAD-1970-4982-B3D3-939C01050498";
paths = (
{
closed = 1;
nodes = (
"355 0 LINE",
"355 670 LINE",
"647 670 LINE",
"647 700 LINE",
"20 700 LINE",
"20 670 LINE",
"313 670 LINE",
"313 0 LINE"
);
}
);
width = 667;
},
{
anchors = (
{
name = bottom;
position = "{359, 0}";
},
{
name = top;
position = "{360, 700}";
}
);
layerId = "6DD95C5A-998B-41AB-BDFB-84A73C209871";
paths = (
{
closed = 1;
nodes = (
"436 0 LINE",
"436 576 LINE",
"692 576 LINE",
"692 700 LINE",
"25 700 LINE",
"25 576 LINE",
"282 576 LINE",
"282 0 LINE"
);
}
);
width = 717;
}
);
leftKerningGroup = T;
note = T;
rightKerningGroup = T;
unicode = 0054;
},
{
glyphname = Tbar;
lastChange = "2023-07-27 15:47:19 +0000";
layers = (
{
components = (
{
name = T;
}
);
layerId = "F5467FAD-1970-4982-B3D3-939C01050498";
paths = (
{
closed = 1;
nodes = (
"556 435 LINE",
"111 435 LINE",
"111 393 LINE",
"556 393 LINE"
);
}
);
width = 667;
},
{
components = (
{
name = T;
transform = "{1, 0, 0, 1, -2, 0}";
}
);
layerId = "6DD95C5A-998B-41AB-BDFB-84A73C209871";
paths = (
{
closed = 1;
nodes = (
"628 422 LINE",
"85 422 LINE",
"85 297 LINE",
"628 297 LINE"
);
}
);
width = 717;
}
);
unicode = 0166;
},
{
glyphname = U;
lastChange = "2023-07-27 15:47:19 +0000";
layers = (
{
anchors = (
{
name = bottom;
position = "{311, 0}";
},
{
name = ogonek;
position = "{341, 0}";
},
{
name = top;
position = "{311, 700}";
}
);
layerId = "F5467FAD-1970-4982-B3D3-939C01050498";
paths = (
{
closed = 1;
nodes = (
"460 -12 OFFCURVE",
"562 58 OFFCURVE",
"562 212 CURVE",
"561 700 LINE",
"519 700 LINE",
"519 212 LINE SMOOTH",
"519 75 OFFCURVE",
"428 15 OFFCURVE",
"311 15 CURVE SMOOTH",
"194 15 OFFCURVE",
"103 75 OFFCURVE",
"103 212 CURVE SMOOTH",
"103 700 LINE",
"61 700 LINE",
"60 212 LINE SMOOTH",
"60 58 OFFCURVE",
"162 -12 OFFCURVE",
"311 -12 CURVE SMOOTH"
);
}
);
width = 622;
},
{
anchors = (
{
name = bottom;
position = "{311, 0}";
},
{
name = ogonek;
position = "{341, 0}";
},
{
name = top;
position = "{311, 700}";
}
);
layerId = "6DD95C5A-998B-41AB-BDFB-84A73C209871";
paths = (
{
closed = 1;
nodes = (
"469 -12 OFFCURVE",
"589 69 OFFCURVE",
"589 228 CURVE",
"588 700 LINE",
"435 700 LINE",
"435 228 LINE SMOOTH",
"435 133 OFFCURVE",
"386 100 OFFCURVE",
"311 100 CURVE SMOOTH",
"236 100 OFFCURVE",
"187 133 OFFCURVE",
"187 228 CURVE SMOOTH",
"187 700 LINE",
"34 700 LINE",
"33 228 LINE SMOOTH",
"33 69 OFFCURVE",
"153 -12 OFFCURVE",
"311 -12 CURVE SMOOTH"
);
}
);
width = 622;
}
);
leftKerningGroup = U;
note = U;
rightKerningGroup = U;
unicode = 0055;
},
{
glyphname = V;
lastChange = "2023-07-27 15:47:19 +0000";
layers = (
{
layerId = "F5467FAD-1970-4982-B3D3-939C01050498";
paths = (
{
closed = 1;
nodes = (
"321 0 LINE",
"561 700 LINE",
"523 700 LINE",
"291 25 LINE",
"309 25 LINE",
"78 700 LINE",
"40 700 LINE",
"279 0 LINE"
);
}
);
width = 601;
},
{
layerId = "6DD95C5A-998B-41AB-BDFB-84A73C209871";
paths = (
{
closed = 1;
nodes = (
"395 0 LINE",
"635 700 LINE",
"482 700 LINE",
"300 168 LINE",
"329 168 LINE",
"147 700 LINE",
"-6 700 LINE",
"233 0 LINE"
);
}
);
width = 629;
}
);
leftKerningGroup = V;
note = V;
rightKerningGroup = V;
unicode = 0056;
},
{
glyphname = W;
lastChange = "2023-07-27 15:47:19 +0000";
layers = (
{
anchors = (
{
name = bottom;
position = "{457, 0}";
},
{
name = top;
position = "{462, 700}";
}
);
layerId = "F5467FAD-1970-4982-B3D3-939C01050498";
paths = (
{
closed = 1;
nodes = (
"281 0 LINE",
"481 700 LINE",
"443 700 LINE",
"257 47 LINE",
"263 47 LINE",
"78 700 LINE",
"40 700 LINE",
"239 0 LINE"
);
},
{
closed = 1;
nodes = (
"884 700 LINE",
"846 700 LINE",
"661 47 LINE",
"667 47 LINE",
"481 700 LINE",
"443 700 LINE",
"643 0 LINE",
"685 0 LINE"
);
}
);
width = 924;
},
{
anchors = (
{
name = bottom;
position = "{444, 0}";
},
{
name = top;
position = "{444, 700}";
}
);
layerId = "6DD95C5A-998B-41AB-BDFB-84A73C209871";
paths = (
{
closed = 1;
nodes = (
"355 0 LINE",
"521 690 LINE",
"373 690 LINE",
"266 198 LINE",
"286 198 LINE",
"194 700 LINE",
"40 700 LINE",
"196 0 LINE"
);
},
{
closed = 1;
nodes = (
"854 700 LINE",
"700 700 LINE",
"608 198 LINE",
"628 198 LINE",
"521 690 LINE",
"373 690 LINE",
"539 0 LINE",
"698 0 LINE"
);
}
);
width = 894;
}
);
leftKerningGroup = W;
note = W;
rightKerningGroup = W;
unicode = 0057;
},
{
glyphname = X;
lastChange = "2023-07-27 15:47:19 +0000";
layers = (
{
layerId = "F5467FAD-1970-4982-B3D3-939C01050498";
paths = (
{
closed = 1;
nodes = (
"352 361 LINE",
"619 700 LINE",
"570 700 LINE",
"330 396 LINE"
);
},
{
closed = 1;
nodes = (
"314 386 LINE",
"10 0 LINE",
"59 0 LINE",
"336 350 LINE"
);
},
{
closed = 1;
nodes = (
"105 700 LINE",
"56 700 LINE",
"593 0 LINE",
"642 0 LINE"
);
}
);
width = 652;
},
{
layerId = "6DD95C5A-998B-41AB-BDFB-84A73C209871";
paths = (
{
closed = 1;
nodes = (
"488 356 LINE",
"761 700 LINE",
"579 700 LINE",
"399 472 LINE"
);
},
{
closed = 1;
nodes = (
"316 388 LINE",
"10 0 LINE",
"192 0 LINE",
"404 270 LINE"
);
},
{
closed = 1;
nodes = (
"236 700 LINE",
"54 700 LINE",
"592 0 LINE",
"773 0 LINE"
);
}
);
width = 783;
}
);
leftKerningGroup = X;
note = X;
rightKerningGroup = X;
unicode = 0058;
},
{
glyphname = Y;
lastChange = "2023-07-27 15:47:19 +0000";
layers = (
{
anchors = (
{
name = bottom;
position = "{287, 0}";
},
{
name = top;
position = "{287, 700}";
}
);
layerId = "F5467FAD-1970-4982-B3D3-939C01050498";
paths = (
{
closed = 1;
nodes = (
"307 0 LINE",
"307 309.73 LINE",
"563 700 LINE",
"517 700 LINE",
"286 337 LINE",
"56 700 LINE",
"10 700 LINE",
"265 309.82 LINE",
"265 0 LINE"
);
}
);
width = 573;
},
{
anchors = (
{
name = bottom;
position = "{352, 0}";
},
{
name = top;
position = "{352, 700}";
}
);
layerId = "6DD95C5A-998B-41AB-BDFB-84A73C209871";
paths = (
{
closed = 1;
nodes = (
"428 0 LINE",
"428 307 LINE",
"683 700 LINE",
"525 700 LINE",
"351 421 LINE",
"178 700 LINE",
"20 700 LINE",
"274 307 LINE",
"274 0 LINE"
);
}
);
width = 703;
}
);
leftKerningGroup = Y;
note = Y;
rightKerningGroup = Y;
unicode = 0059;
},
{
glyphname = Z;
lastChange = "2023-07-27 15:47:19 +0000";
layers = (
{
anchors = (
{
name = bottom;
position = "{284, 0}";
},
{
name = top;
position = "{284, 700}";
}
);
layerId = "F5467FAD-1970-4982-B3D3-939C01050498";
paths = (
{
closed = 1;
nodes = (
"532 0 LINE",
"532 30 LINE",
"55 30 LINE",
"557 670 LINE",
"557 700 LINE",
"46 700 LINE",
"46 670 LINE",
"512 670 LINE",
"10 30 LINE",
"10 0 LINE"
);
}
);
width = 567;
},
{
anchors = (
{
name = bottom;
position = "{295, 0}";
},
{
name = top;
position = "{295, 700}";
}
);
layerId = "6DD95C5A-998B-41AB-BDFB-84A73C209871";
paths = (
{
closed = 1;
nodes = (
"575 0 LINE",
"575 125 LINE",
"202 125 LINE",
"579 576 LINE",
"579 700 LINE",
"32 700 LINE",
"32 576 LINE",
"386 576 LINE",
"10 125 LINE",
"10 0 LINE"
);
}
);
width = 589;
}
);
leftKerningGroup = Z;
note = Z;
rightKerningGroup = Z;
unicode = 005A;
},
{
glyphname = a;
lastChange = "2023-07-27 15:47:19 +0000";
layers = (
{
anchors = (
{
name = bottom;
position = "{260, 0}";
},
{
name = ogonek;
position = "{423, 0}";
},
{
name = top;
position = "{260, 500}";
}
);
layerId = "F5467FAD-1970-4982-B3D3-939C01050498";
paths = (
{
closed = 1;
nodes = (
"322.77 -14 OFFCURVE",
"395.53 48.9 OFFCURVE",
"422.99 128.14 CURVE",
"422.99 0 LINE",
"466.99 0 LINE",
"466.99 310 LINE SMOOTH",
"466.99 399 OFFCURVE",
"448.99 511 OFFCURVE",
"265 511 CURVE SMOOTH",
"171 511 OFFCURVE",
"93 465 OFFCURVE",
"72 410 CURVE SMOOTH",
"70 404 OFFCURVE",
"68 399 OFFCURVE",
"67 393 CURVE",
"131 392 LINE",
"132 396 OFFCURVE",
"133 400 OFFCURVE",
"135 404 CURVE SMOOTH",
"150 446 OFFCURVE",
"197 483 OFFCURVE",
"275 483 CURVE SMOOTH",
"371 483 OFFCURVE",
"418 432 OFFCURVE",
"418 367 CURVE SMOOTH",
"418 300 OFFCURVE",
"337 275 OFFCURVE",
"245 265 CURVE SMOOTH",
"76 246 OFFCURVE",
"30 198 OFFCURVE",
"30 123 CURVE SMOOTH",
"30 42 OFFCURVE",
"105 -14 OFFCURVE",
"224 -14 CURVE SMOOTH"
);
},
{
closed = 1;
nodes = (
"109 12 OFFCURVE",
"79.99 78 OFFCURVE",
"79.99 129 CURVE SMOOTH",
"79.99 194 OFFCURVE",
"127 223 OFFCURVE",
"242 238 CURVE SMOOTH",
"335 250 OFFCURVE",
"391 271 OFFCURVE",
"423 310 CURVE",
"423 209 LINE SMOOTH",
"423 117 OFFCURVE",
"351 12 OFFCURVE",
"224 12 CURVE SMOOTH"
);
}
);
width = 517;
},
{
anchors = (
{
name = bottom;
position = "{293, 0}";
},
{
name = ogonek;
position = "{365, 0}";
},
{
name = top;
position = "{293, 500}";
}
);
layerId = "6DD95C5A-998B-41AB-BDFB-84A73C209871";
paths = (
{
closed = 1;
nodes = (
"292.57 -13.01 OFFCURVE",
"337.9 15.92 OFFCURVE",
"365.18 57.4 CURVE",
"365 -0.01 LINE",
"518 -0.01 LINE",
"518 300.99 LINE SMOOTH",
"518 378.99 OFFCURVE",
"499 508.99 OFFCURVE",
"292 508.99 CURVE SMOOTH",
"171.21 509 OFFCURVE",
"69.64 440.96 OFFCURVE",
"69.64 358.59 CURVE SMOOTH",
"69.64 348.9 OFFCURVE",
"71.05 339 OFFCURVE",
"74 329 CURVE",
"221.75 329 LINE",
"221.4 330.05 OFFCURVE",
"220.99 333.07 OFFCURVE",
"220.99 337.35 CURVE SMOOTH",
"220.99 357.81 OFFCURVE",
"230 407 OFFCURVE",
"300.91 407.02 CURVE SMOOTH",
"339 407 OFFCURVE",
"365 391 OFFCURVE",
"365 357 CURVE SMOOTH",
"365 318 OFFCURVE",
"319.63 303.23 OFFCURVE",
"253 296.99 CURVE SMOOTH",
"89.12 281.65 OFFCURVE",
"30 224.56 OFFCURVE",
"30 142.99 CURVE SMOOTH",
"30 55.99 OFFCURVE",
"90 -13.01 OFFCURVE",
"220 -13.01 CURVE SMOOTH"
);
},
{
closed = 1;
nodes = (
"204 81 OFFCURVE",
"181 116 OFFCURVE",
"181 148 CURVE SMOOTH",
"181 188 OFFCURVE",
"219 207 OFFCURVE",
"266 213 CURVE SMOOTH",
"302 217 OFFCURVE",
"337 226 OFFCURVE",
"368 239 CURVE",
"368 229 LINE SMOOTH",
"368 120 OFFCURVE",
"311 81 OFFCURVE",
"253 81 CURVE SMOOTH"
);
}
);
width = 568;
}
);
leftKerningGroup = a;
note = a;
rightKerningGroup = a;
unicode = 0061;
},
{
glyphname = ae;
lastChange = "2023-07-27 15:47:19 +0000";
layers = (
{
anchors = (
{
name = top;
position = "{451, 500}";
}
);
background = {
paths = (
{
closed = 1;
nodes = (
"348.63 -14 OFFCURVE",
"417.54 63.35 OFFCURVE",
"439.79 152.58 CURVE",
"477.93 39.56 OFFCURVE",
"580.36 -14 OFFCURVE",
"694 -14 CURVE SMOOTH",
"797 -14 OFFCURVE",
"871 19 OFFCURVE",
"919 78 CURVE",
"878 97 LINE",
"844 48 OFFCURVE",
"796 4 OFFCURVE",
"694 4 CURVE SMOOTH",
"582.14 4 OFFCURVE",
"479.11 89.24 OFFCURVE",
"477.03 251 CURVE",
"918 251 LINE",
"919.83 265.39 OFFCURVE",
"920.73 279.35 OFFCURVE",
"920.73 292.83 CURVE SMOOTH",
"920.73 426.37 OFFCURVE",
"832.33 513 OFFCURVE",
"687 513 CURVE SMOOTH",
"590.21 513 OFFCURVE",
"503.95 470.39 OFFCURVE",
"458.31 392 CURVE",
"441.58 455.74 OFFCURVE",
"394.24 511 OFFCURVE",
"265 511 CURVE SMOOTH",
"162 511 OFFCURVE",
"78 456 OFFCURVE",
"67 393 CURVE",
"131 392 LINE",
"143 437 OFFCURVE",
"180 493 OFFCURVE",
"265 493 CURVE SMOOTH",
"363.58 493 OFFCURVE",
"407.58 445.15 OFFCURVE",
"415.51 379.52 CURVE SMOOTH",
"415.98 375.64 OFFCURVE",
"416.21 371.89 OFFCURVE",
"416.21 368.27 CURVE SMOOTH",
"416.21 300.87 OFFCURVE",
"336.99 276.27 OFFCURVE",
"245 265 CURVE SMOOTH",
"86 246 OFFCURVE",
"30 198 OFFCURVE",
"30 123 CURVE SMOOTH",
"30 42 OFFCURVE",
"105 -14 OFFCURVE",
"224 -14 CURVE SMOOTH"
);
},
{
closed = 1;
nodes = (
"109 2 OFFCURVE",
"80 78 OFFCURVE",
"80 129 CURVE SMOOTH",
"80 194 OFFCURVE",
"127 233 OFFCURVE",
"242 248 CURVE SMOOTH",
"324.83 258.62 OFFCURVE",
"391.12 280.77 OFFCURVE",
"422.77 319.76 CURVE",
"423 199 LINE SMOOTH",
"423 107 OFFCURVE",
"351 2 OFFCURVE",
"224 2 CURVE SMOOTH"
);
},
{
closed = 1;
nodes = (
"483.68 399.64 OFFCURVE",
"562.36 498 OFFCURVE",
"687 498 CURVE SMOOTH",
"813.06 498 OFFCURVE",
"872.87 411.93 OFFCURVE",
"872.87 327.49 CURVE SMOOTH",
"872.87 308.78 OFFCURVE",
"869.93 290.14 OFFCURVE",
"864.12 272.54 CURVE",
"477.4 272.54 LINE"
);
}
);
};
components = (
{
name = a;
},
{
alignment = -1;
name = e;
transform = "{1, 0, 0, 1, 394, 0}";
}
);
layerId = "F5467FAD-1970-4982-B3D3-939C01050498";
width = 961;
},
{
anchors = (
{
name = top;
position = "{467, 500}";
}
);
background = {
paths = (
{
closed = 1;
nodes = (
"321 -13 OFFCURVE",
"381 34 OFFCURVE",
"404 100 CURVE",
"450 26 OFFCURVE",
"534 -12 OFFCURVE",
"638 -12 CURVE SMOOTH",
"750 -12 OFFCURVE",
"853 35 OFFCURVE",
"888 128 CURVE",
"765 186 LINE",
"747 132 OFFCURVE",
"711 95 OFFCURVE",
"648 95 CURVE SMOOTH",
"572 95 OFFCURVE",
"533 130 OFFCURVE",
"518 187 CURVE",
"518 215 LINE",
"873 215 LINE",
"879 242 OFFCURVE",
"882 267 OFFCURVE",
"882 291 CURVE SMOOTH",
"882 426 OFFCURVE",
"785 511 OFFCURVE",
"628 511 CURVE SMOOTH",
"562 511 OFFCURVE",
"504 493 OFFCURVE",
"459 460 CURVE",
"426 489 OFFCURVE",
"373 509 OFFCURVE",
"292 509 CURVE SMOOTH",
"171 509 OFFCURVE",
"70 441 OFFCURVE",
"70 359 CURVE SMOOTH",
"70 349 OFFCURVE",
"71 339 OFFCURVE",
"74 329 CURVE",
"222 329 LINE",
"221 330 OFFCURVE",
"221 333 OFFCURVE",
"221 337 CURVE SMOOTH",
"221 358 OFFCURVE",
"230 407 OFFCURVE",
"301 407 CURVE SMOOTH",
"344 407 OFFCURVE",
"363 388 OFFCURVE",
"363 354 CURVE SMOOTH",
"363 315 OFFCURVE",
"320 303 OFFCURVE",
"253 297 CURVE SMOOTH",
"89 282 OFFCURVE",
"30 225 OFFCURVE",
"30 143 CURVE SMOOTH",
"30 56 OFFCURVE",
"90 -13 OFFCURVE",
"220 -13 CURVE SMOOTH"
);
},
{
closed = 1;
nodes = (
"201 81 OFFCURVE",
"178 116 OFFCURVE",
"178 148 CURVE SMOOTH",
"178 188 OFFCURVE",
"216 207 OFFCURVE",
"263 213 CURVE SMOOTH",
"299 217 OFFCURVE",
"334 226 OFFCURVE",
"365 239 CURVE",
"365 229 LINE SMOOTH",
"365 121 OFFCURVE",
"308 81 OFFCURVE",
"250 81 CURVE SMOOTH"
);
},
{
closed = 1;
nodes = (
"518 309 OFFCURVE",
"518 310 OFFCURVE",
"518 312 CURVE",
"536 376 OFFCURVE",
"586 406 OFFCURVE",
"632 406 CURVE SMOOTH",
"693 406 OFFCURVE",
"730 376 OFFCURVE",
"730 326 CURVE SMOOTH",
"730 320 OFFCURVE",
"729 314 OFFCURVE",
"728 308 CURVE",
"518 308 LINE"
);
}
);
};
components = (
{
name = a;
},
{
alignment = -1;
name = e;
transform = "{1, 0, 0, 1, 346, 0}";
}
);
layerId = "6DD95C5A-998B-41AB-BDFB-84A73C209871";
width = 939;
}
);
leftKerningGroup = a;
leftMetricsKey = a;
note = ae;
rightKerningGroup = ae;
rightMetricsKey = e;
unicode = 00E6;
},
{
glyphname = b;
lastChange = "2023-07-27 15:47:19 +0000";
layers = (
{
layerId = "F5467FAD-1970-4982-B3D3-939C01050498";
paths = (
{
closed = 1;
nodes = (
"95 0 LINE",
"95 118 LINE",
"79 252 LINE",
"95 398 LINE",
"95 700 LINE",
"50 700 LINE",
"51 0 LINE"
);
},
{
closed = 1;
nodes = (
"456 -12 OFFCURVE",
"553 100 OFFCURVE",
"553 252 CURVE SMOOTH",
"553 403 OFFCURVE",
"456 513 OFFCURVE",
"304 513 CURVE SMOOTH",
"149 513 OFFCURVE",
"78 370 OFFCURVE",
"78 252 CURVE SMOOTH",
"78 135 OFFCURVE",
"144 -12 OFFCURVE",
"304 -12 CURVE SMOOTH"
);
},
{
closed = 1;
nodes = (
"183 18 OFFCURVE",
"83 107 OFFCURVE",
"83 252 CURVE SMOOTH",
"83 394 OFFCURVE",
"184 484 OFFCURVE",
"305 484 CURVE SMOOTH",
"428 484 OFFCURVE",
"508 379 OFFCURVE",
"508 252 CURVE SMOOTH",
"508 123 OFFCURVE",
"426 18 OFFCURVE",
"304 18 CURVE SMOOTH"
);
}
);
width = 583;
},
{
background = {
paths = (
{
closed = 1;
nodes = (
"552 -12 OFFCURVE",
"649 100 OFFCURVE",
"649 252 CURVE SMOOTH",
"649 403 OFFCURVE",
"552 513 OFFCURVE",
"400 513 CURVE SMOOTH",
"278 513 OFFCURVE",
"208 425 OFFCURVE",
"183 332 CURVE",
"191 398 LINE",
"191 700 LINE",
"146 700 LINE",
"147 0 LINE",
"191 0 LINE",
"191 118 LINE",
"184 170 LINE",
"209 76 OFFCURVE",
"279 -12 OFFCURVE",
"400 -12 CURVE SMOOTH"
);
},
{
closed = 1;
nodes = (
"279 18 OFFCURVE",
"178 107 OFFCURVE",
"178 252 CURVE SMOOTH",
"178 394 OFFCURVE",
"279 484 OFFCURVE",
"400 484 CURVE SMOOTH",
"523 484 OFFCURVE",
"604 379 OFFCURVE",
"604 252 CURVE SMOOTH",
"604 123 OFFCURVE",
"522 18 OFFCURVE",
"400 18 CURVE SMOOTH"
);
}
);
};
layerId = "6DD95C5A-998B-41AB-BDFB-84A73C209871";
paths = (
{
closed = 1;
nodes = (
"188 -0.01 LINE",
"188 26 LINE",
"168 252 LINE",
"188 490 LINE",
"188 700 LINE",
"35 700 LINE",
"36 -0.01 LINE"
);
},
{
closed = 1;
nodes = (
"513 -9 OFFCURVE",
"618 111 OFFCURVE",
"618 252 CURVE SMOOTH",
"618 394 OFFCURVE",
"513 512 OFFCURVE",
"354 512 CURVE SMOOTH",
"201 512 OFFCURVE",
"161 425 OFFCURVE",
"161 252 CURVE SMOOTH",
"161 78 OFFCURVE",
"192 -9 OFFCURVE",
"354 -9 CURVE SMOOTH"
);
},
{
closed = 1;
nodes = (
"237 102 OFFCURVE",
"180 153 OFFCURVE",
"180 252 CURVE SMOOTH",
"180 350 OFFCURVE",
"237 402 OFFCURVE",
"326 402 CURVE SMOOTH",
"409 402 OFFCURVE",
"457 341 OFFCURVE",
"457 252 CURVE SMOOTH",
"457 162 OFFCURVE",
"409 102 OFFCURVE",
"326 102 CURVE SMOOTH"
);
}
);
width = 638;
},
{
associatedMasterId = "F5467FAD-1970-4982-B3D3-939C01050498";
layerId = "26A69B60-DC4A-41CE-A0B3-B5D760A97FC8";
name = "24 juil. 23  14:17";
paths = (
{
closed = 1;
nodes = (
"95 398 LINE",
"95 700 LINE",
"50 700 LINE",
"51 0 LINE",
"95 0 LINE",
"95 118 LINE",
"78 244 LINE"
);
},
{
closed = 1;
nodes = (
"183 18 OFFCURVE",
"82 107 OFFCURVE",
"82 252 CURVE SMOOTH",
"82 394 OFFCURVE",
"183 484 OFFCURVE",
"304 484 CURVE SMOOTH",
"427 484 OFFCURVE",
"508 379 OFFCURVE",
"508 252 CURVE SMOOTH",
"508 123 OFFCURVE",
"426 18 OFFCURVE",
"304 18 CURVE SMOOTH"
);
},
{
closed = 1;
nodes = (
"84 185 LINE",
"106 85 OFFCURVE",
"177 -12 OFFCURVE",
"304 -12 CURVE SMOOTH",
"456 -12 OFFCURVE",
"553 100 OFFCURVE",
"553 252 CURVE SMOOTH",
"553 403 OFFCURVE",
"456 513 OFFCURVE",
"304 513 CURVE SMOOTH",
"176 513 OFFCURVE",
"106 416 OFFCURVE",
"84 317 CURVE"
);
}
);
width = 583;
}
);
leftKerningGroup = b;
note = b;
rightKerningGroup = b;
unicode = 0062;
},
{
glyphname = c;
lastChange = "2023-07-27 15:47:19 +0000";
layers = (
{
anchors = (
{
name = bottom;
position = "{302, 0}";
},
{
name = top;
position = "{308, 500}";
}
);
layerId = "F5467FAD-1970-4982-B3D3-939C01050498";
paths = (
{
closed = 1;
nodes = (
"413 -14 OFFCURVE",
"490 31 OFFCURVE",
"529 112 CURVE",
"489 128 LINE",
"459 68 OFFCURVE",
"405 14 OFFCURVE",
"300 14 CURVE SMOOTH",
"187 14 OFFCURVE",
"83 91 OFFCURVE",
"83 244 CURVE SMOOTH",
"83 392 OFFCURVE",
"167 485 OFFCURVE",
"308 485 CURVE SMOOTH",
"392 485 OFFCURVE",
"448 450 OFFCURVE",
"486 387 CURVE",
"524 408 LINE",
"487 471 OFFCURVE",
"414 513 OFFCURVE",
"308 513 CURVE SMOOTH",
"146 513 OFFCURVE",
"30 420 OFFCURVE",
"30 244 CURVE SMOOTH",
"30 72 OFFCURVE",
"155 -14 OFFCURVE",
"300 -14 CURVE SMOOTH"
);
}
);
width = 559;
},
{
anchors = (
{
name = bottom;
position = "{312, 0}";
},
{
name = top;
position = "{318, 500}";
}
);
layerId = "6DD95C5A-998B-41AB-BDFB-84A73C209871";
paths = (
{
closed = 1;
nodes = (
"445 -12 OFFCURVE",
"535 39 OFFCURVE",
"581.11 149.62 CURVE",
"447.13 202.82 LINE",
"428 136 OFFCURVE",
"395 94 OFFCURVE",
"312 94 CURVE SMOOTH",
"222 94 OFFCURVE",
"174 157.03 OFFCURVE",
"174 245 CURVE SMOOTH",
"174 350 OFFCURVE",
"238 406 OFFCURVE",
"318 406 CURVE SMOOTH",
"385 406 OFFCURVE",
"432 367 OFFCURVE",
"432 303 CURVE",
"565 365 LINE",
"537 452 OFFCURVE",
"448 511 OFFCURVE",
"318 511 CURVE SMOOTH",
"154 511 OFFCURVE",
"30 413 OFFCURVE",
"30 245 CURVE SMOOTH",
"30 78 OFFCURVE",
"165 -12 OFFCURVE",
"312 -12 CURVE SMOOTH"
);
}
);
width = 599;
}
);
leftKerningGroup = a;
note = c;
rightKerningGroup = c;
unicode = 0063;
},
{
glyphname = d;
lastChange = "2023-07-27 15:47:19 +0000";
layers = (
{
anchors = (
{
name = bottom;
position = "{320, 0}";
},
{
name = top;
position = "{670, 500}";
}
);
layerId = "F5467FAD-1970-4982-B3D3-939C01050498";
paths = (
{
closed = 1;
nodes = (
"533 700 LINE",
"488 700 LINE",
"488 398 LINE",
"504 252 LINE",
"488 118 LINE",
"488 0 LINE",
"532 0 LINE"
);
},
{
closed = 1;
nodes = (
"439 -12 OFFCURVE",
"505 135 OFFCURVE",
"505 252 CURVE SMOOTH",
"505 370 OFFCURVE",
"434 513 OFFCURVE",
"279 513 CURVE SMOOTH",
"127 513 OFFCURVE",
"30 403 OFFCURVE",
"30 252 CURVE SMOOTH",
"30 100 OFFCURVE",
"127 -12 OFFCURVE",
"279 -12 CURVE SMOOTH"
);
},
{
closed = 1;
nodes = (
"157 18 OFFCURVE",
"75 123 OFFCURVE",
"75 252 CURVE SMOOTH",
"75 379 OFFCURVE",
"155 484 OFFCURVE",
"278 484 CURVE SMOOTH",
"399 484 OFFCURVE",
"500 394 OFFCURVE",
"500 252 CURVE SMOOTH",
"500 107 OFFCURVE",
"400 18 OFFCURVE",
"279 18 CURVE SMOOTH"
);
}
);
width = 583;
},
{
anchors = (
{
name = bottom;
position = "{353, 0}";
},
{
name = top;
position = "{721, 500}";
}
);
layerId = "6DD95C5A-998B-41AB-BDFB-84A73C209871";
paths = (
{
closed = 1;
nodes = (
"603 700 LINE",
"450 700 LINE",
"450 490 LINE",
"470 252 LINE",
"450 26 LINE",
"450 0 LINE",
"602 0 LINE"
);
},
{
closed = 1;
nodes = (
"446 -9 OFFCURVE",
"477 78 OFFCURVE",
"477 252 CURVE SMOOTH",
"477 425 OFFCURVE",
"437 512 OFFCURVE",
"284 512 CURVE SMOOTH",
"125 512 OFFCURVE",
"20 394 OFFCURVE",
"20 252 CURVE SMOOTH",
"20 111 OFFCURVE",
"125 -9 OFFCURVE",
"284 -9 CURVE SMOOTH"
);
},
{
closed = 1;
nodes = (
"232 102 OFFCURVE",
"183 162 OFFCURVE",
"183 252 CURVE SMOOTH",
"183 341 OFFCURVE",
"231 402 OFFCURVE",
"314 402 CURVE SMOOTH",
"407 402 OFFCURVE",
"460 345 OFFCURVE",
"460 252 CURVE SMOOTH",
"460 153 OFFCURVE",
"403 102 OFFCURVE",
"314 102 CURVE SMOOTH"
);
}
);
width = 638;
},
{
anchors = (
{
name = bottom;
position = "{353, 0}";
},
{
name = top;
position = "{721, 500}";
}
);
associatedMasterId = "6DD95C5A-998B-41AB-BDFB-84A73C209871";
layerId = "1D074922-2F39-4A43-B83C-D4901F087130";
name = "24 juil. 23  14:32";
paths = (
{
closed = 1;
nodes = (
"362 -9 OFFCURVE",
"412 8 OFFCURVE",
"450 34 CURVE",
"450 18 LINE",
"450 0 LINE",
"602 0 LINE",
"603 700 LINE",
"450 700 LINE",
"450 493 LINE",
"450 467 LINE",
"412 495 OFFCURVE",
"361 512 OFFCURVE",
"294 512 CURVE SMOOTH",
"135 512 OFFCURVE",
"30 394 OFFCURVE",
"30 252 CURVE SMOOTH",
"30 111 OFFCURVE",
"134 -9 OFFCURVE",
"295 -9 CURVE SMOOTH"
);
},
{
closed = 1;
nodes = (
"232 102 OFFCURVE",
"183 162 OFFCURVE",
"183 252 CURVE SMOOTH",
"183 341 OFFCURVE",
"231 402 OFFCURVE",
"314 402 CURVE SMOOTH",
"407 402 OFFCURVE",
"460 345 OFFCURVE",
"460 252 CURVE SMOOTH",
"460 153 OFFCURVE",
"403 102 OFFCURVE",
"314 102 CURVE SMOOTH"
);
}
);
width = 638;
},
{
anchors = (
{
name = bottom;
position = "{320, 0}";
},
{
name = top;
position = "{670, 500}";
}
);
associatedMasterId = "F5467FAD-1970-4982-B3D3-939C01050498";
layerId = "0FE110F9-B3B8-41FB-9267-A7A4874DD26C";
name = "24 juil. 23  14:32";
paths = (
{
closed = 1;
nodes = (
"404 -12 OFFCURVE",
"474 81 OFFCURVE",
"497 179 CURVE",
"491 118 LINE",
"491 0 LINE",
"535 0 LINE",
"536 700 LINE",
"491 700 LINE",
"491 398 LINE",
"497 324 LINE",
"474 421 OFFCURVE",
"404 513 OFFCURVE",
"279 513 CURVE SMOOTH",
"127 513 OFFCURVE",
"30 403 OFFCURVE",
"30 252 CURVE SMOOTH",
"30 100 OFFCURVE",
"127 -12 OFFCURVE",
"279 -12 CURVE SMOOTH"
);
},
{
closed = 1;
nodes = (
"157 18 OFFCURVE",
"75 123 OFFCURVE",
"75 252 CURVE SMOOTH",
"75 379 OFFCURVE",
"156 483 OFFCURVE",
"279 483 CURVE SMOOTH",
"400 483 OFFCURVE",
"501 394 OFFCURVE",
"501 252 CURVE SMOOTH",
"501 107 OFFCURVE",
"400 18 OFFCURVE",
"279 18 CURVE SMOOTH"
);
}
);
width = 586;
}
);
leftKerningGroup = a;
note = d;
rightKerningGroup = d;
unicode = 0064;
},
{
glyphname = eth;
lastChange = "2023-07-27 15:47:19 +0000";
layers = (
{
layerId = "F5467FAD-1970-4982-B3D3-939C01050498";
paths = (
{
closed = 1;
nodes = (
"466 -34 OFFCURVE",
"553 128 OFFCURVE",
"552.99 311.98 CURVE SMOOTH",
"553 509.95 OFFCURVE",
"446.01 663.6 OFFCURVE",
"268.24 745.05 CURVE",
"326.99 795.99 LINE",
"307.99 814.99 LINE",
"240.87 756.79 LINE",
"191.3 776.66 OFFCURVE",
"136.78 791.24 OFFCURVE",
"77.99 799.99 CURVE",
"77.99 763.99 LINE",
"125.46 755.24 OFFCURVE",
"168.75 743.23 OFFCURVE",
"208.02 728.3 CURVE",
"149.99 677.99 LINE",
"168.99 658.99 LINE",
"235.84 716.95 LINE",
"407.06 642.09 OFFCURVE",
"494.37 507.56 OFFCURVE",
"511.74 346.79 CURVE",
"470.17 422.43 OFFCURVE",
"390.75 490.99 OFFCURVE",
"286.99 490.99 CURVE SMOOTH",
"145 491 OFFCURVE",
"38 389 OFFCURVE",
"37.99 235.99 CURVE SMOOTH",
"38 100 OFFCURVE",
"123 -34 OFFCURVE",
"283.99 -34.01 CURVE SMOOTH"
);
},
{
closed = 1;
nodes = (
"169.99 -4.02 OFFCURVE",
"84.99 103.98 OFFCURVE",
"84.99 240.98 CURVE SMOOTH",
"85 364 OFFCURVE",
"165 462 OFFCURVE",
"289.99 461.98 CURVE SMOOTH",
"407.99 461.98 OFFCURVE",
"509.99 371.98 OFFCURVE",
"509.99 220.98 CURVE SMOOTH",
"510 93 OFFCURVE",
"419 -4 OFFCURVE",
"288.99 -4.02 CURVE SMOOTH"
);
}
);
width = 573;
},
{
layerId = "6DD95C5A-998B-41AB-BDFB-84A73C209871";
paths = (
{
closed = 1;
nodes = (
"481 -4 OFFCURVE",
"566 161 OFFCURVE",
"565.99 326 CURVE SMOOTH",
"566 486.29 OFFCURVE",
"483.31 618.08 OFFCURVE",
"345.65 698.23 CURVE",
"393.99 740 LINE",
"330.99 814 LINE",
"248.94 742.74 LINE",
"190.94 763.29 OFFCURVE",
"126.52 776.41 OFFCURVE",
"56.99 781 CURVE",
"56.99 665 LINE",
"87.34 661.52 OFFCURVE",
"115.61 656.4 OFFCURVE",
"141.87 649.76 CURVE",
"102.99 615.99 LINE",
"165.99 542.99 LINE",
"244.73 611.03 LINE",
"295.51 584.11 OFFCURVE",
"334.48 548.9 OFFCURVE",
"362.56 507.18 CURVE",
"339.47 514.11 OFFCURVE",
"314.58 518 OFFCURVE",
"287.99 518 CURVE SMOOTH",
"145 518 OFFCURVE",
"25 414 OFFCURVE",
"24.99 263 CURVE SMOOTH",
"25 126 OFFCURVE",
"126 -4 OFFCURVE",
"285.99 -4 CURVE SMOOTH"
);
},
{
closed = 1;
nodes = (
"228.99 108 OFFCURVE",
"178.99 171 OFFCURVE",
"178.99 267 CURVE SMOOTH",
"178.99 350.65 OFFCURVE",
"226.15 406.88 OFFCURVE",
"290.67 406.88 CURVE SMOOTH",
"340.11 406.88 OFFCURVE",
"414.99 369.33 OFFCURVE",
"414.99 251 CURVE SMOOTH",
"415 195 OFFCURVE",
"387 115 OFFCURVE",
"290 108 CURVE SMOOTH"
);
}
);
width = 573;
}
);
note = eth;
unicode = 00F0;
},
{
glyphname = dcroat;
lastChange = "2023-07-27 15:47:19 +0000";
layers = (
{
components = (
{
name = d;
}
);
layerId = "F5467FAD-1970-4982-B3D3-939C01050498";
paths = (
{
closed = 1;
nodes = (
"586 640 LINE",
"406 640 LINE",
"406 598 LINE",
"586 598 LINE"
);
}
);
width = 586;
},
{
components = (
{
name = d;
}
);
layerId = "6DD95C5A-998B-41AB-BDFB-84A73C209871";
paths = (
{
closed = 1;
nodes = (
"658 633 LINE",
"325 633 LINE",
"325 538 LINE",
"658 538 LINE"
);
}
);
width = 638;
}
);
unicode = 0111;
},
{
glyphname = e;
lastChange = "2023-07-27 15:47:19 +0000";
layers = (
{
anchors = (
{
name = bottom;
position = "{302, 0}";
},
{
name = ogonek;
position = "{326, 0}";
},
{
name = top;
position = "{308, 500}";
}
);
layerId = "F5467FAD-1970-4982-B3D3-939C01050498";
paths = (
{
closed = 1;
nodes = (
"78 251 LINE",
"524 251 LINE",
"525.83 265.39 OFFCURVE",
"526.73 279.35 OFFCURVE",
"526.73 292.83 CURVE SMOOTH",
"526.73 426.37 OFFCURVE",
"438.33 513 OFFCURVE",
"293 513 CURVE SMOOTH",
"150 513 OFFCURVE",
"30 420 OFFCURVE",
"30 256 CURVE SMOOTH",
"30 72 OFFCURVE",
"156 -14 OFFCURVE",
"300 -14 CURVE SMOOTH",
"403 -14 OFFCURVE",
"477 19 OFFCURVE",
"525 78 CURVE",
"484 107 LINE",
"450 58 OFFCURVE",
"402 14 OFFCURVE",
"300 14 CURVE SMOOTH",
"186 14 OFFCURVE",
"81 93 OFFCURVE",
"83 260 CURVE SMOOTH",
"85 393 OFFCURVE",
"164 488 OFFCURVE",
"293 488 CURVE SMOOTH",
"419 488 OFFCURVE",
"478.87 411.92 OFFCURVE",
"478.87 327.49 CURVE SMOOTH",
"478.87 308.77 OFFCURVE",
"477 296 OFFCURVE",
"473 279 CURVE",
"78 279 LINE"
);
}
);
width = 567;
},
{
anchors = (
{
name = bottom;
position = "{302, 0}";
},
{
name = ogonek;
position = "{326, 0}";
},
{
name = top;
position = "{308, 500}";
}
);
layerId = "6DD95C5A-998B-41AB-BDFB-84A73C209871";
paths = (
{
closed = 1;
nodes = (
"161 215 LINE",
"538 215 LINE",
"544 242 OFFCURVE",
"547 267 OFFCURVE",
"547 291 CURVE SMOOTH",
"547 426 OFFCURVE",
"450 511 OFFCURVE",
"293 511 CURVE SMOOTH",
"138 511 OFFCURVE",
"30 413 OFFCURVE",
"30 255 CURVE SMOOTH",
"30 78 OFFCURVE",
"142 -12 OFFCURVE",
"303 -12 CURVE SMOOTH",
"415 -12 OFFCURVE",
"518 35 OFFCURVE",
"553 128 CURVE",
"430 186 LINE",
"412 132 OFFCURVE",
"376 93 OFFCURVE",
"313 93 CURVE SMOOTH",
"217 93 OFFCURVE",
"176 150 OFFCURVE",
"176 254 CURVE SMOOTH",
"176 365 OFFCURVE",
"238 406 OFFCURVE",
"297 406 CURVE SMOOTH",
"358 406 OFFCURVE",
"395 376 OFFCURVE",
"395 326 CURVE SMOOTH",
"395 320 OFFCURVE",
"394 314 OFFCURVE",
"393 308 CURVE",
"166 308 LINE"
);
}
);
width = 593;
}
);
leftKerningGroup = a;
note = e;
rightKerningGroup = ae;
unicode = 0065;
},
{
glyphname = f;
lastChange = "2023-07-27 15:47:19 +0000";
layers = (
{
layerId = "F5467FAD-1970-4982-B3D3-939C01050498";
paths = (
{
closed = 1;
nodes = (
"158 1 LINE",
"158 466 LINE",
"346 466 LINE",
"346 501 LINE",
"228 501 LINE",
"123 523 OFFCURVE",
"94 575 OFFCURVE",
"94 621 CURVE SMOOTH",
"94 690 OFFCURVE",
"151 728 OFFCURVE",
"214 728 CURVE SMOOTH",
"271 728 OFFCURVE",
"311 695 OFFCURVE",
"331 663 CURVE",
"375 691 LINE",
"345 719 OFFCURVE",
"282 746 OFFCURVE",
"214 746 CURVE SMOOTH",
"98 746 OFFCURVE",
"58 674 OFFCURVE",
"58 625 CURVE SMOOTH",
"58 570 OFFCURVE",
"94 514 OFFCURVE",
"176 501 CURVE",
"9 501 LINE",
"9 466 LINE",
"115 466 LINE",
"114 1 LINE"
);
}
);
width = 367;
},
{
layerId = "6DD95C5A-998B-41AB-BDFB-84A73C209871";
paths = (
{
closed = 1;
nodes = (
"246 0 LINE",
"246 385 LINE",
"402 385 LINE",
"402 501 LINE",
"274 501 LINE SMOOTH",
"218 501 OFFCURVE",
"188 538 OFFCURVE",
"188 572 CURVE SMOOTH",
"188 616 OFFCURVE",
"215 644 OFFCURVE",
"267 644 CURVE SMOOTH",
"325 644 OFFCURVE",
"343 593 OFFCURVE",
"352 577 CURVE",
"482 632 LINE",
"466 657 OFFCURVE",
"396 738 OFFCURVE",
"267 738 CURVE SMOOTH",
"126 738 OFFCURVE",
"48 674 OFFCURVE",
"48 586 CURVE SMOOTH",
"48 533 OFFCURVE",
"79 509 OFFCURVE",
"93 501 CURVE",
"7 501 LINE",
"7 385 LINE",
"95 385 LINE",
"94 0 LINE"
);
}
);
width = 397;
}
);
leftKerningGroup = f;
note = f;
rightKerningGroup = f;
unicode = 0066;
},
{
glyphname = g;
lastChange = "2023-07-27 15:47:19 +0000";
layers = (
{
anchors = (
{
name = top;
position = "{308, 500}";
}
);
layerId = "F5467FAD-1970-4982-B3D3-939C01050498";
paths = (
{
closed = 1;
nodes = (
"425 -259 OFFCURVE",
"533 -175 OFFCURVE",
"533 -1 CURVE",
"488 -1 LINE",
"488 -153 OFFCURVE",
"396 -230 OFFCURVE",
"282 -230 CURVE SMOOTH",
"174 -230 OFFCURVE",
"126 -177 OFFCURVE",
"101 -128 CURVE",
"57 -138 LINE",
"88 -207 OFFCURVE",
"154 -259 OFFCURVE",
"282 -259 CURVE SMOOTH"
);
},
{
closed = 1;
nodes = (
"488 500 LINE",
"488 382 LINE",
"504 248 LINE",
"488 116 LINE",
"488 -1 LINE",
"533 -1 LINE",
"532 500 LINE"
);
},
{
closed = 1;
nodes = (
"127 512 OFFCURVE",
"30 400 OFFCURVE",
"30 248 CURVE SMOOTH",
"30 97 OFFCURVE",
"127 -13 OFFCURVE",
"279 -13 CURVE SMOOTH",
"434 -13 OFFCURVE",
"505 130 OFFCURVE",
"505 248 CURVE SMOOTH",
"505 365 OFFCURVE",
"439 512 OFFCURVE",
"279 512 CURVE SMOOTH"
);
},
{
closed = 1;
nodes = (
"400 482 OFFCURVE",
"500 393 OFFCURVE",
"500 248 CURVE SMOOTH",
"500 106 OFFCURVE",
"399 16 OFFCURVE",
"278 16 CURVE SMOOTH",
"155 16 OFFCURVE",
"75 121 OFFCURVE",
"75 248 CURVE SMOOTH",
"75 377 OFFCURVE",
"157 482 OFFCURVE",
"279 482 CURVE SMOOTH"
);
}
);
width = 583;
},
{
anchors = (
{
name = top;
position = "{328, 500}";
}
);
layerId = "6DD95C5A-998B-41AB-BDFB-84A73C209871";
paths = (
{
closed = 1;
nodes = (
"485 -260 OFFCURVE",
"603 -159 OFFCURVE",
"603 8 CURVE",
"450 8 LINE",
"450 -95 OFFCURVE",
"398 -149 OFFCURVE",
"317 -149 CURVE SMOOTH",
"241 -149 OFFCURVE",
"215 -112 OFFCURVE",
"196 -58 CURVE",
"51 -86 LINE",
"70 -170 OFFCURVE",
"151 -260 OFFCURVE",
"317 -260 CURVE SMOOTH"
);
},
{
closed = 1;
nodes = (
"450 500 LINE",
"450 474 LINE",
"470 248 LINE",
"450 43 LINE",
"450 8 LINE",
"603 8 LINE",
"602 500 LINE"
);
},
{
closed = 1;
nodes = (
"125 509 OFFCURVE",
"20 389 OFFCURVE",
"20 248 CURVE SMOOTH",
"20 106 OFFCURVE",
"125 -12 OFFCURVE",
"284 -12 CURVE SMOOTH",
"437 -12 OFFCURVE",
"477 75 OFFCURVE",
"477 248 CURVE SMOOTH",
"477 422 OFFCURVE",
"446 509 OFFCURVE",
"284 509 CURVE SMOOTH"
);
},
{
closed = 1;
nodes = (
"401 398 OFFCURVE",
"458 347 OFFCURVE",
"458 248 CURVE SMOOTH",
"458 150 OFFCURVE",
"401 98 OFFCURVE",
"312 98 CURVE SMOOTH",
"229 98 OFFCURVE",
"181 159 OFFCURVE",
"181 248 CURVE SMOOTH",
"181 338 OFFCURVE",
"229 398 OFFCURVE",
"312 398 CURVE SMOOTH"
);
}
);
width = 638;
},
{
anchors = (
{
name = top;
position = "{308, 500}";
}
);
associatedMasterId = "F5467FAD-1970-4982-B3D3-939C01050498";
layerId = "1A3D1C02-0D7E-4115-85FD-4E4657FDD924";
name = "24 juil. 23  14:37";
paths = (
{
closed = 1;
nodes = (
"427.99 -259 OFFCURVE",
"535.99 -175 OFFCURVE",
"535.99 -1 CURVE",
"535 500 LINE",
"491 500 LINE",
"491 382 LINE",
"497.28 321.14 LINE",
"474.02 418.8 OFFCURVE",
"403.64 512 OFFCURVE",
"279 512 CURVE SMOOTH",
"127 512 OFFCURVE",
"30 400 OFFCURVE",
"30 248 CURVE SMOOTH",
"30 97 OFFCURVE",
"127 -14 OFFCURVE",
"279 -14 CURVE SMOOTH",
"403.42 -14 OFFCURVE",
"473.77 78.24 OFFCURVE",
"497.15 174.95 CURVE",
"490.99 102 LINE",
"490.99 -1 LINE SMOOTH",
"490.99 -153 OFFCURVE",
"398.99 -230 OFFCURVE",
"284.99 -230 CURVE SMOOTH",
"176.99 -230 OFFCURVE",
"128.99 -177 OFFCURVE",
"103.99 -128 CURVE",
"59.99 -138 LINE",
"90.99 -207 OFFCURVE",
"156.99 -259 OFFCURVE",
"284.99 -259 CURVE SMOOTH"
);
},
{
closed = 1;
nodes = (
"155.99 16 OFFCURVE",
"74.99 121 OFFCURVE",
"74.99 248 CURVE SMOOTH",
"74.99 377 OFFCURVE",
"157 482 OFFCURVE",
"279 482 CURVE SMOOTH",
"400 482 OFFCURVE",
"500.99 393 OFFCURVE",
"500.99 248 CURVE SMOOTH",
"500.99 105 OFFCURVE",
"399.99 16 OFFCURVE",
"278.99 16 CURVE SMOOTH"
);
}
);
width = 586;
},
{
anchors = (
{
name = top;
position = "{328, 500}";
}
);
associatedMasterId = "6DD95C5A-998B-41AB-BDFB-84A73C209871";
layerId = "EF031D6A-BAE9-4606-BB20-E753BE158385";
name = "24 juil. 23  14:37";
paths = (
{
closed = 1;
nodes = (
"485 -260 OFFCURVE",
"603 -159 OFFCURVE",
"603 8 CURVE",
"602 500 LINE",
"450 500 LINE",
"450 477 LINE",
"450 453.53 LINE",
"412.85 486.81 OFFCURVE",
"361.89 509 OFFCURVE",
"294 509 CURVE SMOOTH",
"134 509 OFFCURVE",
"30 389 OFFCURVE",
"30 248 CURVE SMOOTH",
"30 106 OFFCURVE",
"135 -12 OFFCURVE",
"294 -12 CURVE SMOOTH",
"361.89 -12 OFFCURVE",
"412.85 10.05 OFFCURVE",
"450 43.15 CURVE",
"450 26 LINE",
"450 8 LINE SMOOTH",
"450 -95 OFFCURVE",
"398 -149 OFFCURVE",
"317 -149 CURVE SMOOTH",
"241 -149 OFFCURVE",
"215 -112 OFFCURVE",
"196 -58 CURVE",
"51 -86 LINE",
"70 -170 OFFCURVE",
"151 -260 OFFCURVE",
"317 -260 CURVE SMOOTH"
);
},
{
closed = 1;
nodes = (
"231 98 OFFCURVE",
"183 159 OFFCURVE",
"183 248 CURVE SMOOTH",
"183 338 OFFCURVE",
"231 398 OFFCURVE",
"314 398 CURVE SMOOTH",
"403 398 OFFCURVE",
"460 347 OFFCURVE",
"460 248 CURVE SMOOTH",
"460 150 OFFCURVE",
"403 98 OFFCURVE",
"314 98 CURVE SMOOTH"
);
}
);
width = 653;
}
);
leftKerningGroup = a;
note = g;
rightKerningGroup = a;
unicode = 0067;
},
{
glyphname = h;
lastChange = "2023-07-27 15:47:19 +0000";
layers = (
{
anchors = (
{
name = bottom;
position = "{285, 0}";
},
{
name = top;
position = "{285, 700}";
}
);
layerId = "F5467FAD-1970-4982-B3D3-939C01050498";
paths = (
{
closed = 1;
nodes = (
"94 0 LINE",
"94 277 LINE",
"111 420 OFFCURVE",
"218 481.29 OFFCURVE",
"307 481.29 CURVE SMOOTH",
"432 481.29 OFFCURVE",
"477 398 OFFCURVE",
"477 304 CURVE SMOOTH",
"477 1 LINE",
"521 1 LINE",
"521 304 LINE SMOOTH",
"521 409 OFFCURVE",
"482 506.29 OFFCURVE",
"320 506.29 CURVE SMOOTH",
"224.49 506.29 OFFCURVE",
"124.31 435.46 OFFCURVE",
"94 342.52 CURVE",
"94 700 LINE",
"50 700 LINE",
"50 0 LINE"
);
}
);
width = 572;
},
{
anchors = (
{
name = bottom;
position = "{310, 0}";
},
{
name = top;
position = "{310, 700}";
}
);
layerId = "6DD95C5A-998B-41AB-BDFB-84A73C209871";
paths = (
{
closed = 1;
nodes = (
"197 0 LINE",
"197.02 239.38 LINE",
"197.24 354.65 OFFCURVE",
"267.31 399 OFFCURVE",
"330.03 399 CURVE SMOOTH",
"393.27 399 OFFCURVE",
"414.69 361 OFFCURVE",
"414.69 294 CURVE SMOOTH",
"414.69 0 LINE",
"569.75 0 LINE",
"569.75 294 LINE SMOOTH",
"569.75 391 OFFCURVE",
"526.9 507 OFFCURVE",
"341.24 507 CURVE SMOOTH",
"276.59 507 OFFCURVE",
"229.59 484.17 OFFCURVE",
"197 447.23 CURVE",
"197 700 LINE",
"45 700 LINE",
"45 0 LINE"
);
}
);
width = 620;
}
);
leftKerningGroup = b;
note = h;
rightKerningGroup = a;
unicode = 0068;
},
{
glyphname = hbar;
lastChange = "2023-07-27 15:47:19 +0000";
layers = (
{
components = (
{
name = h;
}
);
layerId = "F5467FAD-1970-4982-B3D3-939C01050498";
paths = (
{
closed = 1;
nodes = (
"189 631 LINE",
"9 631 LINE",
"9 589 LINE",
"189 589 LINE"
);
}
);
width = 572;
},
{
components = (
{
name = h;
}
);
layerId = "6DD95C5A-998B-41AB-BDFB-84A73C209871";
paths = (
{
closed = 1;
nodes = (
"342 648 LINE",
"9 648 LINE",
"9 553 LINE",
"342 553 LINE"
);
}
);
width = 620;
}
);
unicode = 0127;
},
{
glyphname = dotlessi;
lastChange = "2023-07-27 15:47:19 +0000";
layers = (
{
anchors = (
{
name = bottom;
position = "{102, 0}";
},
{
name = ogonek;
position = "{80, 0}";
},
{
name = top;
position = "{102, 500}";
}
);
layerId = "F5467FAD-1970-4982-B3D3-939C01050498";
paths = (
{
closed = 1;
nodes = (
"124 0 LINE",
"124 500 LINE",
"80 500 LINE",
"80 0 LINE"
);
}
);
width = 204;
},
{
anchors = (
{
name = bottom;
position = "{156, 0}";
},
{
name = ogonek;
position = "{80, 0}";
},
{
name = top;
position = "{156, 500}";
}
);
layerId = "6DD95C5A-998B-41AB-BDFB-84A73C209871";
paths = (
{
closed = 1;
nodes = (
"232 0 LINE",
"232 500 LINE",
"80 500 LINE",
"80 0 LINE"
);
}
);
width = 312;
}
);
leftKerningGroup = i;
note = dotlessi;
rightKerningGroup = i;
unicode = 0131;
},
{
glyphname = jdotless;
lastChange = "2023-07-27 15:47:19 +0000";
layers = (
{
anchors = (
{
name = top;
position = "{102, 500}";
}
);
layerId = "F5467FAD-1970-4982-B3D3-939C01050498";
paths = (
{
closed = 1;
nodes = (
"100 -260 OFFCURVE",
"124 -135 OFFCURVE",
"124 -70 CURVE SMOOTH",
"124 500 LINE",
"80 500 LINE",
"80 -70 LINE SMOOTH",
"80 -187 OFFCURVE",
"34 -232 OFFCURVE",
"-59 -232 CURVE SMOOTH",
"-111 -232 OFFCURVE",
"-145 -205 OFFCURVE",
"-171 -176 CURVE",
"-209 -203 LINE",
"-180 -232 OFFCURVE",
"-136 -260 OFFCURVE",
"-59 -260 CURVE SMOOTH"
);
}
);
width = 204;
},
{
anchors = (
{
name = top;
position = "{156, 500}";
}
);
layerId = "6DD95C5A-998B-41AB-BDFB-84A73C209871";
paths = (
{
closed = 1;
nodes = (
"186 -260 OFFCURVE",
"232 -144 OFFCURVE",
"232 -62 CURVE SMOOTH",
"232 500 LINE",
"80 500 LINE",
"80 -62 LINE SMOOTH",
"80 -105 OFFCURVE",
"60 -143 OFFCURVE",
"2 -143 CURVE SMOOTH",
"-46 -143 OFFCURVE",
"-58 -96 OFFCURVE",
"-64 -72 CURVE",
"-175 -156 LINE",
"-156 -183 OFFCURVE",
"-95 -260 OFFCURVE",
"22 -260 CURVE SMOOTH"
);
}
);
width = 312;
}
);
unicode = 0237;
},
{
glyphname = k;
lastChange = "2023-07-27 15:47:19 +0000";
layers = (
{
anchors = (
{
name = bottom;
position = "{214, 0}";
},
{
name = top;
position = "{214, 500}";
}
);
layerId = "F5467FAD-1970-4982-B3D3-939C01050498";
paths = (
{
closed = 1;
nodes = (
"94 0 LINE",
"94 204 LINE",
"83 168 LINE",
"217 307 LINE",
"191 305 LINE",
"395 0 LINE",
"447 0 LINE",
"223 338 LINE",
"217 307 LINE",
"403 500 LINE",
"350 500 LINE",
"81 221 LINE",
"94 221 LINE",
"94 700 LINE",
"50 700 LINE",
"50 0 LINE"
);
}
);
width = 467;
},
{
anchors = (
{
name = bottom;
position = "{298, 0}";
},
{
name = top;
position = "{298, 500}";
}
);
layerId = "6DD95C5A-998B-41AB-BDFB-84A73C209871";
paths = (
{
closed = 1;
nodes = (
"202 0 LINE",
"202 150 LINE",
"175 96 LINE",
"325 254 LINE",
"219 260 LINE",
"391 0 LINE",
"561 0 LINE",
"321 365 LINE",
"325 254 LINE",
"554 500 LINE",
"384 500 LINE",
"186 292 LINE",
"202 292 LINE",
"202 700 LINE",
"50 700 LINE",
"50 0 LINE"
);
}
);
width = 581;
}
);
leftKerningGroup = b;
note = k;
rightKerningGroup = k;
unicode = 006B;
},
{
glyphname = kgreenlandic;
lastChange = "2023-07-27 15:47:19 +0000";
layers = (
{
layerId = "F5467FAD-1970-4982-B3D3-939C01050498";
paths = (
{
closed = 1;
nodes = (
"94 0 LINE",
"94 204 LINE",
"83 168 LINE",
"217 307 LINE",
"191 305 LINE",
"395 0 LINE",
"447 0 LINE",
"223 338 LINE",
"217 307 LINE",
"403 500 LINE",
"350 500 LINE",
"81 221 LINE",
"94 221 LINE",
"94 500 LINE",
"50 500 LINE",
"50 0 LINE"
);
}
);
width = 467;
},
{
layerId = "6DD95C5A-998B-41AB-BDFB-84A73C209871";
paths = (
{
closed = 1;
nodes = (
"202 0 LINE",
"202 150 LINE",
"175 96 LINE",
"325 254 LINE",
"219 260 LINE",
"391 0 LINE",
"561 0 LINE",
"321 365 LINE",
"325 254 LINE",
"554 500 LINE",
"384 500 LINE",
"186 292 LINE",
"202 292 LINE",
"202 500 LINE",
"50 500 LINE",
"50 0 LINE"
);
}
);
width = 581;
}
);
leftMetricsKey = k;
rightMetricsKey = k;
unicode = 0138;
},
{
glyphname = l;
lastChange = "2023-07-27 15:47:19 +0000";
layers = (
{
anchors = (
{
name = bottom;
position = "{102, 0}";
},
{
name = top;
position = "{102, 700}";
}
);
layerId = "F5467FAD-1970-4982-B3D3-939C01050498";
paths = (
{
closed = 1;
nodes = (
"124 0 LINE",
"124 700 LINE",
"80 700 LINE",
"80 0 LINE"
);
}
);
width = 204;
},
{
anchors = (
{
name = bottom;
position = "{156, 0}";
},
{
name = top;
position = "{156, 700}";
}
);
layerId = "6DD95C5A-998B-41AB-BDFB-84A73C209871";
paths = (
{
closed = 1;
nodes = (
"232 0 LINE",
"232 700 LINE",
"80 700 LINE",
"80 0 LINE"
);
}
);
width = 312;
}
);
leftKerningGroup = b;
note = l;
rightKerningGroup = l;
unicode = 006C;
},
{
glyphname = lslash;
lastChange = "2023-07-27 15:47:19 +0000";
layers = (
{
layerId = "F5467FAD-1970-4982-B3D3-939C01050498";
paths = (
{
closed = 1;
nodes = (
"207 0 LINE",
"207 381.2 LINE",
"388 433 LINE",
"388 470 LINE",
"207 418.2 LINE",
"207 700 LINE",
"163 700 LINE",
"163 405.61 LINE",
"84 383 LINE",
"84 346 LINE",
"163 368.61 LINE",
"163 0 LINE"
);
}
);
width = 472;
},
{
layerId = "6DD95C5A-998B-41AB-BDFB-84A73C209871";
paths = (
{
closed = 1;
nodes = (
"333 0 LINE",
"333 364.11 LINE",
"420 389 LINE",
"419 512 LINE",
"333 487.39 LINE",
"333 700 LINE",
"181 700 LINE",
"181 443.9 LINE",
"52 407 LINE",
"53 284 LINE",
"181 320.62 LINE",
"181 0 LINE"
);
}
);
width = 472;
}
);
note = lslash;
unicode = 0142;
},
{
glyphname = m;
lastChange = "2023-07-27 15:47:19 +0000";
layers = (
{
anchors = (
{
name = bottom;
position = "{488, 0}";
},
{
name = top;
position = "{488, 700}";
}
);
background = {
paths = (
{
closed = 1;
nodes = (
"94 0 LINE",
"94 285 LINE",
"114 422 OFFCURVE",
"217 481 OFFCURVE",
"302 481 CURVE SMOOTH",
"427 481 OFFCURVE",
"470 397 OFFCURVE",
"470 304 CURVE SMOOTH",
"470 0 LINE",
"514 0 LINE",
"514 285 LINE",
"534 422 OFFCURVE",
"639 481 OFFCURVE",
"726 481 CURVE SMOOTH",
"851 481 OFFCURVE",
"895 398 OFFCURVE",
"895 304 CURVE SMOOTH",
"895 0 LINE",
"939 0 LINE",
"939 304 LINE SMOOTH",
"939 409 OFFCURVE",
"900 510 OFFCURVE",
"738 510 CURVE SMOOTH",
"631 510 OFFCURVE",
"538 433 OFFCURVE",
"513 335 CURVE",
"505 428 OFFCURVE",
"458 510 OFFCURVE",
"315 510 CURVE SMOOTH",
"220 510 OFFCURVE",
"128 445 OFFCURVE",
"94 358 CURVE",
"94 500 LINE",
"50 500 LINE",
"50 0 LINE"
);
}
);
};
layerId = "F5467FAD-1970-4982-B3D3-939C01050498";
paths = (
{
closed = 1;
nodes = (
"224 507 OFFCURVE",
"124 456 OFFCURVE",
"94 343 CURVE",
"94 500 LINE",
"50 500 LINE",
"50 1 LINE",
"94 1 LINE",
"94 233 LINE SMOOTH",
"94 422 OFFCURVE",
"223 472 OFFCURVE",
"312 472 CURVE SMOOTH",
"427 472 OFFCURVE",
"467 398 OFFCURVE",
"467 304 CURVE SMOOTH",
"467 1 LINE",
"511 1 LINE",
"511 304 LINE SMOOTH",
"511 409 OFFCURVE",
"482 507 OFFCURVE",
"320 507 CURVE SMOOTH"
);
},
{
closed = 1;
nodes = (
"642 507 OFFCURVE",
"509 456 OFFCURVE",
"495 282 CURVE",
"511 233 LINE",
"511 422 OFFCURVE",
"641 472 OFFCURVE",
"730 472 CURVE SMOOTH",
"855 472 OFFCURVE",
"895 398 OFFCURVE",
"895 304 CURVE SMOOTH",
"895 1 LINE",
"939 1 LINE",
"939 304 LINE SMOOTH",
"939 409 OFFCURVE",
"900 507 OFFCURVE",
"738 507 CURVE SMOOTH"
);
}
);
width = 976;
},
{
anchors = (
{
name = bottom;
position = "{480, 0}";
},
{
name = top;
position = "{480, 700}";
}
);
background = {
paths = (
{
closed = 1;
nodes = (
"197 0 LINE",
"197 239 LINE",
"197 355 OFFCURVE",
"267 399 OFFCURVE",
"330 399 CURVE SMOOTH",
"393 399 OFFCURVE",
"415 361 OFFCURVE",
"415 294 CURVE SMOOTH",
"415 0 LINE",
"570 0 LINE",
"570 286 LINE",
"586 367 OFFCURVE",
"645 401 OFFCURVE",
"700 401 CURVE SMOOTH",
"764 401 OFFCURVE",
"786 361 OFFCURVE",
"786 294 CURVE SMOOTH",
"786 0 LINE",
"944 0 LINE",
"944 294 LINE SMOOTH",
"944 391 OFFCURVE",
"900 509 OFFCURVE",
"711 509 CURVE SMOOTH",
"631 509 OFFCURVE",
"574 472 OFFCURVE",
"539 418 CURVE",
"507 469 OFFCURVE",
"448 507 OFFCURVE",
"341 507 CURVE SMOOTH",
"277 507 OFFCURVE",
"230 484 OFFCURVE",
"197 447 CURVE",
"197 500 LINE",
"45 500 LINE",
"45 0 LINE"
);
}
);
};
layerId = "6DD95C5A-998B-41AB-BDFB-84A73C209871";
paths = (
{
closed = 1;
nodes = (
"277 507 OFFCURVE",
"213 474 OFFCURVE",
"197 422 CURVE",
"197 500 LINE",
"45 500 LINE",
"45 0 LINE",
"197 0 LINE",
"197 269 LINE SMOOTH",
"197 360 OFFCURVE",
"260 399 OFFCURVE",
"323 399 CURVE SMOOTH",
"376 399 OFFCURVE",
"405 361 OFFCURVE",
"405 294 CURVE SMOOTH",
"405 0 LINE",
"560 0 LINE",
"560 294 LINE SMOOTH",
"560 391 OFFCURVE",
"517 507 OFFCURVE",
"341 507 CURVE SMOOTH"
);
},
{
closed = 1;
nodes = (
"566 507 OFFCURVE",
"518 395 OFFCURVE",
"503 318 CURVE",
"560 269 LINE",
"560 360 OFFCURVE",
"623 399 OFFCURVE",
"686 399 CURVE SMOOTH",
"749 399 OFFCURVE",
"778 361 OFFCURVE",
"778 294 CURVE SMOOTH",
"778 0 LINE",
"933 0 LINE",
"933 294 LINE SMOOTH",
"933 391 OFFCURVE",
"890 507 OFFCURVE",
"704 507 CURVE SMOOTH"
);
}
);
width = 994;
},
{
associatedMasterId = "F5467FAD-1970-4982-B3D3-939C01050498";
layerId = "64CD0211-15FE-4936-BA61-E1070913194B";
name = "23 juil. 23  22:09";
paths = (
{
closed = 1;
nodes = (
"94 0 LINE",
"94 284.62 LINE",
"113.76 422.17 OFFCURVE",
"216.56 481 OFFCURVE",
"302 481 CURVE SMOOTH",
"427 481 OFFCURVE",
"470 397 OFFCURVE",
"470 304 CURVE SMOOTH",
"470 0 LINE",
"514 0 LINE",
"514 284.61 LINE",
"533.83 422.17 OFFCURVE",
"638.6 481 OFFCURVE",
"726 481 CURVE SMOOTH",
"851 481 OFFCURVE",
"895 398 OFFCURVE",
"895 304 CURVE SMOOTH",
"895 0 LINE",
"939 0 LINE",
"939 304 LINE SMOOTH",
"939 409 OFFCURVE",
"900 510 OFFCURVE",
"738 510 CURVE SMOOTH",
"630.62 510 OFFCURVE",
"538.02 432.58 OFFCURVE",
"512.74 335.02 CURVE",
"504.89 428.04 OFFCURVE",
"458.23 510 OFFCURVE",
"315 510 CURVE SMOOTH",
"219.77 510 OFFCURVE",
"127.55 444.67 OFFCURVE",
"94 357.63 CURVE",
"94 500 LINE",
"50 500 LINE",
"50 0 LINE"
);
}
);
width = 976;
},
{
associatedMasterId = "6DD95C5A-998B-41AB-BDFB-84A73C209871";
layerId = "1D003824-EE15-49CD-8401-78CCFECE2030";
name = "23 juil. 23  22:09";
paths = (
{
closed = 1;
nodes = (
"197 0 LINE",
"197 239.38 LINE",
"197.24 354.65 OFFCURVE",
"267.31 399 OFFCURVE",
"330.03 399 CURVE SMOOTH",
"393.27 399 OFFCURVE",
"414.69 361 OFFCURVE",
"414.69 294 CURVE SMOOTH",
"414.69 0 LINE",
"569.75 0 LINE",
"569.75 286.49 LINE",
"586.25 367.46 OFFCURVE",
"645.11 401 OFFCURVE",
"699.53 401 CURVE SMOOTH",
"764.05 401 OFFCURVE",
"785.9 361 OFFCURVE",
"785.9 294 CURVE SMOOTH",
"785.9 0 LINE",
"944.07 0 LINE",
"944.07 294 LINE SMOOTH",
"944.07 391 OFFCURVE",
"900.37 509 OFFCURVE",
"710.98 509 CURVE SMOOTH",
"630.66 509 OFFCURVE",
"574.25 472.41 OFFCURVE",
"538.72 417.83 CURVE",
"507.36 468.76 OFFCURVE",
"447.84 507 OFFCURVE",
"341.24 507 CURVE SMOOTH",
"276.59 507 OFFCURVE",
"229.59 484.17 OFFCURVE",
"197 447.23 CURVE",
"197 500 LINE",
"45 500 LINE",
"45 0 LINE"
);
}
);
width = 994;
}
);
leftKerningGroup = m;
note = m;
rightKerningGroup = a;
unicode = 006D;
},
{
glyphname = n;
lastChange = "2023-07-27 15:47:19 +0000";
layers = (
{
anchors = (
{
name = bottom;
position = "{290, 0}";
},
{
name = top;
position = "{280, 500}";
}
);
layerId = "F5467FAD-1970-4982-B3D3-939C01050498";
paths = (
{
closed = 1;
nodes = (
"224 507 OFFCURVE",
"124 456 OFFCURVE",
"94 343 CURVE",
"94 500 LINE",
"50 500 LINE",
"50 0 LINE",
"94 0 LINE",
"94 233 LINE SMOOTH",
"94 422 OFFCURVE",
"223 472 OFFCURVE",
"312 472 CURVE SMOOTH",
"437 472 OFFCURVE",
"477 398 OFFCURVE",
"477 304 CURVE SMOOTH",
"477 0 LINE",
"521 0 LINE",
"521 304 LINE SMOOTH",
"521 409 OFFCURVE",
"482 507 OFFCURVE",
"320 507 CURVE SMOOTH"
);
}
);
width = 571;
},
{
anchors = (
{
name = bottom;
position = "{300, 0}";
},
{
name = top;
position = "{290, 500}";
}
);
layerId = "6DD95C5A-998B-41AB-BDFB-84A73C209871";
paths = (
{
closed = 1;
nodes = (
"277 507 OFFCURVE",
"213 474 OFFCURVE",
"197 422 CURVE",
"197 500 LINE",
"45 500 LINE",
"45 0 LINE",
"197 0 LINE",
"197 269 LINE SMOOTH",
"197 360 OFFCURVE",
"260 399 OFFCURVE",
"323 399 CURVE SMOOTH",
"386 399 OFFCURVE",
"415 361 OFFCURVE",
"415 294 CURVE SMOOTH",
"414.69 0 LINE",
"569.74 0 LINE",
"569.74 294 LINE SMOOTH",
"569.74 391 OFFCURVE",
"527 507 OFFCURVE",
"341 507 CURVE SMOOTH"
);
}
);
width = 600;
},
{
associatedMasterId = "F5467FAD-1970-4982-B3D3-939C01050498";
layerId = "3C353789-449F-4092-BEE0-4CA981632AB3";
name = "23 juil. 23  22:05";
paths = (
{
closed = 1;
nodes = (
"224 507 OFFCURVE",
"124 436 OFFCURVE",
"94 343 CURVE",
"94 500 LINE",
"50 500 LINE",
"50 1 LINE",
"94 1 LINE",
"94 277 LINE",
"111 420 OFFCURVE",
"218 482 OFFCURVE",
"307 482 CURVE SMOOTH",
"432 482 OFFCURVE",
"477 398 OFFCURVE",
"477 304 CURVE SMOOTH",
"477 1 LINE",
"521 1 LINE",
"521 304 LINE SMOOTH",
"521 409 OFFCURVE",
"482 507 OFFCURVE",
"320 507 CURVE SMOOTH"
);
}
);
width = 571;
},
{
associatedMasterId = "6DD95C5A-998B-41AB-BDFB-84A73C209871";
layerId = "7BB64EC5-02E9-450E-915E-662FFD7665C3";
name = "23 juil. 23  22:05";
paths = (
{
closed = 1;
nodes = (
"276.59 507 OFFCURVE",
"229.58 484.17 OFFCURVE",
"197 447.23 CURVE",
"197 500 LINE",
"45 500 LINE",
"45 0 LINE",
"197 0 LINE",
"197 239.38 LINE",
"197.24 354.65 OFFCURVE",
"267.31 399 OFFCURVE",
"330.02 399 CURVE SMOOTH",
"393.27 399 OFFCURVE",
"414.69 361 OFFCURVE",
"414.69 294 CURVE SMOOTH",
"414.69 0 LINE",
"569.74 0 LINE",
"569.74 294 LINE SMOOTH",
"569.74 391 OFFCURVE",
"526.9 507 OFFCURVE",
"341.24 507 CURVE SMOOTH"
);
}
);
width = 600;
}
);
leftKerningGroup = m;
note = n;
rightKerningGroup = a;
unicode = 006E;
},
{
glyphname = nhookleft;
lastChange = "2023-07-27 15:47:19 +0000";
layers = (
{
components = (
{
name = n;
}
);
layerId = "F5467FAD-1970-4982-B3D3-939C01050498";
paths = (
{
closed = 1;
nodes = (
"50 0 LINE",
"50 -125 LINE SMOOTH",
"50 -159 OFFCURVE",
"36 -166 OFFCURVE",
"20 -166 CURVE SMOOTH",
"-2 -166 OFFCURVE",
"-30 -157 OFFCURVE",
"-56 -135 CURVE",
"-60 -169 LINE",
"-45 -185 OFFCURVE",
"-13 -203 OFFCURVE",
"20 -203 CURVE SMOOTH",
"79 -203 OFFCURVE",
"94 -159 OFFCURVE",
"94 -125 CURVE SMOOTH",
"94 0 LINE"
);
}
);
width = 571;
},
{
components = (
{
name = n;
}
);
layerId = "6DD95C5A-998B-41AB-BDFB-84A73C209871";
paths = (
{
closed = 1;
nodes = (
"45 0 LINE",
"45 -65 LINE SMOOTH",
"45 -99 OFFCURVE",
"31 -106 OFFCURVE",
"15 -106 CURVE SMOOTH",
"-7 -106 OFFCURVE",
"-35 -97 OFFCURVE",
"-61 -75 CURVE",
"-61 -169 LINE",
"-36 -185 OFFCURVE",
"-1 -203 OFFCURVE",
"53 -203 CURVE SMOOTH",
"126 -203 OFFCURVE",
"197 -159 OFFCURVE",
"197 -65 CURVE SMOOTH",
"197 0 LINE"
);
}
);
width = 600;
}
);
unicode = 0272;
},
{
glyphname = eng;
lastChange = "2023-07-27 15:47:19 +0000";
layers = (
{
components = (
{
name = n;
}
);
layerId = "F5467FAD-1970-4982-B3D3-939C01050498";
paths = (
{
closed = 1;
nodes = (
"477 0 LINE",
"477 -125 LINE SMOOTH",
"477 -152 OFFCURVE",
"466 -166 OFFCURVE",
"431 -166 CURVE SMOOTH",
"409 -166 OFFCURVE",
"388 -157 OFFCURVE",
"362 -135 CURVE",
"358 -169 LINE",
"377 -185 OFFCURVE",
"405 -203 OFFCURVE",
"438 -203 CURVE SMOOTH",
"497 -203 OFFCURVE",
"521 -169 OFFCURVE",
"521 -125 CURVE SMOOTH",
"521 0 LINE"
);
}
);
width = 571;
},
{
components = (
{
name = n;
}
);
layerId = "6DD95C5A-998B-41AB-BDFB-84A73C209871";
paths = (
{
closed = 1;
nodes = (
"415 0 LINE",
"415 -65 LINE SMOOTH",
"415 -99 OFFCURVE",
"399 -106 OFFCURVE",
"383 -106 CURVE SMOOTH",
"361 -106 OFFCURVE",
"333 -97 OFFCURVE",
"307 -75 CURVE",
"307 -169 LINE",
"332 -185 OFFCURVE",
"367 -203 OFFCURVE",
"421 -203 CURVE SMOOTH",
"494 -203 OFFCURVE",
"570 -159 OFFCURVE",
"570 -65 CURVE SMOOTH",
"570 0 LINE"
);
}
);
width = 600;
}
);
unicode = 014B;
},
{
glyphname = o;
lastChange = "2023-07-27 15:47:19 +0000";
layers = (
{
anchors = (
{
name = bottom;
position = "{289, 0}";
},
{
name = ogonek;
position = "{319, 0}";
},
{
name = top;
position = "{289, 500}";
}
);
layerId = "F5467FAD-1970-4982-B3D3-939C01050498";
paths = (
{
closed = 1;
nodes = (
"443 -14 OFFCURVE",
"547 98 OFFCURVE",
"547 247 CURVE SMOOTH",
"547 397 OFFCURVE",
"442 512 OFFCURVE",
"289 512 CURVE SMOOTH",
"135 512 OFFCURVE",
"30 397 OFFCURVE",
"30 247 CURVE SMOOTH",
"30 98 OFFCURVE",
"134 -14 OFFCURVE",
"289 -14 CURVE SMOOTH"
);
},
{
closed = 1;
nodes = (
"160 14 OFFCURVE",
"80 113 OFFCURVE",
"80 247 CURVE SMOOTH",
"80 382 OFFCURVE",
"160 484 OFFCURVE",
"288 484 CURVE SMOOTH",
"416 484 OFFCURVE",
"496 382 OFFCURVE",
"496 247 CURVE SMOOTH",
"496 113 OFFCURVE",
"416 14 OFFCURVE",
"288 14 CURVE SMOOTH"
);
}
);
width = 577;
},
{
anchors = (
{
name = bottom;
position = "{302, 0}";
},
{
name = ogonek;
position = "{319, 0}";
},
{
name = top;
position = "{302, 500}";
}
);
layerId = "6DD95C5A-998B-41AB-BDFB-84A73C209871";
paths = (
{
closed = 1;
nodes = (
"462.72 -12 OFFCURVE",
"571.93 108 OFFCURVE",
"571.93 247 CURVE SMOOTH",
"571.93 387 OFFCURVE",
"462.72 510 OFFCURVE",
"302 510 CURVE SMOOTH",
"141.27 510 OFFCURVE",
"32.06 387 OFFCURVE",
"32.06 247 CURVE SMOOTH",
"32.06 108 OFFCURVE",
"141.27 -12 OFFCURVE",
"302 -12 CURVE SMOOTH"
);
},
{
closed = 1;
nodes = (
"230.3 93 OFFCURVE",
"174.53 143 OFFCURVE",
"174.53 247 CURVE SMOOTH",
"174.53 352 OFFCURVE",
"230.3 402 OFFCURVE",
"302 402 CURVE SMOOTH",
"373.7 402 OFFCURVE",
"429.46 352 OFFCURVE",
"429.46 247 CURVE SMOOTH",
"429.46 143 OFFCURVE",
"373.7 93 OFFCURVE",
"302 93 CURVE SMOOTH"
);
}
);
width = 584;
}
);
leftKerningGroup = a;
note = o;
rightKerningGroup = o;
unicode = 006F;
},
{
glyphname = oslash;
lastChange = "2023-07-27 15:47:19 +0000";
layers = (
{
anchors = (
{
name = top;
position = "{164, 500}";
}
);
components = (
{
name = o;
}
);
layerId = "F5467FAD-1970-4982-B3D3-939C01050498";
paths = (
{
closed = 1;
nodes = (
"144 -164 LINE",
"179 -164 LINE",
"433 695 LINE",
"398 695 LINE"
);
}
);
width = 577;
},
{
anchors = (
{
name = top;
position = "{109, 500}";
}
);
components = (
{
name = o;
}
);
layerId = "6DD95C5A-998B-41AB-BDFB-84A73C209871";
paths = (
{
closed = 1;
nodes = (
"118 -154 LINE",
"238 -154 LINE",
"487 685 LINE",
"367 685 LINE"
);
}
);
width = 584;
}
);
note = oslash;
unicode = 00F8;
},
{
glyphname = oe;
lastChange = "2023-07-27 15:47:19 +0000";
layers = (
{
background = {
paths = (
{
closed = 1;
nodes = (
"396.92 -14 OFFCURVE",
"480.47 41.1 OFFCURVE",
"520.7 125.43 CURVE",
"565.17 30.96 OFFCURVE",
"659.88 -14 OFFCURVE",
"764 -14 CURVE SMOOTH",
"867 -14 OFFCURVE",
"941 19 OFFCURVE",
"989 78 CURVE",
"948 97 LINE",
"914 48 OFFCURVE",
"866 4 OFFCURVE",
"764 4 CURVE SMOOTH",
"652.99 4 OFFCURVE",
"550.66 87.96 OFFCURVE",
"547.09 247.34 CURVE",
"547.09 248.56 OFFCURVE",
"547.08 249.78 OFFCURVE",
"547.06 251 CURVE",
"987.99 251 LINE",
"989.83 265.39 OFFCURVE",
"990.73 279.35 OFFCURVE",
"990.73 292.83 CURVE SMOOTH",
"990.73 426.37 OFFCURVE",
"902.32 513 OFFCURVE",
"756.99 513 CURVE SMOOTH",
"652.89 513 OFFCURVE",
"560.98 463.71 OFFCURVE",
"518.68 373.63 CURVE",
"477.55 457.07 OFFCURVE",
"394.59 512 OFFCURVE",
"288.54 512 CURVE SMOOTH",
"135.1 512 OFFCURVE",
"30 397 OFFCURVE",
"30 247 CURVE SMOOTH",
"30 98 OFFCURVE",
"134.05 -14 OFFCURVE",
"288.55 -14 CURVE SMOOTH"
);
},
{
closed = 1;
nodes = (
"160.32 -2 OFFCURVE",
"80.6 113 OFFCURVE",
"80.6 247 CURVE SMOOTH",
"80.6 382 OFFCURVE",
"160.32 498 OFFCURVE",
"288.55 498 CURVE SMOOTH",
"406.19 498 OFFCURVE",
"483 400.36 OFFCURVE",
"494.88 279.99 CURVE",
"494.3 272.17 OFFCURVE",
"494 264.17 OFFCURVE",
"494 256 CURVE SMOOTH",
"494 244.16 OFFCURVE",
"494.52 232.72 OFFCURVE",
"495.53 221.69 CURVE",
"486.16 98.84 OFFCURVE",
"408.62 -2.01 OFFCURVE",
"288.54 -2.01 CURVE SMOOTH"
);
},
{
closed = 1;
nodes = (
"553.68 399.63 OFFCURVE",
"632.36 497.99 OFFCURVE",
"757 497.99 CURVE SMOOTH",
"883.06 497.99 OFFCURVE",
"942.87 411.92 OFFCURVE",
"942.87 327.48 CURVE SMOOTH",
"942.87 308.77 OFFCURVE",
"939.93 290.13 OFFCURVE",
"934.12 272.53 CURVE",
"547.4 272.53 LINE"
);
}
);
};
components = (
{
name = o;
},
{
alignment = -1;
name = e;
transform = "{1, 0, 0, 1, 471, 0}";
}
);
layerId = "F5467FAD-1970-4982-B3D3-939C01050498";
width = 1038;
},
{
background = {
paths = (
{
closed = 1;
nodes = (
"381.12 -12.01 OFFCURVE",
"447.75 17.07 OFFCURVE",
"495.02 63.18 CURVE",
"543.49 13.24 OFFCURVE",
"614.97 -11.94 OFFCURVE",
"700 -11.94 CURVE SMOOTH",
"811.9 -11.94 OFFCURVE",
"915.13 35.48 OFFCURVE",
"950.32 127.58 CURVE",
"827 186 LINE",
"809 132 OFFCURVE",
"772.95 95 OFFCURVE",
"710 95 CURVE SMOOTH",
"621.28 95 OFFCURVE",
"583.49 142.03 OFFCURVE",
"574.47 215.45 CURVE",
"935 215.45 LINE",
"941.07 241.94 OFFCURVE",
"944 267.07 OFFCURVE",
"944 290.66 CURVE SMOOTH",
"944 426.4 OFFCURVE",
"846.76 510.99 OFFCURVE",
"690 510.99 CURVE SMOOTH",
"608.39 510.99 OFFCURVE",
"539.82 483.83 OFFCURVE",
"493.17 435.04 CURVE",
"446.02 480.95 OFFCURVE",
"380.09 509.99 OFFCURVE",
"302 509.99 CURVE SMOOTH",
"141.27 509.99 OFFCURVE",
"32.06 386.99 OFFCURVE",
"32.06 246.99 CURVE SMOOTH",
"32.06 107.99 OFFCURVE",
"141.27 -12.01 OFFCURVE",
"302 -12.01 CURVE SMOOTH"
);
},
{
closed = 1;
nodes = (
"230.3 92.99 OFFCURVE",
"174.53 142.99 OFFCURVE",
"174.53 246.99 CURVE SMOOTH",
"174.53 351.99 OFFCURVE",
"230.3 401.99 OFFCURVE",
"302 401.99 CURVE SMOOTH",
"366.36 401.99 OFFCURVE",
"417.88 361.71 OFFCURVE",
"427.75 277.52 CURVE",
"427.25 270.16 OFFCURVE",
"427 262.65 OFFCURVE",
"427 255 CURVE SMOOTH",
"427 243.75 OFFCURVE",
"427.45 232.86 OFFCURVE",
"428.34 222.31 CURVE",
"420.14 135.07 OFFCURVE",
"367.77 93 OFFCURVE",
"302 93 CURVE SMOOTH"
);
},
{
closed = 1;
nodes = (
"596.14 374.93 OFFCURVE",
"646.8 405.99 OFFCURVE",
"694 405.99 CURVE SMOOTH",
"754.8 405.99 OFFCURVE",
"791.56 375.6 OFFCURVE",
"791.56 326.06 CURVE SMOOTH",
"791.56 320.19 OFFCURVE",
"791.05 314.06 OFFCURVE",
"790 307.67 CURVE",
"578.63 307.67 LINE"
);
}
);
};
components = (
{
name = o;
},
{
alignment = -1;
name = e;
transform = "{1, 0, 0, 1, 401, 0}";
}
);
layerId = "6DD95C5A-998B-41AB-BDFB-84A73C209871";
width = 994;
}
);
leftKerningGroup = a;
leftMetricsKey = o;
note = oe;
rightKerningGroup = ae;
rightMetricsKey = e;
unicode = 0153;
},
{
glyphname = p;
lastChange = "2023-07-27 15:47:19 +0000";
layers = (
{
layerId = "F5467FAD-1970-4982-B3D3-939C01050498";
paths = (
{
closed = 1;
nodes = (
"50 -200 LINE",
"95 -200 LINE",
"95 102 LINE",
"79 248 LINE",
"95 382 LINE",
"95 500 LINE",
"51 500 LINE"
);
},
{
closed = 1;
nodes = (
"144 512 OFFCURVE",
"78 365 OFFCURVE",
"78 248 CURVE SMOOTH",
"78 130 OFFCURVE",
"149 -13 OFFCURVE",
"304 -13 CURVE SMOOTH",
"456 -13 OFFCURVE",
"553 97 OFFCURVE",
"553 248 CURVE SMOOTH",
"553 400 OFFCURVE",
"456 512 OFFCURVE",
"304 512 CURVE SMOOTH"
);
},
{
closed = 1;
nodes = (
"426 482 OFFCURVE",
"508 377 OFFCURVE",
"508 248 CURVE SMOOTH",
"508 121 OFFCURVE",
"428 16 OFFCURVE",
"305 16 CURVE SMOOTH",
"184 16 OFFCURVE",
"83 106 OFFCURVE",
"83 248 CURVE SMOOTH",
"83 393 OFFCURVE",
"183 482 OFFCURVE",
"304 482 CURVE SMOOTH"
);
}
);
width = 583;
},
{
layerId = "6DD95C5A-998B-41AB-BDFB-84A73C209871";
paths = (
{
closed = 1;
nodes = (
"35 -200 LINE",
"188 -200 LINE",
"188 10 LINE",
"168 248 LINE",
"188 474 LINE",
"188 500 LINE",
"36 500 LINE"
);
},
{
closed = 1;
nodes = (
"192 509 OFFCURVE",
"161 422 OFFCURVE",
"161 248 CURVE SMOOTH",
"161 75 OFFCURVE",
"201 -12 OFFCURVE",
"354 -12 CURVE SMOOTH",
"513 -12 OFFCURVE",
"618 106 OFFCURVE",
"618 248 CURVE SMOOTH",
"618 389 OFFCURVE",
"513 509 OFFCURVE",
"354 509 CURVE SMOOTH"
);
},
{
closed = 1;
nodes = (
"409 398 OFFCURVE",
"457 338 OFFCURVE",
"457 248 CURVE SMOOTH",
"457 159 OFFCURVE",
"409 98 OFFCURVE",
"326 98 CURVE SMOOTH",
"237 98 OFFCURVE",
"180 150 OFFCURVE",
"180 248 CURVE SMOOTH",
"180 347 OFFCURVE",
"237 398 OFFCURVE",
"326 398 CURVE SMOOTH"
);
}
);
width = 638;
},
{
associatedMasterId = "6DD95C5A-998B-41AB-BDFB-84A73C209871";
layerId = "98FC4237-0C9A-470F-B714-1BBC7CCDE98A";
name = "24 juil. 23  14:33";
paths = (
{
closed = 1;
nodes = (
"188 -200 LINE",
"188 13 LINE",
"188 47.4 LINE",
"218.67 4.73 OFFCURVE",
"277.55 -14.99 OFFCURVE",
"344 -14.99 CURVE SMOOTH",
"503 -14.99 OFFCURVE",
"608 103.01 OFFCURVE",
"608 245.01 CURVE SMOOTH",
"608 386.01 OFFCURVE",
"504 506.01 OFFCURVE",
"344 506.01 CURVE SMOOTH",
"276.81 506 OFFCURVE",
"207.98 477.44 OFFCURVE",
"188 434.14 CURVE",
"188 464 LINE",
"188 500 LINE",
"36 500 LINE",
"35 -200 LINE"
);
},
{
closed = 1;
nodes = (
"235 95.01 OFFCURVE",
"178 147.01 OFFCURVE",
"178 245.01 CURVE SMOOTH",
"178 344.01 OFFCURVE",
"235 395.01 OFFCURVE",
"324 395.01 CURVE SMOOTH",
"407 395.01 OFFCURVE",
"455 335.01 OFFCURVE",
"455 245.01 CURVE SMOOTH",
"455 156.01 OFFCURVE",
"407 95.01 OFFCURVE",
"324 95.01 CURVE SMOOTH"
);
}
);
width = 638;
},
{
associatedMasterId = "F5467FAD-1970-4982-B3D3-939C01050498";
layerId = "DACE8C0B-C6A5-45B8-B8AC-06B9D7DDFF7F";
name = "24 juil. 23  14:33";
paths = (
{
closed = 1;
nodes = (
"95 -200 LINE",
"95 102 LINE",
"88.2 182.56 LINE",
"109.79 83.85 OFFCURVE",
"180.51 -12.99 OFFCURVE",
"308 -12.99 CURVE SMOOTH",
"460 -12.99 OFFCURVE",
"557 97.01 OFFCURVE",
"557 248.01 CURVE SMOOTH",
"557 400.01 OFFCURVE",
"460 512.01 OFFCURVE",
"308 512.01 CURVE SMOOTH",
"179.85 512 OFFCURVE",
"109.06 413.48 OFFCURVE",
"87.87 312.89 CURVE",
"95 382 LINE",
"95 500 LINE",
"51 500 LINE",
"50 -200 LINE"
);
},
{
closed = 1;
nodes = (
"187 16.01 OFFCURVE",
"86 106.01 OFFCURVE",
"86 248.01 CURVE SMOOTH",
"86 393.01 OFFCURVE",
"187 482.01 OFFCURVE",
"308 482.01 CURVE SMOOTH",
"430 482.01 OFFCURVE",
"512 377.01 OFFCURVE",
"512 248.01 CURVE SMOOTH",
"512 121.01 OFFCURVE",
"431 16.01 OFFCURVE",
"308 16.01 CURVE SMOOTH"
);
}
);
width = 587;
}
);
leftKerningGroup = p;
note = p;
rightKerningGroup = p;
unicode = 0070;
},
{
glyphname = thorn;
lastChange = "2023-07-27 15:47:19 +0000";
layers = (
{
layerId = "F5467FAD-1970-4982-B3D3-939C01050498";
paths = (
{
closed = 1;
nodes = (
"81 -238 LINE",
"81 96 LINE",
"74.2 176.56 LINE",
"95.79 77.85 OFFCURVE",
"166.51 -18.99 OFFCURVE",
"294 -18.99 CURVE SMOOTH",
"446 -18.99 OFFCURVE",
"543 91.01 OFFCURVE",
"543 242.01 CURVE SMOOTH",
"543 394.01 OFFCURVE",
"446 506.01 OFFCURVE",
"294 506.01 CURVE SMOOTH",
"165.85 506 OFFCURVE",
"95.06 407.48 OFFCURVE",
"73.87 306.89 CURVE",
"81 376 LINE",
"81 808 LINE",
"37 808 LINE",
"36 -238 LINE"
);
},
{
closed = 1;
nodes = (
"173 10.01 OFFCURVE",
"72 100.01 OFFCURVE",
"72 242.01 CURVE SMOOTH",
"72 387.01 OFFCURVE",
"173 476.01 OFFCURVE",
"294 476.01 CURVE SMOOTH",
"416 476.01 OFFCURVE",
"498 371.01 OFFCURVE",
"498 242.01 CURVE SMOOTH",
"498 115.01 OFFCURVE",
"417 10.01 OFFCURVE",
"294 10.01 CURVE SMOOTH"
);
}
);
width = 563;
},
{
layerId = "6DD95C5A-998B-41AB-BDFB-84A73C209871";
paths = (
{
closed = 1;
nodes = (
"178 -191 LINE",
"178 -4 LINE",
"178 19.04 LINE",
"208.06 0.97 OFFCURVE",
"246.11 -10 OFFCURVE",
"294 -10 CURVE SMOOTH",
"453 -10 OFFCURVE",
"558 108 OFFCURVE",
"558 249 CURVE SMOOTH",
"558 391 OFFCURVE",
"454 511 OFFCURVE",
"294 511 CURVE SMOOTH",
"246.11 511 OFFCURVE",
"208.06 499.96 OFFCURVE",
"178 481.75 CURVE",
"178 519 LINE",
"178 761 LINE",
"26 761 LINE",
"25 -191 LINE"
);
},
{
closed = 1;
nodes = (
"225 100 OFFCURVE",
"168 152 OFFCURVE",
"168 249 CURVE SMOOTH",
"168 348 OFFCURVE",
"225 400 OFFCURVE",
"294 400 CURVE SMOOTH",
"357 400 OFFCURVE",
"405 339 OFFCURVE",
"405 249 CURVE SMOOTH",
"405 161 OFFCURVE",
"357 100 OFFCURVE",
"294 100 CURVE SMOOTH"
);
}
);
width = 563;
}
);
note = thorn;
unicode = 00FE;
},
{
glyphname = q;
lastChange = "2023-07-27 15:47:19 +0000";
layers = (
{
layerId = "F5467FAD-1970-4982-B3D3-939C01050498";
paths = (
{
closed = 1;
nodes = (
"488 500 LINE",
"488 382 LINE",
"504 248 LINE",
"488 102 LINE",
"488 -200 LINE",
"533 -200 LINE",
"532 500 LINE"
);
},
{
closed = 1;
nodes = (
"127 512 OFFCURVE",
"30 400 OFFCURVE",
"30 248 CURVE SMOOTH",
"30 97 OFFCURVE",
"127 -13 OFFCURVE",
"279 -13 CURVE SMOOTH",
"434 -13 OFFCURVE",
"505 130 OFFCURVE",
"505 248 CURVE SMOOTH",
"505 365 OFFCURVE",
"439 512 OFFCURVE",
"279 512 CURVE SMOOTH"
);
},
{
closed = 1;
nodes = (
"400 482 OFFCURVE",
"500 393 OFFCURVE",
"500 248 CURVE SMOOTH",
"500 106 OFFCURVE",
"399 16 OFFCURVE",
"278 16 CURVE SMOOTH",
"155 16 OFFCURVE",
"75 121 OFFCURVE",
"75 248 CURVE SMOOTH",
"75 377 OFFCURVE",
"157 482 OFFCURVE",
"279 482 CURVE SMOOTH"
);
}
);
width = 583;
},
{
layerId = "6DD95C5A-998B-41AB-BDFB-84A73C209871";
paths = (
{
closed = 1;
nodes = (
"450 500 LINE",
"450 474 LINE",
"470 248 LINE",
"450 10 LINE",
"450 -200 LINE",
"603 -200 LINE",
"602 500 LINE"
);
},
{
closed = 1;
nodes = (
"125 509 OFFCURVE",
"20 389 OFFCURVE",
"20 248 CURVE SMOOTH",
"20 106 OFFCURVE",
"125 -12 OFFCURVE",
"284 -12 CURVE SMOOTH",
"437 -12 OFFCURVE",
"477 75 OFFCURVE",
"477 248 CURVE SMOOTH",
"477 422 OFFCURVE",
"446 509 OFFCURVE",
"284 509 CURVE SMOOTH"
);
},
{
closed = 1;
nodes = (
"401 398 OFFCURVE",
"458 347 OFFCURVE",
"458 248 CURVE SMOOTH",
"458 150 OFFCURVE",
"401 98 OFFCURVE",
"312 98 CURVE SMOOTH",
"229 98 OFFCURVE",
"181 159 OFFCURVE",
"181 248 CURVE SMOOTH",
"181 338 OFFCURVE",
"229 398 OFFCURVE",
"312 398 CURVE SMOOTH"
);
}
);
width = 638;
},
{
associatedMasterId = "6DD95C5A-998B-41AB-BDFB-84A73C209871";
layerId = "0C2631EF-B1CC-4266-849D-97E34A750FC9";
name = "24 juil. 23  14:33";
paths = (
{
closed = 1;
nodes = (
"602.99 -200 LINE",
"601.99 500 LINE",
"449.99 500 LINE",
"450 463 LINE",
"449.99 434.14 LINE",
"430.02 477.44 OFFCURVE",
"361.19 506 OFFCURVE",
"293.99 506 CURVE SMOOTH",
"134 506 OFFCURVE",
"30 386 OFFCURVE",
"30 245 CURVE SMOOTH",
"30 103 OFFCURVE",
"135 -15 OFFCURVE",
"294 -15 CURVE SMOOTH",
"360.45 -15 OFFCURVE",
"419.32 4.72 OFFCURVE",
"449.99 47.4 CURVE",
"450 15 LINE",
"449.99 -200 LINE"
);
},
{
closed = 1;
nodes = (
"230.99 95 OFFCURVE",
"182.99 156 OFFCURVE",
"182.99 245 CURVE SMOOTH",
"182.99 335 OFFCURVE",
"230.99 395 OFFCURVE",
"313.99 395 CURVE SMOOTH",
"402.99 395 OFFCURVE",
"459.99 344 OFFCURVE",
"459.99 245 CURVE SMOOTH",
"459.99 147 OFFCURVE",
"402.99 95 OFFCURVE",
"313.99 95 CURVE SMOOTH"
);
}
);
width = 638;
},
{
associatedMasterId = "F5467FAD-1970-4982-B3D3-939C01050498";
layerId = "90652EA9-EDFC-4C18-BA74-0C2524A4B062";
name = "24 juil. 23  14:33";
paths = (
{
closed = 1;
nodes = (
"537 -200 LINE",
"536 500 LINE",
"492 500 LINE",
"492 382 LINE",
"499.13 312.89 LINE",
"477.93 413.48 OFFCURVE",
"407.14 512 OFFCURVE",
"278.99 512 CURVE SMOOTH",
"126.99 512 OFFCURVE",
"29.99 400 OFFCURVE",
"29.99 248 CURVE SMOOTH",
"29.99 97 OFFCURVE",
"126.99 -13 OFFCURVE",
"278.99 -13 CURVE SMOOTH",
"406.48 -13 OFFCURVE",
"477.2 83.84 OFFCURVE",
"498.79 182.56 CURVE",
"492 102 LINE",
"492 -200 LINE"
);
},
{
closed = 1;
nodes = (
"155.99 16 OFFCURVE",
"74.99 121 OFFCURVE",
"74.99 248 CURVE SMOOTH",
"74.99 377 OFFCURVE",
"156.99 482 OFFCURVE",
"278.99 482 CURVE SMOOTH",
"399.99 482 OFFCURVE",
"500.99 393 OFFCURVE",
"500.99 248 CURVE SMOOTH",
"500.99 106 OFFCURVE",
"399.99 16 OFFCURVE",
"278.99 16 CURVE SMOOTH"
);
}
);
width = 587;
}
);
leftKerningGroup = a;
note = q;
rightKerningGroup = aacute;
unicode = 0071;
},
{
glyphname = r;
lastChange = "2023-07-27 15:47:19 +0000";
layers = (
{
anchors = (
{
name = bottom;
position = "{248, 0}";
},
{
name = top;
position = "{275, 500}";
}
);
layerId = "F5467FAD-1970-4982-B3D3-939C01050498";
paths = (
{
closed = 1;
nodes = (
"94 0 LINE",
"94 270.75 LINE",
"108.22 412.43 OFFCURVE",
"197 477 OFFCURVE",
"286 477 CURVE SMOOTH",
"357 477 OFFCURVE",
"391.15 439.29 OFFCURVE",
"404.14 387.29 CURVE",
"453.95 387.29 LINE",
"453 391 OFFCURVE",
"453 394 OFFCURVE",
"452 398 CURVE SMOOTH",
"441 461 OFFCURVE",
"404 507 OFFCURVE",
"300.19 506.29 CURVE SMOOTH",
"204 506 OFFCURVE",
"115 443 OFFCURVE",
"94 331.26 CURVE",
"94 500 LINE",
"50 500 LINE",
"50 0 LINE"
);
}
);
width = 460;
},
{
anchors = (
{
name = bottom;
position = "{292, 0}";
},
{
name = top;
position = "{319, 500}";
}
);
layerId = "6DD95C5A-998B-41AB-BDFB-84A73C209871";
paths = (
{
closed = 1;
nodes = (
"197 0 LINE",
"197 258.57 LINE SMOOTH",
"197 360 OFFCURVE",
"252 399 OFFCURVE",
"307 399 CURVE SMOOTH",
"348 399 OFFCURVE",
"376 374 OFFCURVE",
"371 325 CURVE",
"521 325 LINE",
"522 331 OFFCURVE",
"522 336 OFFCURVE",
"522 342 CURVE SMOOTH",
"522 426 OFFCURVE",
"459 510 OFFCURVE",
"348 510 CURVE SMOOTH",
"290 510 OFFCURVE",
"225.18 479.29 OFFCURVE",
"197 432.61 CURVE",
"197 500 LINE",
"45 500 LINE",
"45 0 LINE"
);
}
);
width = 532;
}
);
leftKerningGroup = m;
note = r;
rightKerningGroup = r;
unicode = 0072;
},
{
glyphname = s;
lastChange = "2023-07-27 15:47:19 +0000";
layers = (
{
anchors = (
{
name = bottom;
position = "{243, 0}";
},
{
name = top;
position = "{228, 500}";
}
);
layerId = "F5467FAD-1970-4982-B3D3-939C01050498";
paths = (
{
closed = 1;
nodes = (
"128 513 OFFCURVE",
"55 458 OFFCURVE",
"55 385 CURVE SMOOTH",
"55 200 OFFCURVE",
"383 306 OFFCURVE",
"383 125 CURVE SMOOTH",
"383 80 OFFCURVE",
"347 14 OFFCURVE",
"239 14 CURVE SMOOTH",
"158 14 OFFCURVE",
"90 52 OFFCURVE",
"60 128 CURVE",
"20 112 LINE",
"52 35 OFFCURVE",
"121 -14 OFFCURVE",
"239 -14 CURVE SMOOTH",
"381 -14 OFFCURVE",
"433 55 OFFCURVE",
"433 121 CURVE SMOOTH",
"433 331 OFFCURVE",
"105 226 OFFCURVE",
"105 385 CURVE SMOOTH",
"105 446 OFFCURVE",
"148 485 OFFCURVE",
"227 485 CURVE SMOOTH",
"304 485 OFFCURVE",
"362 442 OFFCURVE",
"390 372 CURVE",
"428 393 LINE",
"399 470 OFFCURVE",
"326 513 OFFCURVE",
"227 513 CURVE SMOOTH"
);
}
);
width = 453;
},
{
anchors = (
{
name = bottom;
position = "{267, 0}";
},
{
name = top;
position = "{252, 500}";
}
);
layerId = "6DD95C5A-998B-41AB-BDFB-84A73C209871";
paths = (
{
closed = 1;
nodes = (
"152 511 OFFCURVE",
"55 460 OFFCURVE",
"55 370 CURVE SMOOTH",
"55 155 OFFCURVE",
"350 245 OFFCURVE",
"350 147 CURVE SMOOTH",
"350 117 OFFCURVE",
"315 93 OFFCURVE",
"264 93 CURVE SMOOTH",
"194 93 OFFCURVE",
"167 159 OFFCURVE",
"154 203 CURVE",
"20 150 LINE",
"52 34 OFFCURVE",
"142 -12 OFFCURVE",
"264 -12 CURVE SMOOTH",
"406 -12 OFFCURVE",
"498 52 OFFCURVE",
"498 153 CURVE SMOOTH",
"498 346 OFFCURVE",
"199 250 OFFCURVE",
"199 360 CURVE SMOOTH",
"199 389 OFFCURVE",
"223 406 OFFCURVE",
"262 406 CURVE SMOOTH",
"319 406 OFFCURVE",
"356 367 OFFCURVE",
"356 303 CURVE",
"489 365 LINE",
"461 452 OFFCURVE",
"372 511 OFFCURVE",
"252 511 CURVE SMOOTH"
);
}
);
width = 518;
},
{
anchors = (
{
name = bottom;
position = "{248, 0}";
},
{
name = top;
position = "{233, 500}";
}
);
associatedMasterId = "6DD95C5A-998B-41AB-BDFB-84A73C209871";
layerId = "D619BE00-27DC-4BA7-9494-58223F4FA2F3";
name = "24 juil. 23  14:52";
paths = (
{
closed = 1;
nodes = (
"377 -12 OFFCURVE",
"449 52 OFFCURVE",
"449 153 CURVE SMOOTH",
"449 261 OFFCURVE",
"314 296 OFFCURVE",
"253 314 CURVE SMOOTH",
"206 328 OFFCURVE",
"180 344 OFFCURVE",
"180 370 CURVE SMOOTH",
"180 399 OFFCURVE",
"204 412 OFFCURVE",
"233 412 CURVE SMOOTH",
"278 412 OFFCURVE",
"288 382 OFFCURVE",
"289 360 CURVE",
"418 401 LINE",
"401 471 OFFCURVE",
"323 511 OFFCURVE",
"233 511 CURVE SMOOTH",
"133 511 OFFCURVE",
"46 450 OFFCURVE",
"46 370 CURVE SMOOTH",
"46 281 OFFCURVE",
"128 245 OFFCURVE",
"211 221 CURVE SMOOTH",
"275 201 OFFCURVE",
"311 190 OFFCURVE",
"311 155 CURVE SMOOTH",
"311 115 OFFCURVE",
"276 93 OFFCURVE",
"235 93 CURVE SMOOTH",
"156 93 OFFCURVE",
"130 166 OFFCURVE",
"130 214 CURVE",
"15 134 LINE",
"37 48 OFFCURVE",
"133 -12 OFFCURVE",
"235 -12 CURVE SMOOTH"
);
}
);
width = 474;
},
{
anchors = (
{
name = bottom;
position = "{238, 0}";
},
{
name = top;
position = "{223, 500}";
}
);
associatedMasterId = "F5467FAD-1970-4982-B3D3-939C01050498";
layerId = "6BCDE198-901C-4CEB-AD18-42D9A29F4FA8";
name = "24 juil. 23  14:52";
paths = (
{
closed = 1;
nodes = (
"365.85 -14 OFFCURVE",
"428.13 57 OFFCURVE",
"428.13 133 CURVE SMOOTH",
"428.13 227 OFFCURVE",
"305.1 255 OFFCURVE",
"226.67 276 CURVE SMOOTH",
"132.78 301 OFFCURVE",
"87.49 342 OFFCURVE",
"87.49 395 CURVE SMOOTH",
"87.49 453 OFFCURVE",
"142.72 496 OFFCURVE",
"222.25 496 CURVE SMOOTH",
"268.65 496 OFFCURVE",
"331.61 491 OFFCURVE",
"350.39 401 CURVE",
"403.41 413 LINE",
"373.59 490 OFFCURVE",
"290.74 513 OFFCURVE",
"222.26 513 CURVE SMOOTH",
"122.84 513 OFFCURVE",
"49.94 465 OFFCURVE",
"49.94 395 CURVE SMOOTH",
"49.94 320 OFFCURVE",
"117.32 283 OFFCURVE",
"214.52 257 CURVE SMOOTH",
"308.42 231 OFFCURVE",
"388.16 209 OFFCURVE",
"388.16 135 CURVE SMOOTH",
"388.16 60 OFFCURVE",
"331.55 4 OFFCURVE",
"224.47 4 CURVE SMOOTH",
"131.68 4 OFFCURVE",
"67.61 59 OFFCURVE",
"46.62 157 CURVE",
"6.85 130 LINE",
"38.89 43 OFFCURVE",
"106.27 -14 OFFCURVE",
"224.46 -14 CURVE SMOOTH"
);
}
);
width = 441;
}
);
leftKerningGroup = s;
note = s;
rightKerningGroup = s;
unicode = 0073;
},
{
glyphname = germandbls;
lastChange = "2023-07-27 15:47:19 +0000";
layers = (
{
layerId = "F5467FAD-1970-4982-B3D3-939C01050498";
paths = (
{
closed = 1;
nodes = (
"87 -16 LINE",
"87 531 LINE SMOOTH",
"87 631 OFFCURVE",
"145 688 OFFCURVE",
"241 688 CURVE SMOOTH",
"342 688 OFFCURVE",
"401 631 OFFCURVE",
"401 551 CURVE SMOOTH",
"401 477 OFFCURVE",
"374 431 OFFCURVE",
"280 431 CURVE SMOOTH",
"263 431 LINE",
"263 405 LINE",
"303 405 LINE SMOOTH",
"435 405 OFFCURVE",
"533 332 OFFCURVE",
"533 201 CURVE SMOOTH",
"533 72 OFFCURVE",
"436 17 OFFCURVE",
"297 17 CURVE SMOOTH",
"271 17 OFFCURVE",
"241 23 OFFCURVE",
"215 31 CURVE",
"215 4 LINE",
"239 -6 OFFCURVE",
"276 -16 OFFCURVE",
"308 -16 CURVE SMOOTH",
"469 -16 OFFCURVE",
"578 53 OFFCURVE",
"578 201 CURVE SMOOTH",
"578 304 OFFCURVE",
"508 405 OFFCURVE",
"364 425 CURVE",
"430 452 OFFCURVE",
"445 501 OFFCURVE",
"445 563 CURVE SMOOTH",
"445 650 OFFCURVE",
"356 716 OFFCURVE",
"241 716 CURVE SMOOTH",
"123 716 OFFCURVE",
"43 641 OFFCURVE",
"43 520 CURVE SMOOTH",
"43 -16 LINE"
);
}
);
width = 596;
},
{
layerId = "6DD95C5A-998B-41AB-BDFB-84A73C209871";
paths = (
{
closed = 1;
nodes = (
"183 4 LINE",
"183 517 LINE SMOOTH",
"183 562 OFFCURVE",
"206 583 OFFCURVE",
"253 583 CURVE SMOOTH",
"304 583 OFFCURVE",
"327 562 OFFCURVE",
"327 517 CURVE SMOOTH",
"327 471 OFFCURVE",
"304 447 OFFCURVE",
"250 447 CURVE SMOOTH",
"214 447 LINE",
"214 332 LINE",
"304 332 LINE SMOOTH",
"385 332 OFFCURVE",
"437 302 OFFCURVE",
"437 227 CURVE SMOOTH",
"437 166 OFFCURVE",
"409 117 OFFCURVE",
"319 117 CURVE SMOOTH",
"289 117 OFFCURVE",
"229 132 OFFCURVE",
"211 144 CURVE",
"211 26 LINE",
"227 17 OFFCURVE",
"274 4 OFFCURVE",
"318 4 CURVE SMOOTH",
"476 4 OFFCURVE",
"590 80 OFFCURVE",
"590 227 CURVE SMOOTH",
"590 324 OFFCURVE",
"538 393 OFFCURVE",
"447 426 CURVE",
"469 455 OFFCURVE",
"479 486 OFFCURVE",
"479 526 CURVE SMOOTH",
"479 653 OFFCURVE",
"365 696 OFFCURVE",
"253 696 CURVE SMOOTH",
"137 696 OFFCURVE",
"31 633 OFFCURVE",
"31 504 CURVE SMOOTH",
"31 4 LINE"
);
}
);
width = 596;
}
);
leftKerningGroup = germandbls;
note = germandbls;
rightKerningGroup = germandbls;
unicode = 00DF;
},
{
glyphname = t;
lastChange = "2023-07-27 15:47:19 +0000";
layers = (
{
anchors = (
{
name = bottom;
position = "{264, 0}";
},
{
name = top;
position = "{143, 700}";
}
);
layerId = "F5467FAD-1970-4982-B3D3-939C01050498";
paths = (
{
closed = 1;
nodes = (
"328 -12 OFFCURVE",
"379 16 OFFCURVE",
"409 59 CURVE",
"374 76 LINE",
"353 35 OFFCURVE",
"308 16 OFFCURVE",
"262 16 CURVE SMOOTH",
"192 16 OFFCURVE",
"165 59 OFFCURVE",
"165 144 CURVE SMOOTH",
"165 467 LINE",
"342 467 LINE",
"342 502 LINE",
"165 502 LINE",
"165 700 LINE",
"121 700 LINE",
"121 502 LINE",
"16 502 LINE",
"16 467 LINE",
"121 467 LINE",
"121 141 LINE SMOOTH",
"121 42 OFFCURVE",
"161 -12 OFFCURVE",
"262 -12 CURVE SMOOTH"
);
}
);
width = 459;
},
{
anchors = (
{
name = bottom;
position = "{278, 0}";
},
{
name = top;
position = "{178, 700}";
}
);
layerId = "6DD95C5A-998B-41AB-BDFB-84A73C209871";
paths = (
{
closed = 1;
nodes = (
"404 -8 OFFCURVE",
"459 54 OFFCURVE",
"486 108 CURVE",
"370 175 LINE",
"359 126 OFFCURVE",
"335 97 OFFCURVE",
"301 97 CURVE SMOOTH",
"273 97 OFFCURVE",
"254 119 OFFCURVE",
"254 164 CURVE SMOOTH",
"254 388 LINE",
"400 388 LINE",
"400 504 LINE",
"254 504 LINE",
"254 700 LINE",
"102 700 LINE",
"102 504 LINE",
"15 504 LINE",
"15 388 LINE",
"102 388 LINE",
"102 162 LINE SMOOTH",
"102 73 OFFCURVE",
"150 -8 OFFCURVE",
"301 -8 CURVE SMOOTH"
);
}
);
width = 491;
}
);
leftKerningGroup = t;
note = t;
rightKerningGroup = t;
unicode = 0074;
},
{
glyphname = tbar;
lastChange = "2023-07-27 15:47:19 +0000";
layers = (
{
components = (
{
name = t;
}
);
layerId = "F5467FAD-1970-4982-B3D3-939C01050498";
paths = (
{
closed = 1;
nodes = (
"325 362 LINE",
"26 362 LINE",
"26 320 LINE",
"325 320 LINE"
);
}
);
width = 459;
},
{
components = (
{
name = t;
}
);
layerId = "6DD95C5A-998B-41AB-BDFB-84A73C209871";
paths = (
{
closed = 1;
nodes = (
"373 343 LINE",
"40 343 LINE",
"40 248 LINE",
"373 248 LINE"
);
}
);
width = 491;
}
);
unicode = 0167;
},
{
glyphname = u;
lastChange = "2023-07-27 15:47:19 +0000";
layers = (
{
anchors = (
{
name = bottom;
position = "{293, 0}";
},
{
name = ogonek;
position = "{476, 1}";
},
{
name = top;
position = "{293, 500}";
}
);
layerId = "F5467FAD-1970-4982-B3D3-939C01050498";
paths = (
{
closed = 1;
nodes = (
"351.58 -7 OFFCURVE",
"449.52 44.97 OFFCURVE",
"476 145.72 CURVE",
"476 1 LINE",
"520 1 LINE",
"520 500 LINE",
"476 500 LINE",
"476 224 LINE",
"461 55 OFFCURVE",
"350 18 OFFCURVE",
"264 18 CURVE SMOOTH",
"139 18 OFFCURVE",
"94 103 OFFCURVE",
"94 197 CURVE SMOOTH",
"94 500 LINE",
"50 500 LINE",
"50 197 LINE SMOOTH",
"50 92 OFFCURVE",
"89 -7 OFFCURVE",
"251 -7 CURVE SMOOTH"
);
}
);
width = 570;
},
{
anchors = (
{
name = bottom;
position = "{293, 0}";
},
{
name = ogonek;
position = "{399, 0}";
},
{
name = top;
position = "{293, 500}";
}
);
layerId = "6DD95C5A-998B-41AB-BDFB-84A73C209871";
paths = (
{
closed = 1;
nodes = (
"328.64 -7 OFFCURVE",
"371.27 14.99 OFFCURVE",
"399 50.66 CURVE",
"399 0 LINE",
"551 0 LINE",
"551 500 LINE",
"399 500 LINE",
"399 252.44 LINE SMOOTH",
"399 126 OFFCURVE",
"334.44 101 OFFCURVE",
"280 101 CURVE SMOOTH",
"218 101 OFFCURVE",
"197 139 OFFCURVE",
"197 206 CURVE SMOOTH",
"197 500 LINE",
"45 500 LINE",
"45 206 LINE SMOOTH",
"45 109 OFFCURVE",
"87 -7 OFFCURVE",
"269 -7 CURVE SMOOTH"
);
}
);
width = 601;
}
);
leftKerningGroup = m;
note = u;
rightKerningGroup = a;
unicode = 0075;
},
{
glyphname = v;
lastChange = "2023-07-27 15:47:19 +0000";
layers = (
{
layerId = "F5467FAD-1970-4982-B3D3-939C01050498";
paths = (
{
closed = 1;
nodes = (
"258 0 LINE",
"469 500 LINE",
"429 500 LINE",
"233 35 LINE",
"247 35 LINE",
"51 500 LINE",
"11 500 LINE",
"222 0 LINE"
);
}
);
width = 500;
},
{
layerId = "6DD95C5A-998B-41AB-BDFB-84A73C209871";
paths = (
{
closed = 1;
nodes = (
"356 0 LINE",
"557 500 LINE",
"406 500 LINE",
"260 127 LINE",
"313 127 LINE",
"166 500 LINE",
"15 500 LINE",
"215.97 0 LINE"
);
}
);
width = 572;
}
);
leftKerningGroup = v;
note = v;
rightKerningGroup = v;
unicode = 0076;
},
{
glyphname = w;
lastChange = "2023-07-27 15:47:19 +0000";
layers = (
{
anchors = (
{
name = bottom;
position = "{323, 0}";
},
{
name = top;
position = "{316, 500}";
}
);
layerId = "F5467FAD-1970-4982-B3D3-939C01050498";
paths = (
{
closed = 1;
nodes = (
"196 0 LINE",
"323 469 LINE",
"309 469 LINE",
"436 0 LINE",
"479 0 LINE",
"622 500 LINE",
"582 500 LINE",
"454 37 LINE",
"460 37 LINE",
"332 500 LINE",
"300 500 LINE",
"172 37 LINE",
"178 37 LINE",
"50 500 LINE",
"10 500 LINE",
"153 0 LINE"
);
}
);
width = 646;
},
{
anchors = (
{
name = bottom;
position = "{382, 0}";
},
{
name = top;
position = "{382, 500}";
}
);
layerId = "6DD95C5A-998B-41AB-BDFB-84A73C209871";
paths = (
{
closed = 1;
nodes = (
"325 0 LINE",
"392 347 LINE",
"372 347 LINE",
"439 0 LINE",
"606 0 LINE",
"749 500 LINE",
"597 500 LINE",
"511 128 LINE",
"535 128 LINE",
"449 500 LINE",
"315 500 LINE",
"229 129 LINE",
"253 129 LINE",
"167 500 LINE",
"15 500 LINE",
"157 0 LINE"
);
}
);
width = 764;
}
);
leftKerningGroup = w;
note = w;
rightKerningGroup = w;
unicode = 0077;
},
{
glyphname = x;
lastChange = "2023-07-27 15:47:19 +0000";
layers = (
{
layerId = "F5467FAD-1970-4982-B3D3-939C01050498";
paths = (
{
closed = 1;
nodes = (
"72 500 LINE",
"16 500 LINE",
"460 0 LINE",
"516 0 LINE"
);
},
{
closed = 1;
nodes = (
"285 233 LINE",
"522 500 LINE",
"466 500 LINE",
"258 266 LINE"
);
},
{
closed = 1;
nodes = (
"246 266 LINE",
"10 0 LINE",
"66 0 LINE",
"273 233 LINE"
);
}
);
width = 532;
},
{
layerId = "6DD95C5A-998B-41AB-BDFB-84A73C209871";
paths = (
{
closed = 1;
nodes = (
"210 500 LINE",
"30 500 LINE",
"415 0 LINE",
"595 0 LINE"
);
},
{
closed = 1;
nodes = (
"374 187 LINE",
"615 500 LINE",
"435 500 LINE",
"284 304 LINE"
);
},
{
closed = 1;
nodes = (
"244 304 LINE",
"10 0 LINE",
"190 0 LINE",
"334 187 LINE"
);
}
);
width = 625;
}
);
leftKerningGroup = x;
note = x;
rightKerningGroup = x;
unicode = 0078;
},
{
glyphname = y;
lastChange = "2023-07-27 15:47:19 +0000";
layers = (
{
anchors = (
{
name = top;
position = "{232, 500}";
}
);
layerId = "F5467FAD-1970-4982-B3D3-939C01050498";
paths = (
{
closed = 1;
nodes = (
"177 -200 LINE",
"462 500 LINE",
"415 500 LINE",
"251 98 LINE",
"264 98 LINE",
"61 501 LINE",
"10 500 LINE",
"251 23 LINE",
"251 98 LINE",
"129 -200 LINE"
);
}
);
width = 472;
},
{
anchors = (
{
name = top;
position = "{324, 500}";
}
);
layerId = "6DD95C5A-998B-41AB-BDFB-84A73C209871";
paths = (
{
closed = 1;
nodes = (
"303 -200 LINE",
"588 500 LINE",
"432 500 LINE",
"312 205 LINE",
"319 206 LINE",
"177 500 LINE",
"10 500 LINE",
"271 -33 LINE",
"271 107 LINE",
"146 -200 LINE"
);
}
);
width = 598;
}
);
leftKerningGroup = y;
note = y;
rightKerningGroup = y;
unicode = 0079;
},
{
glyphname = z;
lastChange = "2023-07-27 15:47:19 +0000";
layers = (
{
anchors = (
{
name = bottom;
position = "{250, 0}";
},
{
name = top;
position = "{250, 500}";
}
);
layerId = "F5467FAD-1970-4982-B3D3-939C01050498";
paths = (
{
closed = 1;
nodes = (
"473 0 LINE",
"473 35 LINE",
"71 35 LINE",
"490 465 LINE",
"490 500 LINE",
"50 500 LINE",
"50 465 LINE",
"427 465 LINE",
"10 35 LINE",
"10 0 LINE"
);
}
);
width = 500;
},
{
anchors = (
{
name = bottom;
position = "{261, 0}";
},
{
name = top;
position = "{261, 500}";
}
);
layerId = "6DD95C5A-998B-41AB-BDFB-84A73C209871";
paths = (
{
closed = 1;
nodes = (
"501 0 LINE",
"501 115 LINE",
"222 115 LINE",
"493 395 LINE",
"493 500 LINE",
"35 500 LINE",
"35 385 LINE",
"281 385 LINE",
"20 105 LINE",
"20 0 LINE"
);
}
);
width = 521;
}
);
leftKerningGroup = z;
note = z;
rightKerningGroup = z;
unicode = 007A;
},
{
glyphname = a.ss01;
lastChange = "2023-07-27 15:47:19 +0000";
layers = (
{
anchors = (
{
name = bottom;
position = "{301, 0}";
},
{
name = ogonek;
position = "{491, 0}";
},
{
name = top;
position = "{274, 500}";
}
);
layerId = "F5467FAD-1970-4982-B3D3-939C01050498";
paths = (
{
closed = 1;
nodes = (
"533 500 LINE",
"488 500 LINE",
"488 398 LINE",
"504 252 LINE",
"488 118 LINE",
"488 0 LINE",
"532 0 LINE"
);
},
{
closed = 1;
nodes = (
"439 -12 OFFCURVE",
"505 135 OFFCURVE",
"505 252 CURVE SMOOTH",
"505 370 OFFCURVE",
"434 513 OFFCURVE",
"279 513 CURVE SMOOTH",
"127 513 OFFCURVE",
"30 403 OFFCURVE",
"30 252 CURVE SMOOTH",
"30 100 OFFCURVE",
"127 -12 OFFCURVE",
"279 -12 CURVE SMOOTH"
);
},
{
closed = 1;
nodes = (
"157 18 OFFCURVE",
"75 123 OFFCURVE",
"75 252 CURVE SMOOTH",
"75 379 OFFCURVE",
"155 484 OFFCURVE",
"278 484 CURVE SMOOTH",
"399 484 OFFCURVE",
"500 394 OFFCURVE",
"500 252 CURVE SMOOTH",
"500 107 OFFCURVE",
"400 18 OFFCURVE",
"279 18 CURVE SMOOTH"
);
}
);
width = 583;
},
{
anchors = (
{
name = bottom;
position = "{326, 0}";
},
{
name = ogonek;
position = "{450, 0}";
},
{
name = top;
position = "{314, 500}";
}
);
layerId = "6DD95C5A-998B-41AB-BDFB-84A73C209871";
paths = (
{
closed = 1;
nodes = (
"603 500 LINE",
"450 500 LINE",
"450 473 LINE",
"470 252 LINE",
"450 26 LINE",
"450 0 LINE",
"602 0 LINE"
);
},
{
closed = 1;
nodes = (
"446 -9 OFFCURVE",
"477 78 OFFCURVE",
"477 252 CURVE SMOOTH",
"477 425 OFFCURVE",
"437 512 OFFCURVE",
"284 512 CURVE SMOOTH",
"125 512 OFFCURVE",
"20 394 OFFCURVE",
"20 252 CURVE SMOOTH",
"20 111 OFFCURVE",
"125 -9 OFFCURVE",
"284 -9 CURVE SMOOTH"
);
},
{
closed = 1;
nodes = (
"232 102 OFFCURVE",
"183 162 OFFCURVE",
"183 252 CURVE SMOOTH",
"183 341 OFFCURVE",
"231 402 OFFCURVE",
"314 402 CURVE SMOOTH",
"407 402 OFFCURVE",
"460 345 OFFCURVE",
"460 252 CURVE SMOOTH",
"460 153 OFFCURVE",
"403 102 OFFCURVE",
"314 102 CURVE SMOOTH"
);
}
);
width = 638;
}
);
},
{
glyphname = f.ss02;
lastChange = "2023-07-27 15:47:19 +0000";
layers = (
{
layerId = "F5467FAD-1970-4982-B3D3-939C01050498";
paths = (
{
closed = 1;
nodes = (
"346 466 LINE",
"346 501 LINE",
"9 501 LINE",
"9 466 LINE"
);
},
{
closed = 1;
nodes = (
"148 760 OFFCURVE",
"124 635 OFFCURVE",
"124 570 CURVE SMOOTH",
"124 0 LINE",
"168 0 LINE",
"168 570 LINE SMOOTH",
"168 687 OFFCURVE",
"214 732 OFFCURVE",
"307 732 CURVE SMOOTH",
"359 732 OFFCURVE",
"393 705 OFFCURVE",
"419 676 CURVE",
"457 703 LINE",
"428 732 OFFCURVE",
"384 760 OFFCURVE",
"307 760 CURVE SMOOTH"
);
}
);
width = 423;
},
{
layerId = "6DD95C5A-998B-41AB-BDFB-84A73C209871";
paths = (
{
closed = 1;
nodes = (
"402 385 LINE",
"402 501 LINE",
"7 501 LINE",
"7 385 LINE"
);
},
{
closed = 1;
nodes = (
"154 760 OFFCURVE",
"108 644 OFFCURVE",
"108 562 CURVE SMOOTH",
"108 0 LINE",
"260 0 LINE",
"260 562 LINE SMOOTH",
"260 605 OFFCURVE",
"280 643 OFFCURVE",
"338 643 CURVE SMOOTH",
"386 643 OFFCURVE",
"398 596 OFFCURVE",
"404 572 CURVE",
"515 656 LINE",
"496 683 OFFCURVE",
"435 760 OFFCURVE",
"318 760 CURVE SMOOTH"
);
}
);
width = 397;
}
);
},
{
glyphname = f_f_ij;
lastChange = "2023-07-27 15:47:19 +0000";
layers = (
{
components = (
{
name = f;
},
{
name = j;
transform = "{1, 0, 0, 1, 828, 0}";
}
);
layerId = "F5467FAD-1970-4982-B3D3-939C01050498";
paths = (
{
closed = 1;
nodes = (
"737 0 LINE",
"737 500 LINE",
"442 501 LINE",
"361 529 OFFCURVE",
"350 573 OFFCURVE",
"350 611 CURVE SMOOTH",
"350 687 OFFCURVE",
"414 727 OFFCURVE",
"513 727 CURVE SMOOTH",
"600 727 OFFCURVE",
"655 673 OFFCURVE",
"678 649 CURVE",
"737 648 LINE",
"737 704 LINE",
"688 704 LINE",
"653 727 OFFCURVE",
"599 755 OFFCURVE",
"513 755 CURVE SMOOTH",
"361 755 OFFCURVE",
"314 667 OFFCURVE",
"314 615 CURVE SMOOTH",
"314 568 OFFCURVE",
"341 521 OFFCURVE",
"392 501 CURVE",
"261 501 LINE",
"261 466 LINE",
"367 466 LINE",
"366 1 LINE",
"410 1 LINE",
"410 466 LINE",
"693 466 LINE",
"693 0 LINE"
);
}
);
width = 1032;
},
{
components = (
{
name = f;
},
{
name = j;
transform = "{1, 0, 0, 1, 944, 0}";
}
);
layerId = "6DD95C5A-998B-41AB-BDFB-84A73C209871";
paths = (
{
closed = 1;
nodes = (
"850 0 LINE",
"850 501 LINE",
"529 501 LINE",
"496 518 OFFCURVE",
"486 546 OFFCURVE",
"486 572 CURVE SMOOTH",
"486 616 OFFCURVE",
"523 634 OFFCURVE",
"555 634 CURVE SMOOTH",
"607 634 OFFCURVE",
"628 622 OFFCURVE",
"681 561 CURVE",
"850 561 LINE",
"850 693 LINE",
"695 693 LINE",
"679 706 OFFCURVE",
"624 738 OFFCURVE",
"555 738 CURVE SMOOTH",
"410 738 OFFCURVE",
"353 644 OFFCURVE",
"353 575 CURVE SMOOTH",
"353 554 OFFCURVE",
"355 528 OFFCURVE",
"372 501 CURVE",
"295 501 LINE",
"295 385 LINE",
"383 385 LINE",
"382 0 LINE",
"534 0 LINE",
"534 385 LINE",
"698 385 LINE",
"698 0 LINE"
);
}
);
width = 1256;
}
);
leftMetricsKey = f;
rightMetricsKey = ij;
},
{
glyphname = f_i;
lastChange = "2023-07-27 15:47:19 +0000";
layers = (
{
layerId = "F5467FAD-1970-4982-B3D3-939C01050498";
paths = (
{
closed = 1;
nodes = (
"485 0 LINE",
"485 500 LINE",
"190 501 LINE",
"109 529 OFFCURVE",
"98 573 OFFCURVE",
"98 611 CURVE SMOOTH",
"98 687 OFFCURVE",
"162 727 OFFCURVE",
"261 727 CURVE SMOOTH",
"348 727 OFFCURVE",
"403 673 OFFCURVE",
"426 649 CURVE",
"485 648 LINE",
"485 704 LINE",
"436 704 LINE",
"401 727 OFFCURVE",
"347 755 OFFCURVE",
"261 755 CURVE SMOOTH",
"109 755 OFFCURVE",
"62 667 OFFCURVE",
"62 615 CURVE SMOOTH",
"62 568 OFFCURVE",
"89 521 OFFCURVE",
"140 501 CURVE",
"9 501 LINE",
"9 466 LINE",
"115 466 LINE",
"114 1 LINE",
"158 1 LINE",
"158 466 LINE",
"441 466 LINE",
"441 0 LINE"
);
}
);
width = 565;
},
{
layerId = "6DD95C5A-998B-41AB-BDFB-84A73C209871";
paths = (
{
closed = 1;
nodes = (
"562 0 LINE",
"562 501 LINE",
"241 501 LINE",
"208 518 OFFCURVE",
"198 546 OFFCURVE",
"198 572 CURVE SMOOTH",
"198 616 OFFCURVE",
"235 634 OFFCURVE",
"267 634 CURVE SMOOTH",
"319 634 OFFCURVE",
"340 622 OFFCURVE",
"393 561 CURVE",
"562 561 LINE",
"562 693 LINE",
"407 693 LINE",
"391 706 OFFCURVE",
"336 738 OFFCURVE",
"267 738 CURVE SMOOTH",
"122 738 OFFCURVE",
"65 644 OFFCURVE",
"65 575 CURVE SMOOTH",
"65 554 OFFCURVE",
"67 528 OFFCURVE",
"84 501 CURVE",
"7 501 LINE",
"7 385 LINE",
"95 385 LINE",
"94 0 LINE",
"246 0 LINE",
"246 385 LINE",
"410 385 LINE",
"410 0 LINE"
);
}
);
width = 642;
}
);
leftMetricsKey = f;
rightMetricsKey = i;
},
{
glyphname = fi;
lastChange = "2023-07-27 15:47:19 +0000";
layers = (
{
layerId = "F5467FAD-1970-4982-B3D3-939C01050498";
paths = (
{
closed = 1;
nodes = (
"485 0 LINE",
"485 500 LINE",
"190 501 LINE",
"109 529 OFFCURVE",
"98 573 OFFCURVE",
"98 611 CURVE SMOOTH",
"98 687 OFFCURVE",
"162 727 OFFCURVE",
"261 727 CURVE SMOOTH",
"348 727 OFFCURVE",
"403 673 OFFCURVE",
"426 649 CURVE",
"485 648 LINE",
"485 704 LINE",
"436 704 LINE",
"401 727 OFFCURVE",
"347 755 OFFCURVE",
"261 755 CURVE SMOOTH",
"109 755 OFFCURVE",
"62 667 OFFCURVE",
"62 615 CURVE SMOOTH",
"62 568 OFFCURVE",
"89 521 OFFCURVE",
"140 501 CURVE",
"9 501 LINE",
"9 466 LINE",
"115 466 LINE",
"114 1 LINE",
"158 1 LINE",
"158 466 LINE",
"441 466 LINE",
"441 0 LINE"
);
}
);
width = 565;
},
{
layerId = "6DD95C5A-998B-41AB-BDFB-84A73C209871";
paths = (
{
closed = 1;
nodes = (
"562 0 LINE",
"562 501 LINE",
"241 501 LINE",
"208 518 OFFCURVE",
"198 546 OFFCURVE",
"198 572 CURVE SMOOTH",
"198 616 OFFCURVE",
"235 634 OFFCURVE",
"267 634 CURVE SMOOTH",
"319 634 OFFCURVE",
"340 622 OFFCURVE",
"393 561 CURVE",
"562 561 LINE",
"562 693 LINE",
"407 693 LINE",
"391 706 OFFCURVE",
"336 738 OFFCURVE",
"267 738 CURVE SMOOTH",
"122 738 OFFCURVE",
"65 644 OFFCURVE",
"65 575 CURVE SMOOTH",
"65 538 OFFCURVE",
"82 508 OFFCURVE",
"108 499 CURVE",
"7 501 LINE",
"7 385 LINE",
"95 385 LINE",
"94 0 LINE",
"246 0 LINE",
"246 385 LINE",
"410 385 LINE",
"410 0 LINE"
);
}
);
width = 642;
}
);
leftMetricsKey = f;
rightMetricsKey = i;
unicode = FB01;
},
{
glyphname = ordfeminine;
lastChange = "2023-07-27 15:47:19 +0000";
layers = (
{
layerId = "F5467FAD-1970-4982-B3D3-939C01050498";
paths = (
{
closed = 1;
nodes = (
"228 371 OFFCURVE",
"278 414 OFFCURVE",
"297 469 CURVE",
"297 381 LINE",
"328 381 LINE",
"328 595 LINE SMOOTH",
"328 657 OFFCURVE",
"315 734 OFFCURVE",
"188 734 CURVE SMOOTH",
"123 734 OFFCURVE",
"69 702 OFFCURVE",
"54 664 CURVE SMOOTH",
"53 660 OFFCURVE",
"52 657 OFFCURVE",
"51 652 CURVE",
"95 652 LINE",
"96 654 OFFCURVE",
"97 657 OFFCURVE",
"98 660 CURVE SMOOTH",
"108 689 OFFCURVE",
"134 722 OFFCURVE",
"188 722 CURVE SMOOTH",
"268 722 OFFCURVE",
"292 673 OFFCURVE",
"292 635 CURVE SMOOTH",
"292 589 OFFCURVE",
"238 572 OFFCURVE",
"174 564 CURVE SMOOTH",
"64 551 OFFCURVE",
"25 518 OFFCURVE",
"25 466 CURVE SMOOTH",
"25 410 OFFCURVE",
"77 371 OFFCURVE",
"160 371 CURVE SMOOTH"
);
},
{
closed = 1;
nodes = (
"80 382 OFFCURVE",
"60 435 OFFCURVE",
"60 470 CURVE SMOOTH",
"60 515 OFFCURVE",
"92 542 OFFCURVE",
"172 552 CURVE SMOOTH",
"229 559 OFFCURVE",
"275 574 OFFCURVE",
"297 601 CURVE",
"297 518 LINE SMOOTH",
"297 455 OFFCURVE",
"247 382 OFFCURVE",
"160 382 CURVE SMOOTH"
);
}
);
width = 373;
},
{
layerId = "6DD95C5A-998B-41AB-BDFB-84A73C209871";
paths = (
{
closed = 1;
nodes = (
"206 372 OFFCURVE",
"237 392 OFFCURVE",
"256 421 CURVE",
"256 381 LINE",
"361 381 LINE",
"361 588 LINE SMOOTH",
"361 642 OFFCURVE",
"348 732 OFFCURVE",
"205 732 CURVE SMOOTH",
"123 732 OFFCURVE",
"52 685 OFFCURVE",
"52 629 CURVE SMOOTH",
"52 622 OFFCURVE",
"54 615 OFFCURVE",
"55 608 CURVE",
"157 608 LINE",
"157 608 OFFCURVE",
"156 611 OFFCURVE",
"156 614 CURVE SMOOTH",
"156 628 OFFCURVE",
"163 662 OFFCURVE",
"212 662 CURVE SMOOTH",
"241 662 OFFCURVE",
"255 649 OFFCURVE",
"255 625 CURVE SMOOTH",
"255 598 OFFCURVE",
"225 590 OFFCURVE",
"179 586 CURVE SMOOTH",
"66 575 OFFCURVE",
"25 536 OFFCURVE",
"25 479 CURVE SMOOTH",
"25 419 OFFCURVE",
"66 372 OFFCURVE",
"156 372 CURVE SMOOTH"
);
},
{
closed = 1;
nodes = (
"143 437 OFFCURVE",
"127 461 OFFCURVE",
"127 483 CURVE SMOOTH",
"127 511 OFFCURVE",
"153 524 OFFCURVE",
"185 528 CURVE SMOOTH",
"211 531 OFFCURVE",
"234 537 OFFCURVE",
"256 546 CURVE",
"256 539 LINE SMOOTH",
"256 464 OFFCURVE",
"217 437 OFFCURVE",
"176 437 CURVE SMOOTH"
);
}
);
width = 406;
}
);
note = ordfeminine;
unicode = 00AA;
},
{
glyphname = ordmasculine;
lastChange = "2023-07-27 15:47:19 +0000";
layers = (
{
layerId = "F5467FAD-1970-4982-B3D3-939C01050498";
paths = (
{
closed = 1;
nodes = (
"311.7 367.34 OFFCURVE",
"383.5 444.62 OFFCURVE",
"383.5 547.43 CURVE SMOOTH",
"383.5 650.93 OFFCURVE",
"310.98 730.28 OFFCURVE",
"205.1 730.28 CURVE SMOOTH",
"99.22 730.28 OFFCURVE",
"26.7 650.93 OFFCURVE",
"26.7 547.43 CURVE SMOOTH",
"26.7 444.62 OFFCURVE",
"98.49 367.34 OFFCURVE",
"205.1 367.34 CURVE SMOOTH"
);
},
{
closed = 1;
nodes = (
"116.62 375.62 OFFCURVE",
"61.61 454.97 OFFCURVE",
"61.61 547.43 CURVE SMOOTH",
"61.61 640.58 OFFCURVE",
"116.62 720.62 OFFCURVE",
"205.1 720.62 CURVE SMOOTH",
"293.57 720.62 OFFCURVE",
"348.58 640.58 OFFCURVE",
"348.58 547.43 CURVE SMOOTH",
"348.58 454.97 OFFCURVE",
"293.57 375.62 OFFCURVE",
"205.1 375.62 CURVE SMOOTH"
);
}
);
width = 380;
},
{
layerId = "6DD95C5A-998B-41AB-BDFB-84A73C209871";
paths = (
{
closed = 1;
nodes = (
"325.28 368.72 OFFCURVE",
"400.63 451.52 OFFCURVE",
"400.63 547.43 CURVE SMOOTH",
"400.63 644.03 OFFCURVE",
"325.28 728.9 OFFCURVE",
"214.38 728.9 CURVE SMOOTH",
"103.48 728.9 OFFCURVE",
"28.12 644.03 OFFCURVE",
"28.12 547.43 CURVE SMOOTH",
"28.12 451.52 OFFCURVE",
"103.48 368.72 OFFCURVE",
"214.38 368.72 CURVE SMOOTH"
);
},
{
closed = 1;
nodes = (
"164.9 441.17 OFFCURVE",
"126.42 475.67 OFFCURVE",
"126.42 547.43 CURVE SMOOTH",
"126.42 619.88 OFFCURVE",
"164.9 654.38 OFFCURVE",
"214.38 654.38 CURVE SMOOTH",
"263.85 654.38 OFFCURVE",
"302.33 619.88 OFFCURVE",
"302.33 547.43 CURVE SMOOTH",
"302.33 475.67 OFFCURVE",
"263.85 441.17 OFFCURVE",
"214.38 441.17 CURVE SMOOTH"
);
}
);
width = 380;
}
);
note = ordmasculine;
unicode = 00BA;
},
{
glyphname = Delta;
lastChange = "2023-07-27 15:47:19 +0000";
layers = (
{
layerId = "F5467FAD-1970-4982-B3D3-939C01050498";
paths = (
{
closed = 1;
nodes = (
"611 0 LINE",
"611 38 LINE",
"354 700 LINE",
"298 700 LINE",
"41 38 LINE",
"41 0 LINE"
);
},
{
closed = 1;
nodes = (
"326 661.36 LINE",
"568 38 LINE",
"84 38 LINE"
);
}
);
width = 652;
},
{
layerId = "6DD95C5A-998B-41AB-BDFB-84A73C209871";
paths = (
{
closed = 1;
nodes = (
"652 0 LINE",
"652 131 LINE",
"411 700 LINE",
"241 700 LINE",
"0 131 LINE",
"0 0 LINE"
);
},
{
closed = 1;
nodes = (
"326 560 LINE",
"487.76 131 LINE",
"164.24 131 LINE"
);
}
);
width = 652;
}
);
note = Delta;
unicode = 0394;
},
{
glyphname = Omega;
lastChange = "2023-07-27 15:47:19 +0000";
layers = (
{
layerId = "F5467FAD-1970-4982-B3D3-939C01050498";
paths = (
{
closed = 1;
nodes = (
"268 0 LINE",
"268 54 LINE",
"146 96 OFFCURVE",
"73 215 OFFCURVE",
"73 359 CURVE SMOOTH",
"73 533 OFFCURVE",
"196 674 OFFCURVE",
"379 674 CURVE SMOOTH",
"563 674 OFFCURVE",
"685 533 OFFCURVE",
"685 359 CURVE SMOOTH",
"685 215 OFFCURVE",
"611 95 OFFCURVE",
"489 54 CURVE",
"489 0 LINE",
"742 0 LINE",
"742 44 LINE",
"550 44 LINE",
"666 74 OFFCURVE",
"728 240 OFFCURVE",
"728 359 CURVE SMOOTH",
"728 546 OFFCURVE",
"590 705 OFFCURVE",
"379 705 CURVE SMOOTH",
"168 705 OFFCURVE",
"31 546 OFFCURVE",
"31 359 CURVE SMOOTH",
"31 273 OFFCURVE",
"71 84 OFFCURVE",
"213 44 CURVE",
"15 44 LINE",
"15 0 LINE"
);
}
);
width = 758;
},
{
layerId = "6DD95C5A-998B-41AB-BDFB-84A73C209871";
paths = (
{
closed = 1;
nodes = (
"314 0 LINE",
"314 110 LINE",
"205 135 OFFCURVE",
"138 233 OFFCURVE",
"138 358 CURVE SMOOTH",
"138 498 OFFCURVE",
"234 607 OFFCURVE",
"379 607 CURVE SMOOTH",
"525 607 OFFCURVE",
"620 498 OFFCURVE",
"620 358 CURVE SMOOTH",
"620 233 OFFCURVE",
"552 134 OFFCURVE",
"443 110 CURVE",
"443 0 LINE",
"741 0 LINE",
"741 110 LINE",
"626 110 LINE",
"697 174 OFFCURVE",
"748 266 OFFCURVE",
"748 358 CURVE SMOOTH",
"748 544 OFFCURVE",
"589 705 OFFCURVE",
"379 705 CURVE SMOOTH",
"169 705 OFFCURVE",
"10 544 OFFCURVE",
"10 358 CURVE SMOOTH",
"10 266 OFFCURVE",
"61 173 OFFCURVE",
"135 110 CURVE",
"16 110 LINE",
"16 0 LINE"
);
}
);
width = 758;
}
);
note = Omega;
unicode = 03A9;
},
{
glyphname = mu;
lastChange = "2023-07-27 15:47:19 +0000";
layers = (
{
layerId = "F5467FAD-1970-4982-B3D3-939C01050498";
paths = (
{
closed = 1;
nodes = (
"95 -200 LINE",
"95 80 LINE",
"127 22 OFFCURVE",
"183 -7 OFFCURVE",
"257 -7 CURVE SMOOTH",
"345 -7 OFFCURVE",
"421 23 OFFCURVE",
"459 105 CURVE",
"459 0 LINE",
"501 0 LINE",
"501 500 LINE",
"459 500 LINE",
"459 213 LINE SMOOTH",
"459 72 OFFCURVE",
"339 21 OFFCURVE",
"257 21 CURVE SMOOTH",
"147 21 OFFCURVE",
"95 118 OFFCURVE",
"95 188 CURVE SMOOTH",
"95 500 LINE",
"53 500 LINE",
"53 -200 LINE"
);
}
);
width = 556;
},
{
layerId = "6DD95C5A-998B-41AB-BDFB-84A73C209871";
paths = (
{
closed = 1;
nodes = (
"176 -200 LINE",
"176 -5 LINE",
"197 -9 OFFCURVE",
"221.66 -12 OFFCURVE",
"249 -12 CURVE SMOOTH",
"300.22 -12 OFFCURVE",
"344.74 -0.42 OFFCURVE",
"380 21.79 CURVE",
"380 -6 LINE",
"534 -6 LINE",
"534 500 LINE",
"380 500 LINE",
"380 250.45 LINE SMOOTH",
"377 122 OFFCURVE",
"314.48 96 OFFCURVE",
"260 96 CURVE SMOOTH",
"197 96 OFFCURVE",
"176 136 OFFCURVE",
"176 203 CURVE SMOOTH",
"176 500 LINE",
"22 500 LINE",
"22 -200 LINE"
);
}
);
width = 556;
}
);
note = mu;
unicode = 03BC;
},
{
glyphname = pi;
lastChange = "2023-07-27 15:47:19 +0000";
layers = (
{
layerId = "F5467FAD-1970-4982-B3D3-939C01050498";
paths = (
{
closed = 1;
nodes = (
"174 0 LINE",
"174 463 LINE",
"426 463 LINE",
"426 0 LINE",
"476 0 LINE",
"476 463 LINE",
"580 463 LINE",
"580 500 LINE",
"23 500 LINE",
"23 463 LINE",
"124 463 LINE",
"124 0 LINE"
);
}
);
width = 600;
},
{
layerId = "6DD95C5A-998B-41AB-BDFB-84A73C209871";
paths = (
{
closed = 1;
nodes = (
"248 -3 LINE",
"248 374 LINE",
"353 374 LINE",
"353 -3 LINE",
"513 -3 LINE",
"513 374 LINE",
"604 374 LINE",
"604 505 LINE",
"-1 505 LINE",
"-1 374 LINE",
"88 374 LINE",
"88 -3 LINE"
);
}
);
width = 600;
}
);
note = pi;
unicode = 03C0;
},
{
glyphname = zero;
lastChange = "2023-07-27 15:47:19 +0000";
layers = (
{
layerId = "F5467FAD-1970-4982-B3D3-939C01050498";
paths = (
{
closed = 1;
nodes = (
"512 -13 OFFCURVE",
"616 129 OFFCURVE",
"616 348 CURVE SMOOTH",
"616 567 OFFCURVE",
"512 709 OFFCURVE",
"325 709 CURVE SMOOTH",
"139 709 OFFCURVE",
"36 567 OFFCURVE",
"36 348 CURVE SMOOTH",
"36 129 OFFCURVE",
"139 -13 OFFCURVE",
"325 -13 CURVE SMOOTH"
);
},
{
closed = 1;
nodes = (
"173 14 OFFCURVE",
"81 141 OFFCURVE",
"81 348 CURVE SMOOTH",
"81 555 OFFCURVE",
"173 682 OFFCURVE",
"325 682 CURVE SMOOTH",
"476 682 OFFCURVE",
"571 555 OFFCURVE",
"571 348 CURVE SMOOTH",
"571 141 OFFCURVE",
"476 14 OFFCURVE",
"325 14 CURVE SMOOTH"
);
}
);
width = 652;
},
{
layerId = "6DD95C5A-998B-41AB-BDFB-84A73C209871";
paths = (
{
closed = 1;
nodes = (
"550 -12 OFFCURVE",
"659 140 OFFCURVE",
"659 348 CURVE SMOOTH",
"659 556 OFFCURVE",
"550 708 OFFCURVE",
"346 708 CURVE SMOOTH",
"143 708 OFFCURVE",
"35 556 OFFCURVE",
"35 348 CURVE SMOOTH",
"35 140 OFFCURVE",
"143 -12 OFFCURVE",
"346 -12 CURVE SMOOTH"
);
},
{
closed = 1;
nodes = (
"255 99 OFFCURVE",
"190 185 OFFCURVE",
"190 348 CURVE SMOOTH",
"190 511 OFFCURVE",
"255 597 OFFCURVE",
"346 597 CURVE SMOOTH",
"438 597 OFFCURVE",
"504 511 OFFCURVE",
"504 348 CURVE SMOOTH",
"504 185 OFFCURVE",
"438 99 OFFCURVE",
"346 99 CURVE SMOOTH"
);
}
);
width = 694;
}
);
note = zero;
rightKerningGroup = zero;
unicode = 0030;
},
{
glyphname = one;
lastChange = "2023-07-27 15:47:19 +0000";
layers = (
{
layerId = "F5467FAD-1970-4982-B3D3-939C01050498";
paths = (
{
closed = 1;
nodes = (
"282 0 LINE",
"282 700 LINE",
"234 700 LINE",
"234 687 LINE SMOOTH",
"234 666 OFFCURVE",
"210 654 OFFCURVE",
"180 647 CURVE SMOOTH",
"144 639 OFFCURVE",
"99 638 OFFCURVE",
"75 639 CURVE",
"75 620 LINE",
"240 620 LINE",
"240 0 LINE"
);
}
);
width = 377;
},
{
layerId = "6DD95C5A-998B-41AB-BDFB-84A73C209871";
paths = (
{
closed = 1;
nodes = (
"328 0 LINE",
"328 700 LINE",
"174 700 LINE",
"174 682.17 LINE SMOOTH",
"174 647 OFFCURVE",
"142.04 628.84 OFFCURVE",
"93.52 628.84 CURVE SMOOTH",
"74.94 628.84 OFFCURVE",
"53.36 631.53 OFFCURVE",
"29 637 CURVE",
"29 537 LINE",
"174 537 LINE",
"174 0 LINE"
);
}
);
width = 377;
}
);
note = one;
rightKerningGroup = one;
unicode = 0031;
},
{
glyphname = two;
lastChange = "2023-07-27 15:47:19 +0000";
layers = (
{
layerId = "F5467FAD-1970-4982-B3D3-939C01050498";
paths = (
{
closed = 1;
nodes = (
"494 0 LINE",
"494 40 LINE",
"94 40 LINE",
"243 243 OFFCURVE",
"483.01 316.42 OFFCURVE",
"483.01 525.5 CURVE SMOOTH",
"483.01 647.02 OFFCURVE",
"407.03 713 OFFCURVE",
"268 713 CURVE SMOOTH",
"173 713 OFFCURVE",
"83 668 OFFCURVE",
"60 556 CURVE",
"107 561 LINE",
"121 634 OFFCURVE",
"186 685 OFFCURVE",
"268 685 CURVE SMOOTH",
"369 685 OFFCURVE",
"441 633 OFFCURVE",
"441.04 519.24 CURVE SMOOTH",
"441 331 OFFCURVE",
"190 246 OFFCURVE",
"43 34 CURVE",
"43 0 LINE"
);
}
);
width = 537;
},
{
layerId = "6DD95C5A-998B-41AB-BDFB-84A73C209871";
paths = (
{
closed = 1;
nodes = (
"535 0 LINE",
"535 123 LINE",
"223 123 LINE",
"283.74 201.66 OFFCURVE",
"516.01 274.38 OFFCURVE",
"516.01 493.19 CURVE SMOOTH",
"516.01 617.58 OFFCURVE",
"437.18 713 OFFCURVE",
"277.99 713 CURVE SMOOTH",
"140 713 OFFCURVE",
"24 629 OFFCURVE",
"44 485 CURVE",
"197 500 LINE",
"185 560 OFFCURVE",
"215 604 OFFCURVE",
"278 604 CURVE SMOOTH",
"330 604 OFFCURVE",
"364 565 OFFCURVE",
"363 495 CURVE SMOOTH",
"360 303 OFFCURVE",
"83 209 OFFCURVE",
"23 100 CURVE",
"22 0 LINE"
);
}
);
width = 557;
}
);
note = two;
unicode = 0032;
},
{
glyphname = three;
lastChange = "2023-07-27 15:47:19 +0000";
layers = (
{
layerId = "F5467FAD-1970-4982-B3D3-939C01050498";
paths = (
{
closed = 1;
nodes = (
"386 -10 OFFCURVE",
"495 58 OFFCURVE",
"495 192 CURVE SMOOTH",
"495 377 OFFCURVE",
"351 431 OFFCURVE",
"223 407 CURVE",
"228 399 LINE",
"481 671 LINE",
"481 700 LINE",
"71 700 LINE",
"71 671 LINE",
"436 671 LINE",
"199 411 LINE",
"216 384 LINE",
"232 388 OFFCURVE",
"257 389 OFFCURVE",
"275 389 CURVE SMOOTH",
"377 389 OFFCURVE",
"454 319 OFFCURVE",
"454 202 CURVE SMOOTH",
"454 82 OFFCURVE",
"364 18 OFFCURVE",
"264 18 CURVE SMOOTH",
"164 18 OFFCURVE",
"90 59 OFFCURVE",
"76 163 CURVE",
"34 163 LINE",
"51 45 OFFCURVE",
"142 -10 OFFCURVE",
"264 -10 CURVE SMOOTH"
);
}
);
width = 537;
},
{
layerId = "6DD95C5A-998B-41AB-BDFB-84A73C209871";
paths = (
{
closed = 1;
nodes = (
"435.15 -10 OFFCURVE",
"563 80 OFFCURVE",
"563.15 220 CURVE SMOOTH",
"563 369 OFFCURVE",
"459 436 OFFCURVE",
"340 424 CURVE",
"348 414 LINE",
"541 602 LINE",
"541 700 LINE",
"74.15 700 LINE",
"74.15 592 LINE",
"355.15 592 LINE",
"180 404 LINE",
"245.15 326 LINE",
"272 337 OFFCURVE",
"291 340 OFFCURVE",
"312 340 CURVE SMOOTH",
"368 340 OFFCURVE",
"410.15 301 OFFCURVE",
"410.15 220 CURVE SMOOTH",
"410.15 137 OFFCURVE",
"360.15 98 OFFCURVE",
"302.15 98 CURVE SMOOTH",
"231.15 98 OFFCURVE",
"190.15 130 OFFCURVE",
"193.15 229 CURVE",
"40.15 229 LINE",
"35.15 71 OFFCURVE",
"154.15 -10 OFFCURVE",
"302.15 -10 CURVE SMOOTH"
);
}
);
width = 603;
}
);
note = three;
rightKerningGroup = three;
unicode = 0033;
},
{
glyphname = four;
lastChange = "2023-07-27 15:47:19 +0000";
layers = (
{
layerId = "F5467FAD-1970-4982-B3D3-939C01050498";
paths = (
{
closed = 1;
nodes = (
"422 0 LINE",
"422 242.24 LINE",
"547 242 LINE",
"547 273 LINE",
"422 273 LINE",
"422 700 LINE",
"383 700 LINE",
"34 268 LINE",
"34 243 LINE",
"380 242.32 LINE",
"380 0 LINE"
);
},
{
closed = 1;
nodes = (
"380 651.5 LINE",
"380 273 LINE",
"80 273 LINE"
);
}
);
width = 577;
},
{
layerId = "6DD95C5A-998B-41AB-BDFB-84A73C209871";
paths = (
{
closed = 1;
nodes = (
"487 0 LINE",
"487 186.19 LINE",
"597 186 LINE",
"597 301 LINE",
"487 301 LINE",
"487 700 LINE",
"353 700 LINE",
"31 290 LINE",
"30 187 LINE",
"333 186.46 LINE",
"333 0 LINE"
);
},
{
closed = 1;
nodes = (
"333 484 LINE",
"333 301 LINE",
"194 301 LINE"
);
}
);
width = 630;
}
);
note = four;
rightKerningGroup = four;
unicode = 0034;
},
{
glyphname = five;
lastChange = "2023-07-27 15:47:19 +0000";
layers = (
{
layerId = "F5467FAD-1970-4982-B3D3-939C01050498";
paths = (
{
closed = 1;
nodes = (
"425 -10 OFFCURVE",
"540 73 OFFCURVE",
"540 207 CURVE SMOOTH",
"540 351 OFFCURVE",
"431 430 OFFCURVE",
"308 430 CURVE SMOOTH",
"242 430 OFFCURVE",
"196.96 407.3 OFFCURVE",
"160 381.25 CURVE",
"160 670 LINE",
"499 670 LINE",
"499 700 LINE",
"118 700 LINE",
"118 346 LINE",
"160 346 LINE",
"191 373 OFFCURVE",
"225 402 OFFCURVE",
"308 402 CURVE SMOOTH",
"406 402 OFFCURVE",
"499 341 OFFCURVE",
"499 207 CURVE SMOOTH",
"499 88 OFFCURVE",
"404 18 OFFCURVE",
"304 18 CURVE SMOOTH",
"215 18 OFFCURVE",
"144 67 OFFCURVE",
"127 163 CURVE",
"76 163 LINE",
"95 53 OFFCURVE",
"194 -10 OFFCURVE",
"304 -10 CURVE SMOOTH"
);
}
);
width = 600;
},
{
layerId = "6DD95C5A-998B-41AB-BDFB-84A73C209871";
paths = (
{
closed = 1;
nodes = (
"437 -10 OFFCURVE",
"570 85 OFFCURVE",
"570 224 CURVE SMOOTH",
"570 392 OFFCURVE",
"442 461 OFFCURVE",
"315 461 CURVE SMOOTH",
"285 461 OFFCURVE",
"261 457 OFFCURVE",
"237 447 CURVE",
"237 576 LINE",
"534 576 LINE",
"534 700 LINE",
"103 700 LINE",
"103 308 LINE",
"228 308 LINE",
"248 340 OFFCURVE",
"278 351 OFFCURVE",
"304 351 CURVE SMOOTH",
"363 351 OFFCURVE",
"417 316 OFFCURVE",
"417 224 CURVE SMOOTH",
"417 142 OFFCURVE",
"362 98 OFFCURVE",
"304 98 CURVE SMOOTH",
"244 98 OFFCURVE",
"192 140 OFFCURVE",
"196 229 CURVE",
"44 229 LINE",
"37 84 OFFCURVE",
"168 -10 OFFCURVE",
"304 -10 CURVE SMOOTH"
);
}
);
width = 600;
}
);
note = five;
rightKerningGroup = five;
unicode = 0035;
},
{
glyphname = six;
lastChange = "2023-07-27 15:47:19 +0000";
layers = (
{
layerId = "F5467FAD-1970-4982-B3D3-939C01050498";
paths = (
{
closed = 1;
nodes = (
"394.99 -10 OFFCURVE",
"503.99 68 OFFCURVE",
"503.99 202 CURVE SMOOTH",
"503.99 336 OFFCURVE",
"393.99 415 OFFCURVE",
"271.99 415 CURVE SMOOTH",
"232.38 415 OFFCURVE",
"199 407 OFFCURVE",
"166 391 CURVE",
"357 700 LINE",
"311.99 700 LINE",
"79 325 LINE SMOOTH",
"57.35 290.17 OFFCURVE",
"40.99 251.47 OFFCURVE",
"40.99 203 CURVE SMOOTH",
"40.99 69 OFFCURVE",
"150.99 -10 OFFCURVE",
"272.99 -10 CURVE SMOOTH"
);
},
{
closed = 1;
nodes = (
"172 18 OFFCURVE",
"82.99 82 OFFCURVE",
"82.99 202 CURVE SMOOTH",
"82.99 322 OFFCURVE",
"173 386 OFFCURVE",
"273 386 CURVE SMOOTH",
"373 386 OFFCURVE",
"461.99 323 OFFCURVE",
"461.99 203 CURVE SMOOTH",
"461.99 83 OFFCURVE",
"372 18 OFFCURVE",
"272 18 CURVE SMOOTH"
);
}
);
width = 547;
},
{
layerId = "6DD95C5A-998B-41AB-BDFB-84A73C209871";
paths = (
{
closed = 1;
nodes = (
"406 -10 OFFCURVE",
"534 80 OFFCURVE",
"534 220 CURVE SMOOTH",
"534 343 OFFCURVE",
"432 429 OFFCURVE",
"316 447 CURVE SMOOTH",
"308 448 OFFCURVE",
"300 449 OFFCURVE",
"292.18 449.3 CURVE",
"448 700 LINE",
"272 700 LINE",
"66 368 LINE SMOOTH",
"32 314 OFFCURVE",
"11 271 OFFCURVE",
"11 220 CURVE SMOOTH",
"11 81 OFFCURVE",
"140 -10 OFFCURVE",
"273 -10 CURVE SMOOTH"
);
},
{
closed = 1;
nodes = (
"214 99 OFFCURVE",
"165 137 OFFCURVE",
"165 220 CURVE SMOOTH",
"165 302 OFFCURVE",
"215 341 OFFCURVE",
"273 341 CURVE SMOOTH",
"331 341 OFFCURVE",
"380 303 OFFCURVE",
"380 220 CURVE SMOOTH",
"380 138 OFFCURVE",
"330 99 OFFCURVE",
"272 99 CURVE SMOOTH"
);
}
);
width = 547;
}
);
note = six;
unicode = 0036;
},
{
glyphname = seven;
lastChange = "2023-07-27 15:47:19 +0000";
layers = (
{
layerId = "F5467FAD-1970-4982-B3D3-939C01050498";
paths = (
{
closed = 1;
nodes = (
"119 0 LINE",
"448 700 LINE",
"61 700 LINE",
"61 670 LINE",
"398.43 670 LINE",
"73 0 LINE"
);
}
);
width = 504;
},
{
layerId = "6DD95C5A-998B-41AB-BDFB-84A73C209871";
paths = (
{
closed = 1;
nodes = (
"186 0 LINE",
"517 700 LINE",
"28 700 LINE",
"28 576 LINE",
"293.77 576 LINE",
"14 0 LINE"
);
}
);
width = 504;
}
);
note = seven;
rightKerningGroup = seven;
unicode = 0037;
},
{
glyphname = eight;
lastChange = "2023-07-27 15:47:19 +0000";
layers = (
{
layerId = "F5467FAD-1970-4982-B3D3-939C01050498";
paths = (
{
closed = 1;
nodes = (
"387 -0.01 OFFCURVE",
"495 73.99 OFFCURVE",
"495 201.99 CURVE SMOOTH",
"495 303.52 OFFCURVE",
"424.7 372.46 OFFCURVE",
"334.16 396.02 CURVE",
"398.4 416.88 OFFCURVE",
"451 467.02 OFFCURVE",
"451 544 CURVE SMOOTH",
"451 648 OFFCURVE",
"354 705 OFFCURVE",
"263 705 CURVE SMOOTH",
"172 705 OFFCURVE",
"76 649 OFFCURVE",
"76 545 CURVE SMOOTH",
"76 468.27 OFFCURVE",
"128.79 417.67 OFFCURVE",
"193.02 396.41 CURVE",
"102.22 373.36 OFFCURVE",
"32 304.93 OFFCURVE",
"32 202.99 CURVE SMOOTH",
"32 74.99 OFFCURVE",
"142 -0.01 OFFCURVE",
"264 -0.01 CURVE SMOOTH"
);
},
{
closed = 1;
nodes = (
"164 19.99 OFFCURVE",
"74 84.99 OFFCURVE",
"74 201.99 CURVE SMOOTH",
"74 317.99 OFFCURVE",
"164 384.99 OFFCURVE",
"264 384.99 CURVE SMOOTH",
"364 384.99 OFFCURVE",
"453 318.99 OFFCURVE",
"453 202.99 CURVE SMOOTH",
"453 85.99 OFFCURVE",
"362 19.99 OFFCURVE",
"263 19.99 CURVE SMOOTH"
);
},
{
closed = 1;
nodes = (
"184 404.99 OFFCURVE",
"119 461.99 OFFCURVE",
"119 543.99 CURVE SMOOTH",
"119 643.99 OFFCURVE",
"201 684.99 OFFCURVE",
"264 684.99 CURVE SMOOTH",
"327 684.99 OFFCURVE",
"408 645.99 OFFCURVE",
"408 544.99 CURVE SMOOTH",
"408 461.99 OFFCURVE",
"342 404.99 OFFCURVE",
"263 404.99 CURVE SMOOTH"
);
}
);
width = 527;
},
{
layerId = "6DD95C5A-998B-41AB-BDFB-84A73C209871";
paths = (
{
closed = 1;
nodes = (
"418.95 -3.52 OFFCURVE",
"548.23 83.34 OFFCURVE",
"548.23 219.69 CURVE SMOOTH",
"548.23 295.44 OFFCURVE",
"507.41 356.32 OFFCURVE",
"447.92 395.24 CURVE",
"484.3 426.26 OFFCURVE",
"508.84 468.96 OFFCURVE",
"508.84 521.68 CURVE SMOOTH",
"508.84 639.85 OFFCURVE",
"386.63 708.53 OFFCURVE",
"283.61 708.53 CURVE SMOOTH",
"180.59 708.53 OFFCURVE",
"59.39 640.86 OFFCURVE",
"59.39 522.69 CURVE SMOOTH",
"59.39 470.13 OFFCURVE",
"83.98 427.33 OFFCURVE",
"120.4 396.11 CURVE",
"60.81 357.48 OFFCURVE",
"20 296.74 OFFCURVE",
"20 220.7 CURVE SMOOTH",
"20 84.35 OFFCURVE",
"150.29 -3.52 OFFCURVE",
"284.62 -3.52 CURVE SMOOTH"
);
},
{
closed = 1;
nodes = (
"224.43 101.36 OFFCURVE",
"174.45 139.1 OFFCURVE",
"174.45 219.69 CURVE SMOOTH",
"174.45 299.26 OFFCURVE",
"225.45 338.03 OFFCURVE",
"284.62 338.03 CURVE SMOOTH",
"343.78 338.03 OFFCURVE",
"393.77 300.28 OFFCURVE",
"393.77 220.71 CURVE SMOOTH",
"393.77 139.1 OFFCURVE",
"342.76 101.36 OFFCURVE",
"283.6 101.36 CURVE SMOOTH"
);
},
{
closed = 1;
nodes = (
"245.86 442.1 OFFCURVE",
"214.23 470.66 OFFCURVE",
"214.23 521.67 CURVE SMOOTH",
"214.23 582.87 OFFCURVE",
"251.98 603.27 OFFCURVE",
"284.62 603.27 CURVE SMOOTH",
"317.27 603.27 OFFCURVE",
"353.99 583.89 OFFCURVE",
"353.99 522.69 CURVE SMOOTH",
"353.99 470.66 OFFCURVE",
"321.35 442.1 OFFCURVE",
"283.6 442.1 CURVE SMOOTH"
);
}
);
width = 568;
}
);
note = eight;
rightKerningGroup = eight;
unicode = 0038;
},
{
glyphname = nine;
lastChange = "2023-07-27 15:47:19 +0000";
layers = (
{
layerId = "F5467FAD-1970-4982-B3D3-939C01050498";
paths = (
{
closed = 1;
nodes = (
"227 0.25 LINE",
"335.38 177.94 OFFCURVE",
"503 401.08 OFFCURVE",
"503 509 CURVE SMOOTH",
"503 636 OFFCURVE",
"393 712 OFFCURVE",
"271 712 CURVE SMOOTH",
"149 712 OFFCURVE",
"40 637 OFFCURVE",
"40 510 CURVE SMOOTH",
"40 382 OFFCURVE",
"150 307 OFFCURVE",
"272 307 CURVE SMOOTH",
"332.21 307 OFFCURVE",
"378 328 OFFCURVE",
"401 345 CURVE",
"181 0 LINE"
);
},
{
closed = 1;
nodes = (
"171 335 OFFCURVE",
"82 392.87 OFFCURVE",
"82 509 CURVE SMOOTH",
"82 625 OFFCURVE",
"172 684 OFFCURVE",
"272 684 CURVE SMOOTH",
"372 684 OFFCURVE",
"461 626 OFFCURVE",
"461 510 CURVE SMOOTH",
"461 392.12 OFFCURVE",
"369 335 OFFCURVE",
"269 335 CURVE SMOOTH"
);
}
);
width = 543;
},
{
layerId = "6DD95C5A-998B-41AB-BDFB-84A73C209871";
paths = (
{
closed = 1;
nodes = (
"310 0 LINE",
"375 110 OFFCURVE",
"572 362 OFFCURVE",
"572 490 CURVE SMOOTH",
"572 624 OFFCURVE",
"443 712 OFFCURVE",
"310 712 CURVE SMOOTH",
"177 712 OFFCURVE",
"49 625 OFFCURVE",
"49 491 CURVE SMOOTH",
"49 366 OFFCURVE",
"159 282 OFFCURVE",
"281 270 CURVE SMOOTH",
"288 270 OFFCURVE",
"294 269 OFFCURVE",
"300.98 269.16 CURVE",
"134 0 LINE"
);
},
{
closed = 1;
nodes = (
"252 374 OFFCURVE",
"203 411 OFFCURVE",
"203 490 CURVE SMOOTH",
"203 569 OFFCURVE",
"253 607 OFFCURVE",
"311 607 CURVE SMOOTH",
"369 607 OFFCURVE",
"418 569 OFFCURVE",
"418 491 CURVE SMOOTH",
"418 412 OFFCURVE",
"368 374 OFFCURVE",
"310 374 CURVE SMOOTH"
);
}
);
width = 600;
}
);
note = nine;
rightKerningGroup = nine;
unicode = 0039;
},
{
glyphname = zero.zero;
lastChange = "2023-07-27 15:47:19 +0000";
layers = (
{
components = (
{
name = zero;
}
);
layerId = "F5467FAD-1970-4982-B3D3-939C01050498";
paths = (
{
closed = 1;
nodes = (
"237 21 LINE",
"450 669 LINE",
"415 669 LINE",
"202 21 LINE"
);
}
);
width = 652;
},
{
components = (
{
name = zero;
}
);
layerId = "6DD95C5A-998B-41AB-BDFB-84A73C209871";
paths = (
{
closed = 1;
nodes = (
"320 65 LINE",
"494 631 LINE",
"374 631 LINE",
"200 65 LINE"
);
}
);
width = 694;
}
);
leftMetricsKey = zero;
rightMetricsKey = zero;
},
{
glyphname = fraction;
lastChange = "2023-07-27 15:47:19 +0000";
layers = (
{
layerId = "F5467FAD-1970-4982-B3D3-939C01050498";
paths = (
{
closed = 1;
nodes = (
"127 -2 LINE",
"708 751 LINE",
"670 751 LINE",
"89 -2 LINE"
);
}
);
width = 784;
},
{
layerId = "6DD95C5A-998B-41AB-BDFB-84A73C209871";
paths = (
{
closed = 1;
nodes = (
"159 0 LINE",
"736 749 LINE",
"603 749 LINE",
"26 0 LINE"
);
}
);
width = 784;
}
);
note = fraction;
unicode = 2044;
},
{
glyphname = zero.dnom.zero;
lastChange = "2023-07-27 15:47:19 +0000";
layers = (
{
components = (
{
name = zero.dnom;
}
);
layerId = "F5467FAD-1970-4982-B3D3-939C01050498";
paths = (
{
closed = 1;
nodes = (
"117 23 LINE",
"146 14 LINE",
"278 401 LINE",
"248 409 LINE"
);
}
);
width = 395;
},
{
components = (
{
name = zero.dnom;
}
);
layerId = "6DD95C5A-998B-41AB-BDFB-84A73C209871";
paths = (
{
closed = 1;
nodes = (
"107 53 LINE",
"201 21 LINE",
"313 370 LINE",
"218 401 LINE"
);
}
);
width = 421;
}
);
leftKerningGroup = zero.dnom;
rightKerningGroup = zero.dnom;
},
{
glyphname = .notdef;
lastChange = "2023-07-27 15:47:19 +0000";
layers = (
{
components = (
{
alignment = -1;
name = N;
transform = "{0, 0.5117, -0.5117, 0, 604, -168}";
},
{
alignment = -1;
name = B;
transform = "{0, 0.5117, -0.5117, 0, 603, 138}";
},
{
alignment = -1;
name = R;
transform = "{0, 0.5117, -0.5117, 0, 603, 432}";
},
{
alignment = -1;
name = braceleft;
transform = "{1, 0, 0, 1, -108, 0}";
},
{
alignment = -1;
name = braceright;
transform = "{1, 0, 0, 1, 531, 0}";
},
{
name = period;
transform = "{0, 0.511, -0.511, 0, 601, 693}";
}
);
layerId = "F5467FAD-1970-4982-B3D3-939C01050498";
width = 848;
},
{
components = (
{
alignment = -1;
name = N;
transform = "{0, 0.4327, -0.4327, 0, 647, -164}";
},
{
alignment = -1;
name = B;
transform = "{0, 0.4327, -0.4327, 0, 646, 130}";
},
{
alignment = -1;
name = R;
transform = "{0, 0.4327, -0.4327, 0, 646, 394}";
},
{
alignment = -1;
name = braceleft;
transform = "{1, 0, 0, 1, -108, 0}";
},
{
alignment = -1;
name = braceright;
transform = "{1, 0, 0, 1, 602, 0}";
},
{
name = period;
transform = "{0, 0.432, -0.432, 0, 645, 685}";
}
);
layerId = "6DD95C5A-998B-41AB-BDFB-84A73C209871";
width = 1006;
},
{
associatedMasterId = "F5467FAD-1970-4982-B3D3-939C01050498";
layerId = "E0243716-C202-411D-B918-09A051B7F70A";
name = "24 juil. 23  11:45";
paths = (
{
closed = 1;
nodes = (
"500 0 LINE",
"500 700 LINE",
"0 700 LINE",
"0 0 LINE"
);
},
{
closed = 1;
nodes = (
"250 305 LINE",
"420 50 LINE",
"80 50 LINE"
);
},
{
closed = 1;
nodes = (
"50 605 LINE",
"220 350 LINE",
"50 95 LINE"
);
},
{
closed = 1;
nodes = (
"280 350 LINE",
"450 605 LINE",
"450 95 LINE"
);
},
{
closed = 1;
nodes = (
"80 650 LINE",
"420 650 LINE",
"250 395 LINE"
);
}
);
width = 500;
},
{
associatedMasterId = "6DD95C5A-998B-41AB-BDFB-84A73C209871";
layerId = "AD70B707-6481-42C4-BB38-4583DDE8AC4E";
name = "24 juil. 23  11:45";
paths = (
{
closed = 1;
nodes = (
"500 0 LINE",
"500 700 LINE",
"0 700 LINE",
"0 0 LINE"
);
},
{
closed = 1;
nodes = (
"250 305 LINE",
"420 50 LINE",
"80 50 LINE"
);
},
{
closed = 1;
nodes = (
"50 605 LINE",
"220 350 LINE",
"50 95 LINE"
);
},
{
closed = 1;
nodes = (
"280 350 LINE",
"450 605 LINE",
"450 95 LINE"
);
},
{
closed = 1;
nodes = (
"80 650 LINE",
"420 650 LINE",
"250 395 LINE"
);
}
);
width = 500;
}
);
note = ".notdef";
},
{
glyphname = period;
lastChange = "2023-07-27 15:47:19 +0000";
layers = (
{
layerId = "F5467FAD-1970-4982-B3D3-939C01050498";
paths = (
{
closed = 1;
nodes = (
"169 0 LINE",
"169 68 LINE",
"101 68 LINE",
"101 0 LINE"
);
}
);
width = 296;
},
{
layerId = "6DD95C5A-998B-41AB-BDFB-84A73C209871";
paths = (
{
closed = 1;
nodes = (
"198 0 LINE",
"198 152 LINE",
"46 152 LINE",
"46 0 LINE"
);
}
);
width = 296;
}
);
leftKerningGroup = comma;
note = period;
rightKerningGroup = period;
unicode = 002E;
},
{
glyphname = comma;
lastChange = "2023-07-27 15:47:19 +0000";
layers = (
{
layerId = "F5467FAD-1970-4982-B3D3-939C01050498";
paths = (
{
closed = 1;
nodes = (
"155 -94 OFFCURVE",
"169 -46 OFFCURVE",
"169 -9 CURVE SMOOTH",
"169 68 LINE",
"101 68 LINE",
"101 0 LINE",
"149 0 LINE",
"149 -9 LINE SMOOTH",
"149 -33 OFFCURVE",
"148 -66 OFFCURVE",
"109 -100 CURVE",
"109 -131 LINE"
);
}
);
width = 360;
},
{
layerId = "6DD95C5A-998B-41AB-BDFB-84A73C209871";
paths = (
{
closed = 1;
nodes = (
"220 -153 OFFCURVE",
"244 -38 OFFCURVE",
"244 0 CURVE SMOOTH",
"244 148 LINE",
"66 148 LINE",
"66 0 LINE",
"128 0 LINE",
"128 -8 LINE SMOOTH",
"127 -44 OFFCURVE",
"121 -81 OFFCURVE",
"83 -95 CURVE",
"83 -169 LINE"
);
}
);
width = 380;
}
);
leftKerningGroup = comma;
note = comma;
unicode = 002C;
},
{
glyphname = colon;
lastChange = "2023-07-27 15:47:19 +0000";
layers = (
{
layerId = "F5467FAD-1970-4982-B3D3-939C01050498";
paths = (
{
closed = 1;
nodes = (
"169.35 -1 LINE",
"169.35 67.54 LINE",
"100.8 67.54 LINE",
"100.8 -1 LINE"
);
},
{
closed = 1;
nodes = (
"169 398 LINE",
"169 466 LINE",
"101 466 LINE",
"101 398 LINE"
);
}
);
width = 270;
},
{
layerId = "6DD95C5A-998B-41AB-BDFB-84A73C209871";
paths = (
{
closed = 1;
nodes = (
"224.79 -1 LINE",
"224.79 148.18 LINE",
"45.36 148.18 LINE",
"45.36 -1 LINE"
);
},
{
closed = 1;
nodes = (
"224 398 LINE",
"224 546 LINE",
"46 546 LINE",
"46 398 LINE"
);
}
);
width = 270;
}
);
note = colon;
unicode = 003A;
},
{
glyphname = semicolon;
lastChange = "2023-07-27 15:47:19 +0000";
layers = (
{
layerId = "F5467FAD-1970-4982-B3D3-939C01050498";
paths = (
{
closed = 1;
nodes = (
"160 -92 OFFCURVE",
"174 -44 OFFCURVE",
"174 -7 CURVE SMOOTH",
"174 70 LINE",
"106 70 LINE",
"106 2 LINE",
"154 2 LINE",
"154 -7 LINE SMOOTH",
"154 -31 OFFCURVE",
"153 -64 OFFCURVE",
"114 -98 CURVE",
"114 -129 LINE"
);
},
{
closed = 1;
nodes = (
"194 386 LINE",
"194 454 LINE",
"126 454 LINE",
"126 386 LINE"
);
}
);
width = 385;
},
{
layerId = "6DD95C5A-998B-41AB-BDFB-84A73C209871";
paths = (
{
closed = 1;
nodes = (
"225 -151 OFFCURVE",
"249 -36 OFFCURVE",
"249 2 CURVE SMOOTH",
"249 150 LINE",
"71 150 LINE",
"71 2 LINE",
"133 2 LINE",
"133 -3 LINE SMOOTH",
"133 -40 OFFCURVE",
"127 -79 OFFCURVE",
"88 -93 CURVE",
"88 -167 LINE"
);
},
{
closed = 1;
nodes = (
"249 386 LINE",
"249 534 LINE",
"71 534 LINE",
"71 386 LINE"
);
}
);
width = 385;
}
);
note = semicolon;
unicode = 003B;
},
{
glyphname = ellipsis;
lastChange = "2023-07-27 15:47:19 +0000";
layers = (
{
layerId = "F5467FAD-1970-4982-B3D3-939C01050498";
paths = (
{
closed = 1;
nodes = (
"591 0 LINE",
"591 68 LINE",
"523 68 LINE",
"523 0 LINE"
);
},
{
closed = 1;
nodes = (
"169 0 LINE",
"169 68 LINE",
"101 68 LINE",
"101 0 LINE"
);
},
{
closed = 1;
nodes = (
"384 0 LINE",
"384 68 LINE",
"316 68 LINE",
"316 0 LINE"
);
}
);
width = 692;
},
{
layerId = "6DD95C5A-998B-41AB-BDFB-84A73C209871";
paths = (
{
closed = 1;
nodes = (
"726 0 LINE",
"726 148 LINE",
"548 148 LINE",
"548 0 LINE"
);
},
{
closed = 1;
nodes = (
"224 0 LINE",
"224 148 LINE",
"46 148 LINE",
"46 0 LINE"
);
},
{
closed = 1;
nodes = (
"479 0 LINE",
"479 148 LINE",
"301 148 LINE",
"301 0 LINE"
);
}
);
width = 772;
}
);
leftKerningGroup = comma;
note = ellipsis;
unicode = 2026;
},
{
glyphname = exclam;
lastChange = "2023-07-27 15:47:19 +0000";
layers = (
{
components = (
{
name = period;
transform = "{1, 0, 0, 1, 20, 0}";
}
);
layerId = "F5467FAD-1970-4982-B3D3-939C01050498";
paths = (
{
closed = 1;
nodes = (
"167.86 214 LINE",
"186.67 608 LINE",
"186.67 731 LINE",
"123.31 731 LINE",
"123.31 608 LINE",
"142.12 214 LINE"
);
}
);
width = 310;
},
{
components = (
{
name = period;
transform = "{1, 0, 0, 1, 34, 0}";
}
);
layerId = "6DD95C5A-998B-41AB-BDFB-84A73C209871";
paths = (
{
closed = 1;
nodes = (
"223 218 LINE",
"243 577 LINE",
"244 730 LINE",
"66 730 LINE",
"66 577 LINE",
"87 218 LINE"
);
}
);
width = 310;
}
);
leftKerningGroup = exclam;
note = exclam;
unicode = 0021;
},
{
glyphname = question;
lastChange = "2023-07-27 15:47:19 +0000";
layers = (
{
components = (
{
name = period;
transform = "{1, 0, 0, 1, 106, 0}";
}
);
layerId = "F5467FAD-1970-4982-B3D3-939C01050498";
paths = (
{
closed = 1;
nodes = (
"320 176 OFFCURVE",
"369 206 OFFCURVE",
"392 247 CURVE",
"354 261 LINE",
"330 229 OFFCURVE",
"308 204 OFFCURVE",
"258 204 CURVE SMOOTH",
"207 204 OFFCURVE",
"172 231 OFFCURVE",
"172 287 CURVE SMOOTH",
"172 421 OFFCURVE",
"429 427 OFFCURVE",
"429 590 CURVE SMOOTH",
"429 659 OFFCURVE",
"376 719 OFFCURVE",
"258 719 CURVE SMOOTH",
"173 719 OFFCURVE",
"100 667 OFFCURVE",
"60 595 CURVE",
"99 578 LINE",
"139 648 OFFCURVE",
"179 691 OFFCURVE",
"258 691 CURVE SMOOTH",
"328 691 OFFCURVE",
"389 662 OFFCURVE",
"389 588 CURVE SMOOTH",
"389 447 OFFCURVE",
"132 438 OFFCURVE",
"132 287 CURVE SMOOTH",
"132 214 OFFCURVE",
"186 176 OFFCURVE",
"258 176 CURVE SMOOTH"
);
}
);
width = 449;
},
{
components = (
{
name = period;
transform = "{1, 0, 0, 1, 153, 0}";
}
);
layerId = "6DD95C5A-998B-41AB-BDFB-84A73C209871";
paths = (
{
closed = 1;
nodes = (
"353 188 OFFCURVE",
"417 232 OFFCURVE",
"442 311 CURVE",
"303 355 LINE",
"308 323 OFFCURVE",
"301 282 OFFCURVE",
"270 282 CURVE SMOOTH",
"247 282 OFFCURVE",
"235 298 OFFCURVE",
"235 321 CURVE SMOOTH",
"235 409 OFFCURVE",
"493 397 OFFCURVE",
"493 573 CURVE SMOOTH",
"493 654 OFFCURVE",
"420 720 OFFCURVE",
"275 720 CURVE SMOOTH",
"169 720 OFFCURVE",
"64 661 OFFCURVE",
"40 572 CURVE",
"167 478 LINE",
"159 575 OFFCURVE",
"226 623 OFFCURVE",
"285 623 CURVE SMOOTH",
"336 623 OFFCURVE",
"356 588 OFFCURVE",
"356 561 CURVE SMOOTH",
"356 469 OFFCURVE",
"113 471 OFFCURVE",
"113 321 CURVE SMOOTH",
"113 229 OFFCURVE",
"198 188 OFFCURVE",
"270 188 CURVE SMOOTH"
);
}
);
width = 513;
},
{
associatedMasterId = "6DD95C5A-998B-41AB-BDFB-84A73C209871";
layerId = "E0DABA56-E5AC-4A7A-8FF7-859065AF231E";
name = "24 juil. 23  15:18";
paths = (
{
closed = 1;
nodes = (
"358 188 OFFCURVE",
"417 232 OFFCURVE",
"442 311 CURVE",
"303 355 LINE",
"305 346 OFFCURVE",
"306 338 OFFCURVE",
"306 331 CURVE SMOOTH",
"306 302 OFFCURVE",
"291 292 OFFCURVE",
"280 292 CURVE SMOOTH",
"266 292 OFFCURVE",
"255 303 OFFCURVE",
"255 331 CURVE SMOOTH",
"255 357 OFFCURVE",
"273 378 OFFCURVE",
"296 388 CURVE SMOOTH",
"353 414 OFFCURVE",
"493 443 OFFCURVE",
"493 553 CURVE SMOOTH",
"493 634 OFFCURVE",
"420 720 OFFCURVE",
"275 720 CURVE SMOOTH",
"169 720 OFFCURVE",
"64 661 OFFCURVE",
"40 572 CURVE",
"167 478 LINE",
"169 555 OFFCURVE",
"206 613 OFFCURVE",
"275 613 CURVE SMOOTH",
"326 613 OFFCURVE",
"356 588 OFFCURVE",
"356 551 CURVE SMOOTH",
"356 519 OFFCURVE",
"321 513 OFFCURVE",
"248 483 CURVE SMOOTH",
"199 462 OFFCURVE",
"103 421 OFFCURVE",
"103 331 CURVE SMOOTH",
"103 239 OFFCURVE",
"193 188 OFFCURVE",
"275 188 CURVE SMOOTH"
);
},
{
closed = 1;
nodes = (
"365 0 LINE",
"365 148 LINE",
"187 148 LINE",
"187 0 LINE"
);
}
);
width = 513;
},
{
associatedMasterId = "F5467FAD-1970-4982-B3D3-939C01050498";
layerId = "B8DC888A-2853-461B-8ED5-9AC418D32243";
name = "24 juil. 23  15:18";
paths = (
{
closed = 1;
nodes = (
"290 216 OFFCURVE",
"329 236 OFFCURVE",
"352 277 CURVE",
"323 281 LINE",
"320 277 OFFCURVE",
"318 273 OFFCURVE",
"315 269 CURVE SMOOTH",
"296 243 OFFCURVE",
"268 231 OFFCURVE",
"243 231 CURVE SMOOTH",
"192 231 OFFCURVE",
"144 271 OFFCURVE",
"144 327 CURVE SMOOTH",
"144 392 OFFCURVE",
"204 424 OFFCURVE",
"238 440 CURVE SMOOTH",
"305 472 OFFCURVE",
"429 496 OFFCURVE",
"429 580 CURVE SMOOTH",
"429 649 OFFCURVE",
"366 719 OFFCURVE",
"238 719 CURVE SMOOTH",
"153 719 OFFCURVE",
"70 677 OFFCURVE",
"40 615 CURVE",
"79 598 LINE",
"109 658 OFFCURVE",
"159 701 OFFCURVE",
"238 701 CURVE SMOOTH",
"318 701 OFFCURVE",
"387 652 OFFCURVE",
"387 578 CURVE SMOOTH",
"387 500 OFFCURVE",
"304 482 OFFCURVE",
"230 452 CURVE SMOOTH",
"172 428 OFFCURVE",
"102 398 OFFCURVE",
"102 327 CURVE SMOOTH",
"102 254 OFFCURVE",
"166 216 OFFCURVE",
"238 216 CURVE SMOOTH"
);
},
{
closed = 1;
nodes = (
"272 0 LINE",
"272 68 LINE",
"204 68 LINE",
"204 0 LINE"
);
}
);
width = 449;
}
);
leftKerningGroup = question;
note = question;
unicode = 003F;
},
{
glyphname = periodcentered;
lastChange = "2023-07-27 15:47:19 +0000";
layers = (
{
layerId = "F5467FAD-1970-4982-B3D3-939C01050498";
paths = (
{
closed = 1;
nodes = (
"334 224 LINE",
"334 292 LINE",
"266 292 LINE",
"266 224 LINE"
);
}
);
width = 600;
},
{
layerId = "6DD95C5A-998B-41AB-BDFB-84A73C209871";
paths = (
{
closed = 1;
nodes = (
"389 209 LINE",
"389 387 LINE",
"211 387 LINE",
"211 209 LINE"
);
}
);
width = 600;
}
);
note = periodcentered;
unicode = 00B7;
},
{
glyphname = bullet;
lastChange = "2023-07-27 15:47:19 +0000";
layers = (
{
layerId = "F5467FAD-1970-4982-B3D3-939C01050498";
paths = (
{
closed = 1;
nodes = (
"361 184 OFFCURVE",
"411 234 OFFCURVE",
"411 295 CURVE SMOOTH",
"411 356 OFFCURVE",
"361 406 OFFCURVE",
"300 406 CURVE SMOOTH",
"239 406 OFFCURVE",
"189 356 OFFCURVE",
"189 295 CURVE SMOOTH",
"189 234 OFFCURVE",
"239 184 OFFCURVE",
"300 184 CURVE SMOOTH"
);
}
);
width = 600;
},
{
layerId = "6DD95C5A-998B-41AB-BDFB-84A73C209871";
paths = (
{
closed = 1;
nodes = (
"419 95 OFFCURVE",
"515 190 OFFCURVE",
"515 295 CURVE SMOOTH",
"515 400 OFFCURVE",
"419 495 OFFCURVE",
"300 495 CURVE SMOOTH",
"181 495 OFFCURVE",
"85 400 OFFCURVE",
"85 295 CURVE SMOOTH",
"85 190 OFFCURVE",
"181 95 OFFCURVE",
"300 95 CURVE SMOOTH"
);
}
);
width = 600;
}
);
note = bullet;
unicode = 2022;
},
{
glyphname = asterisk;
lastChange = "2023-07-27 15:47:19 +0000";
layers = (
{
layerId = "F5467FAD-1970-4982-B3D3-939C01050498";
paths = (
{
closed = 1;
nodes = (
"308 431 LINE",
"291 554 LINE",
"351 446 LINE",
"380 466 LINE",
"294 556 LINE",
"406 504 LINE",
"416 537 LINE",
"296 560 LINE",
"417 582 LINE",
"406 617 LINE",
"294 564 LINE",
"379 654 LINE",
"350 674 LINE",
"291 566 LINE",
"308 689 LINE",
"270 689 LINE",
"287 566 LINE",
"227 674 LINE",
"198 654 LINE",
"284 564 LINE",
"172 616 LINE",
"162 583 LINE",
"282 560 LINE",
"161 538 LINE",
"172 503 LINE",
"284 556 LINE",
"199 466 LINE",
"228 446 LINE",
"287 554 LINE",
"270 431 LINE"
);
}
);
width = 600;
},
{
layerId = "6DD95C5A-998B-41AB-BDFB-84A73C209871";
paths = (
{
closed = 1;
nodes = (
"307 409 LINE",
"299 530 LINE",
"363 427 LINE",
"394 449 LINE",
"316 540 LINE",
"427 495 LINE",
"438 532 LINE",
"322 560 LINE",
"438 589 LINE",
"427 624 LINE",
"315 579 LINE",
"393 671 LINE",
"362 693 LINE",
"299 591 LINE",
"307 711 LINE",
"271 711 LINE",
"279 590 LINE",
"215 693 LINE",
"184 671 LINE",
"262 580 LINE",
"151 625 LINE",
"140 588 LINE",
"256 560 LINE",
"140 531 LINE",
"151 496 LINE",
"263 541 LINE",
"185 449 LINE",
"216 427 LINE",
"279 529 LINE",
"271 409 LINE"
);
}
);
width = 600;
}
);
note = asterisk;
unicode = 002A;
},
{
glyphname = numbersign;
lastChange = "2023-07-27 15:47:19 +0000";
layers = (
{
layerId = "F5467FAD-1970-4982-B3D3-939C01050498";
paths = (
{
closed = 1;
nodes = (
"30.99 227 LINE",
"30.99 190 LINE",
"729.99 190 LINE",
"730 227 LINE"
);
},
{
closed = 1;
nodes = (
"809.99 504 LINE",
"809.99 540 LINE",
"98.99 540 LINE",
"98.99 504 LINE"
);
},
{
closed = 1;
nodes = (
"96.99 -6 LINE",
"137.99 -6 LINE",
"392.99 756 LINE",
"350.99 756 LINE"
);
},
{
closed = 1;
nodes = (
"739.99 756 LINE",
"698.99 756 LINE",
"443.99 -6 LINE",
"484.99 -6 LINE"
);
}
);
width = 823;
},
{
layerId = "6DD95C5A-998B-41AB-BDFB-84A73C209871";
paths = (
{
closed = 1;
nodes = (
"20.99 289 LINE",
"20.99 169 LINE",
"750 169 LINE",
"750 289 LINE"
);
},
{
closed = 1;
nodes = (
"820 444 LINE",
"820 564 LINE",
"81 564 LINE",
"81 444 LINE"
);
},
{
closed = 1;
nodes = (
"61.99 -2 LINE",
"217.99 -2 LINE",
"471 752 LINE",
"315 752 LINE"
);
},
{
closed = 1;
nodes = (
"775 752 LINE",
"619 752 LINE",
"365.99 -2 LINE",
"522.99 -2 LINE"
);
}
);
width = 823;
}
);
note = numbersign;
unicode = 0023;
},
{
glyphname = slash;
lastChange = "2023-07-27 15:47:19 +0000";
layers = (
{
layerId = "F5467FAD-1970-4982-B3D3-939C01050498";
paths = (
{
closed = 1;
nodes = (
"97 -127 LINE",
"351 732 LINE",
"316 732 LINE",
"62 -127 LINE"
);
}
);
width = 413;
},
{
layerId = "6DD95C5A-998B-41AB-BDFB-84A73C209871";
paths = (
{
closed = 1;
nodes = (
"157 -117 LINE",
"406 722 LINE",
"286 722 LINE",
"37 -117 LINE"
);
}
);
width = 413;
}
);
note = slash;
unicode = 002F;
},
{
glyphname = backslash;
lastChange = "2023-07-27 15:47:19 +0000";
layers = (
{
layerId = "F5467FAD-1970-4982-B3D3-939C01050498";
paths = (
{
closed = 1;
nodes = (
"438 -127 LINE",
"184 732 LINE",
"149 732 LINE",
"403 -127 LINE"
);
}
);
width = 600;
},
{
layerId = "6DD95C5A-998B-41AB-BDFB-84A73C209871";
paths = (
{
closed = 1;
nodes = (
"463 -117 LINE",
"214 722 LINE",
"94 722 LINE",
"343 -117 LINE"
);
}
);
width = 600;
}
);
note = backslash;
rightKerningGroup = backslash;
unicode = 005C;
},
{
glyphname = hyphen;
lastChange = "2023-07-27 15:47:19 +0000";
layers = (
{
layerId = "F5467FAD-1970-4982-B3D3-939C01050498";
paths = (
{
closed = 1;
nodes = (
"453 243 LINE",
"453 277 LINE",
"64 277 LINE",
"64 243 LINE"
);
}
);
width = 517;
},
{
layerId = "6DD95C5A-998B-41AB-BDFB-84A73C209871";
paths = (
{
closed = 1;
nodes = (
"488 202 LINE",
"488 318 LINE",
"29 318 LINE",
"29 202 LINE"
);
}
);
width = 517;
}
);
note = hyphen;
unicode = 002D;
},
{
glyphname = softhyphen;
lastChange = "2023-07-27 15:47:19 +0000";
layers = (
{
layerId = "F5467FAD-1970-4982-B3D3-939C01050498";
paths = (
{
closed = 1;
nodes = (
"495 243 LINE",
"495 277 LINE",
"106 277 LINE",
"106 243 LINE"
);
}
);
width = 600;
},
{
layerId = "6DD95C5A-998B-41AB-BDFB-84A73C209871";
paths = (
{
closed = 1;
nodes = (
"530 202 LINE",
"530 318 LINE",
"71 318 LINE",
"71 202 LINE"
);
}
);
width = 600;
}
);
note = softhyphen;
unicode = 00AD;
},
{
glyphname = endash;
lastChange = "2023-07-27 15:47:19 +0000";
layers = (
{
layerId = "F5467FAD-1970-4982-B3D3-939C01050498";
paths = (
{
closed = 1;
nodes = (
"504 293 LINE",
"504 327 LINE",
"95 327 LINE",
"95 293 LINE"
);
}
);
width = 600;
},
{
layerId = "6DD95C5A-998B-41AB-BDFB-84A73C209871";
paths = (
{
closed = 1;
nodes = (
"537 252 LINE",
"537 368 LINE",
"62 368 LINE",
"62 252 LINE"
);
}
);
width = 600;
}
);
note = endash;
unicode = 2013;
},
{
glyphname = emdash;
lastChange = "2023-07-27 15:47:19 +0000";
layers = (
{
layerId = "F5467FAD-1970-4982-B3D3-939C01050498";
paths = (
{
closed = 1;
nodes = (
"578 293 LINE",
"578 327 LINE",
"21 327 LINE",
"21 293 LINE"
);
}
);
width = 600;
},
{
layerId = "6DD95C5A-998B-41AB-BDFB-84A73C209871";
paths = (
{
closed = 1;
nodes = (
"602 252 LINE",
"602 368 LINE",
"-3 368 LINE",
"-3 252 LINE"
);
}
);
width = 600;
}
);
note = emdash;
unicode = 2014;
},
{
glyphname = underscore;
lastChange = "2023-07-27 15:47:19 +0000";
layers = (
{
layerId = "F5467FAD-1970-4982-B3D3-939C01050498";
paths = (
{
closed = 1;
nodes = (
"579 -144 LINE",
"579 -100 LINE",
"15 -100 LINE",
"15 -144 LINE"
);
}
);
width = 600;
},
{
layerId = "6DD95C5A-998B-41AB-BDFB-84A73C209871";
paths = (
{
closed = 1;
nodes = (
"602 -185 LINE",
"602 -59 LINE",
"-8 -59 LINE",
"-8 -185 LINE"
);
}
);
width = 600;
}
);
note = underscore;
rightKerningGroup = underscore;
unicode = 005F;
},
{
glyphname = parenleft;
lastChange = "2023-07-27 15:47:19 +0000";
layers = (
{
layerId = "F5467FAD-1970-4982-B3D3-939C01050498";
paths = (
{
closed = 1;
nodes = (
"290 -159 LINE",
"229 -51 OFFCURVE",
"168 105 OFFCURVE",
"165 309 CURVE",
"168 519 OFFCURVE",
"227 677 OFFCURVE",
"288 781 CURVE",
"264 781 LINE",
"195 687 OFFCURVE",
"108 536 OFFCURVE",
"105 312 CURVE SMOOTH",
"108 98 OFFCURVE",
"197 -57 OFFCURVE",
"265 -159 CURVE"
);
}
);
width = 373;
},
{
layerId = "6DD95C5A-998B-41AB-BDFB-84A73C209871";
paths = (
{
closed = 1;
nodes = (
"371 -144 LINE",
"313 -64 OFFCURVE",
"231 88 OFFCURVE",
"228 309 CURVE",
"231 543 OFFCURVE",
"317 701 OFFCURVE",
"372 766 CURVE",
"223 766 LINE",
"157 681 OFFCURVE",
"61 530 OFFCURVE",
"58 311 CURVE SMOOTH",
"61 101 OFFCURVE",
"157 -49 OFFCURVE",
"222 -144 CURVE"
);
}
);
width = 373;
}
);
note = parenleft;
rightKerningGroup = parenleft;
unicode = 0028;
},
{
glyphname = parenright;
lastChange = "2023-07-27 15:47:19 +0000";
layers = (
{
layerId = "F5467FAD-1970-4982-B3D3-939C01050498";
paths = (
{
closed = 1;
nodes = (
"108 -159 LINE",
"176 -57 OFFCURVE",
"265 98 OFFCURVE",
"268 312 CURVE",
"265 536 OFFCURVE",
"178 687 OFFCURVE",
"109 781 CURVE",
"85 781 LINE",
"146 677 OFFCURVE",
"205 519 OFFCURVE",
"208 309 CURVE SMOOTH",
"205 105 OFFCURVE",
"144 -51 OFFCURVE",
"83 -159 CURVE"
);
}
);
width = 373;
},
{
layerId = "6DD95C5A-998B-41AB-BDFB-84A73C209871";
paths = (
{
closed = 1;
nodes = (
"151 -144 LINE",
"216 -49 OFFCURVE",
"312 101 OFFCURVE",
"315 311 CURVE",
"312 530 OFFCURVE",
"216 681 OFFCURVE",
"150 766 CURVE",
"1 766 LINE",
"56 701 OFFCURVE",
"142 543 OFFCURVE",
"145 309 CURVE SMOOTH",
"142 88 OFFCURVE",
"60 -64 OFFCURVE",
"2 -144 CURVE"
);
}
);
width = 373;
}
);
leftKerningGroup = parenright;
note = parenright;
unicode = 0029;
},
{
glyphname = braceleft;
lastChange = "2023-07-27 15:47:19 +0000";
layers = (
{
layerId = "F5467FAD-1970-4982-B3D3-939C01050498";
paths = (
{
closed = 1;
nodes = (
"310 795 OFFCURVE",
"293 800 OFFCURVE",
"280 800 CURVE SMOOTH",
"207 800 OFFCURVE",
"167 744 OFFCURVE",
"167 657 CURVE SMOOTH",
"167 562 OFFCURVE",
"243 499 OFFCURVE",
"243 413 CURVE SMOOTH",
"243 362 OFFCURVE",
"188 335 OFFCURVE",
"137 334 CURVE",
"128 334 LINE",
"128 303 LINE",
"137 303 LINE",
"185 318 LINE",
"248 333 OFFCURVE",
"278 369 OFFCURVE",
"278 418 CURVE SMOOTH",
"278 513 OFFCURVE",
"211 565 OFFCURVE",
"211 657 CURVE SMOOTH",
"211 727 OFFCURVE",
"235 765 OFFCURVE",
"284 765 CURVE SMOOTH",
"293 765 OFFCURVE",
"307 762 OFFCURVE",
"317 754 CURVE",
"317 789 LINE"
);
},
{
closed = 1;
nodes = (
"317 -117 LINE",
"307 -125 OFFCURVE",
"293 -128 OFFCURVE",
"284 -128 CURVE SMOOTH",
"235 -128 OFFCURVE",
"211 -90 OFFCURVE",
"211 -20 CURVE SMOOTH",
"211 72 OFFCURVE",
"278 124 OFFCURVE",
"278 219 CURVE SMOOTH",
"278 268 OFFCURVE",
"248 304 OFFCURVE",
"185 319 CURVE",
"137 334 LINE",
"128 334 LINE",
"128 303 LINE",
"137 303 LINE",
"188 302 OFFCURVE",
"243 275 OFFCURVE",
"243 224 CURVE SMOOTH",
"243 138 OFFCURVE",
"167 75 OFFCURVE",
"167 -20 CURVE SMOOTH",
"167 -107 OFFCURVE",
"207 -163 OFFCURVE",
"280 -163 CURVE SMOOTH",
"293 -163 OFFCURVE",
"310 -158 OFFCURVE",
"317 -152 CURVE"
);
}
);
width = 425;
},
{
layerId = "6DD95C5A-998B-41AB-BDFB-84A73C209871";
paths = (
{
closed = 1;
nodes = (
"404 778 OFFCURVE",
"366 790 OFFCURVE",
"328.58 790.02 CURVE SMOOTH",
"230 790 OFFCURVE",
"171 726.09 OFFCURVE",
"171 613 CURVE SMOOTH",
"171 538 OFFCURVE",
"215 476 OFFCURVE",
"215 430 CURVE SMOOTH",
"215 389 OFFCURVE",
"189 373 OFFCURVE",
"151 373 CURVE SMOOTH",
"128 373 LINE",
"128 244 LINE",
"167.35 244.06 LINE",
"252 307 LINE",
"335 322 OFFCURVE",
"359 350 OFFCURVE",
"359.27 410.65 CURVE SMOOTH",
"360 484 OFFCURVE",
"317 542 OFFCURVE",
"317 613 CURVE SMOOTH",
"317 657 OFFCURVE",
"328 682 OFFCURVE",
"366 682 CURVE SMOOTH",
"389 682 OFFCURVE",
"407 671 OFFCURVE",
"424 657 CURVE",
"424 764 LINE"
);
},
{
closed = 1;
nodes = (
"424 -40 LINE",
"407 -54 OFFCURVE",
"389 -65 OFFCURVE",
"366 -65 CURVE SMOOTH",
"328 -65 OFFCURVE",
"317 -40 OFFCURVE",
"317 4 CURVE SMOOTH",
"317 75 OFFCURVE",
"360 133 OFFCURVE",
"359 206 CURVE SMOOTH",
"359 267 OFFCURVE",
"335 295 OFFCURVE",
"252 310 CURVE",
"167 373 LINE",
"128 373 LINE",
"128 244 LINE",
"151 244 LINE SMOOTH",
"189 244 OFFCURVE",
"215 228 OFFCURVE",
"215 187 CURVE SMOOTH",
"215 141 OFFCURVE",
"171 79 OFFCURVE",
"171 4 CURVE SMOOTH",
"171 -109 OFFCURVE",
"230 -173 OFFCURVE",
"329 -173 CURVE SMOOTH",
"366 -173 OFFCURVE",
"404 -161 OFFCURVE",
"424 -147 CURVE"
);
}
);
width = 512;
}
);
note = braceleft;
unicode = 007B;
},
{
glyphname = bracketleft;
lastChange = "2023-07-27 15:47:19 +0000";
layers = (
{
layerId = "F5467FAD-1970-4982-B3D3-939C01050498";
paths = (
{
closed = 1;
nodes = (
"378 -165 LINE",
"378 -120 LINE",
"222 -120 LINE",
"222 783 LINE",
"378 783 LINE",
"378 828 LINE",
"172 828 LINE",
"172 -165 LINE"
);
}
);
width = 500;
},
{
layerId = "6DD95C5A-998B-41AB-BDFB-84A73C209871";
paths = (
{
closed = 1;
nodes = (
"424 -148 LINE",
"424 -20 LINE",
"287 -20 LINE",
"287 683 LINE",
"424 683 LINE",
"424 811 LINE",
"126 811 LINE",
"126 -148 LINE"
);
}
);
width = 500;
}
);
note = bracketleft;
rightKerningGroup = bracketleft;
unicode = 005B;
},
{
glyphname = bracketright;
lastChange = "2023-07-27 15:47:19 +0000";
layers = (
{
layerId = "F5467FAD-1970-4982-B3D3-939C01050498";
paths = (
{
closed = 1;
nodes = (
"378 -165 LINE",
"378 828 LINE",
"172 828 LINE",
"172 783 LINE",
"328 783 LINE",
"328 -120 LINE",
"172 -120 LINE",
"172 -165 LINE"
);
}
);
width = 500;
},
{
layerId = "6DD95C5A-998B-41AB-BDFB-84A73C209871";
paths = (
{
closed = 1;
nodes = (
"424 -148 LINE",
"424 811 LINE",
"126 811 LINE",
"126 683 LINE",
"263 683 LINE",
"263 -20 LINE",
"126 -20 LINE",
"126 -148 LINE"
);
}
);
width = 500;
}
);
leftKerningGroup = bracketright;
note = bracketright;
rightKerningGroup = bracketright;
unicode = 005D;
},
{
glyphname = quotesinglbase;
lastChange = "2023-07-27 15:47:19 +0000";
layers = (
{
layerId = "F5467FAD-1970-4982-B3D3-939C01050498";
paths = (
{
closed = 1;
nodes = (
"155 -94 OFFCURVE",
"169 -46 OFFCURVE",
"169 -9 CURVE SMOOTH",
"169 68 LINE",
"101 68 LINE",
"101 0 LINE",
"149 0 LINE",
"149 -33 OFFCURVE",
"148 -66 OFFCURVE",
"109 -100 CURVE",
"109 -131 LINE"
);
}
);
width = 269;
},
{
layerId = "6DD95C5A-998B-41AB-BDFB-84A73C209871";
paths = (
{
closed = 1;
nodes = (
"220 -153 OFFCURVE",
"244 -38 OFFCURVE",
"244 0 CURVE SMOOTH",
"244 148 LINE",
"66 148 LINE",
"66 0 LINE",
"128 0 LINE",
"128 -38 OFFCURVE",
"124 -80 OFFCURVE",
"83 -95 CURVE",
"83 -169 LINE"
);
}
);
width = 600;
}
);
note = quotesinglbase;
rightKerningGroup = quotesinglbase;
unicode = 201A;
},
{
glyphname = quotedblbase;
lastChange = "2023-07-27 15:47:19 +0000";
layers = (
{
layerId = "F5467FAD-1970-4982-B3D3-939C01050498";
paths = (
{
closed = 1;
nodes = (
"418 -94 OFFCURVE",
"432 -46 OFFCURVE",
"432 -9 CURVE SMOOTH",
"432 68 LINE",
"364 68 LINE",
"364 0 LINE",
"412 0 LINE",
"412 -9 LINE SMOOTH",
"412 -33 OFFCURVE",
"411 -66 OFFCURVE",
"372 -100 CURVE",
"372 -131 LINE"
);
},
{
closed = 1;
nodes = (
"155 -94 OFFCURVE",
"169 -46 OFFCURVE",
"169 -9 CURVE SMOOTH",
"169 68 LINE",
"101 68 LINE",
"101 0 LINE",
"149 0 LINE",
"149 -9 LINE SMOOTH",
"149 -33 OFFCURVE",
"148 -66 OFFCURVE",
"109 -100 CURVE",
"109 -131 LINE"
);
}
);
width = 600;
},
{
layerId = "6DD95C5A-998B-41AB-BDFB-84A73C209871";
paths = (
{
closed = 1;
nodes = (
"483 -153 OFFCURVE",
"507 -38 OFFCURVE",
"507 0 CURVE SMOOTH",
"507 148 LINE",
"329 148 LINE",
"329 0 LINE",
"391 0 LINE",
"391 -4 LINE",
"391 -41 OFFCURVE",
"386 -80 OFFCURVE",
"346 -95 CURVE",
"346 -169 LINE"
);
},
{
closed = 1;
nodes = (
"220 -153 OFFCURVE",
"244 -38 OFFCURVE",
"244 0 CURVE SMOOTH",
"244 148 LINE",
"66 148 LINE",
"66 0 LINE",
"128 0 LINE",
"128 -5 LINE",
"128 -41 OFFCURVE",
"122 -81 OFFCURVE",
"83 -95 CURVE",
"83 -169 LINE"
);
}
);
width = 600;
}
);
note = quotedblbase;
rightKerningGroup = quotedblbase;
unicode = 201E;
},
{
glyphname = quotedblleft;
lastChange = "2023-07-27 15:47:19 +0000";
layers = (
{
layerId = "F5467FAD-1970-4982-B3D3-939C01050498";
paths = (
{
closed = 1;
nodes = (
"447 564 LINE",
"447 632 LINE",
"399 632 LINE",
"399 665 OFFCURVE",
"400 698 OFFCURVE",
"439 732 CURVE",
"439 763 LINE",
"393 726 OFFCURVE",
"379 678 OFFCURVE",
"379 641 CURVE SMOOTH",
"379 564 LINE"
);
},
{
closed = 1;
nodes = (
"209 564 LINE",
"209 632 LINE",
"161 632 LINE",
"161 665 OFFCURVE",
"162 698 OFFCURVE",
"201 732 CURVE",
"201 763 LINE",
"155 726 OFFCURVE",
"141 678 OFFCURVE",
"141 641 CURVE SMOOTH",
"141 564 LINE"
);
}
);
width = 548;
},
{
layerId = "6DD95C5A-998B-41AB-BDFB-84A73C209871";
paths = (
{
closed = 1;
nodes = (
"482 484 LINE",
"482 632 LINE",
"420 632 LINE",
"420 670 OFFCURVE",
"424 712 OFFCURVE",
"465 727 CURVE",
"465 801 LINE",
"328 785 OFFCURVE",
"304 670 OFFCURVE",
"304 632 CURVE SMOOTH",
"304 484 LINE"
);
},
{
closed = 1;
nodes = (
"244 484 LINE",
"244 632 LINE",
"182 632 LINE",
"182 670 OFFCURVE",
"186 712 OFFCURVE",
"227 727 CURVE",
"227 801 LINE",
"90 785 OFFCURVE",
"66 670 OFFCURVE",
"66 632 CURVE SMOOTH",
"66 484 LINE"
);
}
);
width = 548;
}
);
leftKerningGroup = quotedblleft;
note = quotedblleft;
rightKerningGroup = quotedblleft;
unicode = 201C;
},
{
glyphname = quotedblright;
lastChange = "2023-07-27 15:47:19 +0000";
layers = (
{
layerId = "F5467FAD-1970-4982-B3D3-939C01050498";
paths = (
{
closed = 1;
nodes = (
"393 555 OFFCURVE",
"407 603 OFFCURVE",
"407 640 CURVE SMOOTH",
"407 717 LINE",
"339 717 LINE",
"339 649 LINE",
"387 649 LINE",
"387 616 OFFCURVE",
"386 583 OFFCURVE",
"347 549 CURVE",
"347 518 LINE"
);
},
{
closed = 1;
nodes = (
"155 555 OFFCURVE",
"169 603 OFFCURVE",
"169 640 CURVE SMOOTH",
"169 717 LINE",
"101 717 LINE",
"101 649 LINE",
"149 649 LINE",
"149 616 OFFCURVE",
"148 583 OFFCURVE",
"109 549 CURVE",
"109 518 LINE"
);
}
);
width = 548;
},
{
layerId = "6DD95C5A-998B-41AB-BDFB-84A73C209871";
paths = (
{
closed = 1;
nodes = (
"458 496 OFFCURVE",
"482 611 OFFCURVE",
"482 649 CURVE SMOOTH",
"482 797 LINE",
"304 797 LINE",
"304 649 LINE",
"366 649 LINE",
"366 611 OFFCURVE",
"362 569 OFFCURVE",
"321 554 CURVE",
"321 480 LINE"
);
},
{
closed = 1;
nodes = (
"220 496 OFFCURVE",
"244 611 OFFCURVE",
"244 649 CURVE SMOOTH",
"244 797 LINE",
"66 797 LINE",
"66 649 LINE",
"128 649 LINE",
"128 611 OFFCURVE",
"124 569 OFFCURVE",
"83 554 CURVE",
"83 480 LINE"
);
}
);
width = 548;
}
);
leftKerningGroup = quotedblright;
note = quotedblright;
unicode = 201D;
},
{
glyphname = quoteleft;
lastChange = "2023-07-27 15:47:19 +0000";
layers = (
{
layerId = "F5467FAD-1970-4982-B3D3-939C01050498";
paths = (
{
closed = 1;
nodes = (
"169 566 LINE",
"169 643 LINE SMOOTH",
"169 680 OFFCURVE",
"155 728 OFFCURVE",
"109 765 CURVE",
"109 734 LINE",
"148 700 OFFCURVE",
"149 667 OFFCURVE",
"149 634 CURVE",
"101 634 LINE",
"101 566 LINE"
);
}
);
width = 310;
},
{
layerId = "6DD95C5A-998B-41AB-BDFB-84A73C209871";
paths = (
{
closed = 1;
nodes = (
"244 486 LINE",
"244 634 LINE SMOOTH",
"244 672 OFFCURVE",
"220 787 OFFCURVE",
"83 803 CURVE",
"83 729 LINE",
"124 714 OFFCURVE",
"128 672 OFFCURVE",
"128 634 CURVE",
"66 634 LINE",
"66 486 LINE"
);
}
);
width = 310;
}
);
leftKerningGroup = quoteleft;
note = quoteleft;
rightKerningGroup = quoteleft;
unicode = 2018;
},
{
glyphname = quoteright;
lastChange = "2023-07-27 15:47:19 +0000";
layers = (
{
layerId = "F5467FAD-1970-4982-B3D3-939C01050498";
paths = (
{
closed = 1;
nodes = (
"165 557 OFFCURVE",
"179 615 OFFCURVE",
"179 652 CURVE SMOOTH",
"179 739 LINE",
"101 739 LINE",
"101 661 LINE",
"149 661 LINE",
"149 653 LINE SMOOTH",
"149 622 OFFCURVE",
"145 592 OFFCURVE",
"109 561 CURVE",
"109 530 LINE"
);
}
);
width = 310;
},
{
layerId = "6DD95C5A-998B-41AB-BDFB-84A73C209871";
paths = (
{
closed = 1;
nodes = (
"220 478 OFFCURVE",
"244 574 OFFCURVE",
"244 622 CURVE SMOOTH",
"244 809 LINE",
"66 809 LINE",
"66 631 LINE",
"128 631 LINE",
"128 622 LINE SMOOTH",
"128 586 OFFCURVE",
"121 550 OFFCURVE",
"83 536 CURVE",
"83 462 LINE"
);
}
);
width = 310;
}
);
note = quoteright;
unicode = 2019;
},
{
glyphname = guilsinglright;
lastChange = "2023-07-27 15:47:19 +0000";
layers = (
{
layerId = "F5467FAD-1970-4982-B3D3-939C01050498";
paths = (
{
closed = 1;
nodes = (
"253 267 LINE",
"96 456 LINE",
"80 446 LINE",
"181 267 LINE",
"80 88 LINE",
"97 77 LINE"
);
}
);
width = 303;
},
{
layerId = "6DD95C5A-998B-41AB-BDFB-84A73C209871";
paths = (
{
closed = 1;
nodes = (
"362 267 LINE",
"177 507 LINE",
"80 443 LINE",
"208 267 LINE",
"80 91 LINE",
"176 26 LINE"
);
}
);
width = 412;
}
);
note = guilsinglright;
unicode = 203A;
},
{
glyphname = quotedbl;
lastChange = "2023-07-27 15:47:19 +0000";
layers = (
{
layerId = "F5467FAD-1970-4982-B3D3-939C01050498";
paths = (
{
closed = 1;
nodes = (
"453 502 LINE",
"462 726 LINE",
"396 726 LINE",
"405 502 LINE"
);
},
{
closed = 1;
nodes = (
"239 502 LINE",
"248 726 LINE",
"182 726 LINE",
"191 502 LINE"
);
}
);
width = 644;
},
{
layerId = "6DD95C5A-998B-41AB-BDFB-84A73C209871";
paths = (
{
closed = 1;
nodes = (
"506 472 LINE",
"518 756 LINE",
"340 756 LINE",
"352 472 LINE"
);
},
{
closed = 1;
nodes = (
"292 472 LINE",
"304 756 LINE",
"126 756 LINE",
"138 472 LINE"
);
}
);
width = 644;
}
);
note = quotedbl;
unicode = 0022;
},
{
glyphname = quotesingle;
lastChange = "2023-07-27 15:47:19 +0000";
layers = (
{
layerId = "F5467FAD-1970-4982-B3D3-939C01050498";
paths = (
{
closed = 1;
nodes = (
"239 502 LINE",
"248 726 LINE",
"182 726 LINE",
"191 502 LINE"
);
}
);
width = 430;
},
{
layerId = "6DD95C5A-998B-41AB-BDFB-84A73C209871";
paths = (
{
closed = 1;
nodes = (
"292 472 LINE",
"304 756 LINE",
"126 756 LINE",
"138 472 LINE"
);
}
);
width = 430;
}
);
note = quotesingle;
rightKerningGroup = quotesingle;
unicode = 0027;
},
{
glyphname = florin;
lastChange = "2023-07-27 15:47:19 +0000";
layers = (
{
layerId = "F5467FAD-1970-4982-B3D3-939C01050498";
paths = (
{
closed = 1;
nodes = (
"49 -170 LINE",
"188.35 362 LINE",
"368 362 LINE",
"368 395 LINE",
"196.99 395 LINE",
"241 563 LINE SMOOTH",
"256 620 OFFCURVE",
"292 705 OFFCURVE",
"395 705 CURVE SMOOTH",
"444 705 OFFCURVE",
"484 687 OFFCURVE",
"508 659 CURVE",
"538 680 LINE",
"510 708 OFFCURVE",
"468 733 OFFCURVE",
"395 733 CURVE SMOOTH",
"240 733 OFFCURVE",
"213 608 OFFCURVE",
"196 543 CURVE SMOOTH",
"157.18 395 LINE",
"35 395 LINE",
"35 362 LINE",
"148.53 362 LINE",
"9 -170 LINE"
);
}
);
width = 583;
},
{
layerId = "6DD95C5A-998B-41AB-BDFB-84A73C209871";
paths = (
{
closed = 1;
nodes = (
"124 -158 LINE",
"246.19 308 LINE",
"415 308 LINE",
"415 425 LINE",
"276.87 425 LINE",
"301 517 LINE SMOOTH",
"315 569 OFFCURVE",
"333 616 OFFCURVE",
"380 616 CURVE SMOOTH",
"412 616 OFFCURVE",
"459 565 OFFCURVE",
"466 541 CURVE",
"579 624 LINE",
"560 652 OFFCURVE",
"508 721 OFFCURVE",
"380 721 CURVE SMOOTH",
"194 721 OFFCURVE",
"164 575 OFFCURVE",
"149 522 CURVE SMOOTH",
"123.61 425 LINE",
"7 425 LINE",
"7 308 LINE",
"92.98 308 LINE",
"-29 -158 LINE"
);
}
);
width = 583;
}
);
note = florin;
unicode = 0192;
},
{
glyphname = at;
lastChange = "2023-07-27 15:47:19 +0000";
layers = (
{
layerId = "F5467FAD-1970-4982-B3D3-939C01050498";
paths = (
{
closed = 1;
nodes = (
"593 -238 OFFCURVE",
"685 -214 OFFCURVE",
"758 -165 CURVE",
"725 -134 LINE",
"659 -178 OFFCURVE",
"574 -197 OFFCURVE",
"484 -197 CURVE SMOOTH",
"238 -197 OFFCURVE",
"67 -13 OFFCURVE",
"67 233 CURVE SMOOTH",
"67 481 OFFCURVE",
"239 669 OFFCURVE",
"484 669 CURVE SMOOTH",
"730 669 OFFCURVE",
"901 481 OFFCURVE",
"901 233 CURVE SMOOTH",
"901 81 OFFCURVE",
"843 33 OFFCURVE",
"781 33 CURVE SMOOTH",
"720 33 OFFCURVE",
"685 75 OFFCURVE",
"685 123 CURVE SMOOTH",
"685 312 LINE SMOOTH",
"685 396 OFFCURVE",
"668 501 OFFCURVE",
"492 501 CURVE SMOOTH",
"393 501 OFFCURVE",
"314 448 OFFCURVE",
"303 388 CURVE",
"363 387 LINE",
"375 430 OFFCURVE",
"411 479 OFFCURVE",
"492 479 CURVE SMOOTH",
"602.47 479 OFFCURVE",
"633.5 411.12 OFFCURVE",
"640.95 344.09 CURVE",
"629.86 293.94 OFFCURVE",
"551.09 280.32 OFFCURVE",
"462.99 271 CURVE SMOOTH",
"305.99 252 OFFCURVE",
"258.99 184 OFFCURVE",
"258.99 119 CURVE SMOOTH",
"258.99 38 OFFCURVE",
"334.99 -16 OFFCURVE",
"452.99 -16 CURVE SMOOTH",
"547.69 -16 OFFCURVE",
"625 25 OFFCURVE",
"644 150 CURVE",
"644 35 OFFCURVE",
"696.34 -0.01 OFFCURVE",
"773.99 -0.01 CURVE SMOOTH",
"890.99 -0.01 OFFCURVE",
"948.99 92.99 OFFCURVE",
"948.99 232.99 CURVE SMOOTH",
"948.99 496.99 OFFCURVE",
"764.99 708.99 OFFCURVE",
"483.99 708.99 CURVE SMOOTH",
"203 709 OFFCURVE",
"19 497 OFFCURVE",
"19 233 CURVE SMOOTH",
"19 -28 OFFCURVE",
"204 -238 OFFCURVE",
"484 -238 CURVE SMOOTH"
);
},
{
closed = 1;
nodes = (
"339 3 OFFCURVE",
"307.99 73.99 OFFCURVE",
"307.99 122.99 CURVE SMOOTH",
"307.99 199.99 OFFCURVE",
"378.99 244.99 OFFCURVE",
"459.99 251.99 CURVE SMOOTH",
"544.25 261.43 OFFCURVE",
"609.43 277.69 OFFCURVE",
"642.96 310.56 CURVE",
"646 174 OFFCURVE",
"641 3 OFFCURVE",
"452.98 2.99 CURVE SMOOTH"
);
}
);
width = 968;
},
{
layerId = "6DD95C5A-998B-41AB-BDFB-84A73C209871";
paths = (
{
closed = 1;
nodes = (
"612 -223 OFFCURVE",
"728 -187 OFFCURVE",
"801 -118 CURVE",
"698 -20 LINE",
"639 -81 OFFCURVE",
"574 -100 OFFCURVE",
"484 -100 CURVE SMOOTH",
"305 -100 OFFCURVE",
"185 36 OFFCURVE",
"185 233 CURVE SMOOTH",
"185 433 OFFCURVE",
"306 572 OFFCURVE",
"484 572 CURVE SMOOTH",
"663 572 OFFCURVE",
"783 433 OFFCURVE",
"783 233 CURVE SMOOTH",
"783 128 OFFCURVE",
"758 102 OFFCURVE",
"745 102 CURVE SMOOTH",
"726 102 OFFCURVE",
"718 111 OFFCURVE",
"718 137 CURVE SMOOTH",
"718 302 LINE SMOOTH",
"718 381 OFFCURVE",
"699 512 OFFCURVE",
"491 512 CURVE SMOOTH",
"370 512 OFFCURVE",
"239 432 OFFCURVE",
"271 326.01 CURVE",
"431 325.01 LINE",
"428 332.01 OFFCURVE",
"433 405.01 OFFCURVE",
"491 405.01 CURVE SMOOTH",
"529.45 405.01 OFFCURVE",
"548.05 389.85 OFFCURVE",
"556.99 363.87 CURVE",
"560.78 335.41 OFFCURVE",
"525.45 306.12 OFFCURVE",
"451 298.01 CURVE SMOOTH",
"286 281 OFFCURVE",
"226 216 OFFCURVE",
"226 143 CURVE SMOOTH",
"226 54 OFFCURVE",
"302 -15 OFFCURVE",
"434 -15 CURVE SMOOTH",
"509.59 -15 OFFCURVE",
"562.36 10.77 OFFCURVE",
"596.91 47.8 CURVE",
"625.94 11.05 OFFCURVE",
"674.02 -15 OFFCURVE",
"738 -15 CURVE SMOOTH",
"881 -15 OFFCURVE",
"950 98 OFFCURVE",
"950 233 CURVE SMOOTH",
"950 481 OFFCURVE",
"765 694 OFFCURVE",
"484 694 CURVE SMOOTH",
"203 694 OFFCURVE",
"18 481 OFFCURVE",
"18 233 CURVE SMOOTH",
"18 -12 OFFCURVE",
"204 -223 OFFCURVE",
"484 -223 CURVE SMOOTH"
);
},
{
closed = 1;
nodes = (
"399 79.01 OFFCURVE",
"385 115.01 OFFCURVE",
"385 147.01 CURVE SMOOTH",
"385 188.01 OFFCURVE",
"414 207.01 OFFCURVE",
"462 213.01 CURVE SMOOTH",
"498.33 217.12 OFFCURVE",
"533.71 225.58 OFFCURVE",
"564.46 238.62 CURVE",
"568.37 122.35 OFFCURVE",
"508.6 79.01 OFFCURVE",
"448.01 79.01 CURVE SMOOTH"
);
}
);
width = 968;
}
);
note = at;
unicode = 0040;
},
{
glyphname = ampersand;
lastChange = "2023-07-27 15:47:19 +0000";
layers = (
{
layerId = "F5467FAD-1970-4982-B3D3-939C01050498";
paths = (
{
closed = 1;
nodes = (
"649 439 LINE",
"642 198 OFFCURVE",
"560 14 OFFCURVE",
"322 14 CURVE SMOOTH",
"175 14 OFFCURVE",
"65 76 OFFCURVE",
"65 217 CURVE SMOOTH",
"65 494 OFFCURVE",
"572 389 OFFCURVE",
"572 640 CURVE SMOOTH",
"572 722 OFFCURVE",
"498 791 OFFCURVE",
"385 791 CURVE SMOOTH",
"274 791 OFFCURVE",
"179 732 OFFCURVE",
"179 624 CURVE SMOOTH",
"179 454 OFFCURVE",
"544 -14 OFFCURVE",
"736 -14 CURVE SMOOTH",
"814 -14 OFFCURVE",
"878 27 OFFCURVE",
"878 112 CURVE SMOOTH",
"878 166 OFFCURVE",
"862 217 OFFCURVE",
"821 255 CURVE",
"785 224 LINE",
"826 196 OFFCURVE",
"850 158 OFFCURVE",
"850 112 CURVE SMOOTH",
"850 57 OFFCURVE",
"818 14 OFFCURVE",
"736 14 CURVE SMOOTH",
"582 14 OFFCURVE",
"224 466 OFFCURVE",
"224 624 CURVE SMOOTH",
"224 726 OFFCURVE",
"300 763 OFFCURVE",
"385 763 CURVE SMOOTH",
"475 763 OFFCURVE",
"527 709 OFFCURVE",
"527 640 CURVE SMOOTH",
"527 417 OFFCURVE",
"20 507 OFFCURVE",
"20 217 CURVE SMOOTH",
"20 72 OFFCURVE",
"143 -14 OFFCURVE",
"322 -14 CURVE SMOOTH",
"567 -14 OFFCURVE",
"694 194 OFFCURVE",
"704 439 CURVE"
);
}
);
width = 888;
},
{
layerId = "6DD95C5A-998B-41AB-BDFB-84A73C209871";
paths = (
{
closed = 1;
nodes = (
"582 471 LINE",
"583 277 OFFCURVE",
"537 93 OFFCURVE",
"343 93 CURVE SMOOTH",
"247 93 OFFCURVE",
"176 156 OFFCURVE",
"176 250 CURVE SMOOTH",
"176 432 OFFCURVE",
"620 361 OFFCURVE",
"620 603 CURVE SMOOTH",
"620 693 OFFCURVE",
"528 779 OFFCURVE",
"399 779 CURVE SMOOTH",
"268 779 OFFCURVE",
"169 718 OFFCURVE",
"169 588 CURVE SMOOTH",
"169 418 OFFCURVE",
"494 -14 OFFCURVE",
"716 -14 CURVE SMOOTH",
"851 -14 OFFCURVE",
"905 30 OFFCURVE",
"905 131 CURVE SMOOTH",
"905 181 OFFCURVE",
"899 241 OFFCURVE",
"821 315 CURVE",
"709 228 LINE",
"752 200 OFFCURVE",
"770 157 OFFCURVE",
"770 135 CURVE SMOOTH",
"770 111 OFFCURVE",
"757 96 OFFCURVE",
"731 96 CURVE SMOOTH",
"623 96 OFFCURVE",
"315 436 OFFCURVE",
"315 588 CURVE SMOOTH",
"315 651 OFFCURVE",
"359 672 OFFCURVE",
"399 672 CURVE SMOOTH",
"441 672 OFFCURVE",
"475 645 OFFCURVE",
"475 593 CURVE SMOOTH",
"475 484 OFFCURVE",
"20 505 OFFCURVE",
"20 250 CURVE SMOOTH",
"20 113 OFFCURVE",
"155 -14 OFFCURVE",
"343 -14 CURVE SMOOTH",
"606 -14 OFFCURVE",
"740 208 OFFCURVE",
"737 471 CURVE"
);
}
);
width = 925;
},
{
associatedMasterId = "6DD95C5A-998B-41AB-BDFB-84A73C209871";
layerId = "1CBC365D-78BD-4DAC-A4E0-D35EE4DA40B5";
name = "24 juil. 23  15:26";
paths = (
{
closed = 1;
nodes = (
"526 31 LINE",
"591 -14 OFFCURVE",
"655 -43 OFFCURVE",
"711 -43 CURVE SMOOTH",
"815.69 -43 OFFCURVE",
"881.7 11.23 OFFCURVE",
"881.7 91.67 CURVE SMOOTH",
"881.7 141.85 OFFCURVE",
"856.01 202.23 OFFCURVE",
"798 266 CURVE",
"686 189 LINE",
"729.02 150.53 OFFCURVE",
"744.63 118.98 OFFCURVE",
"744.63 97.2 CURVE SMOOTH",
"744.63 75.95 OFFCURVE",
"729.76 64 OFFCURVE",
"711 64 CURVE SMOOTH",
"686 64 OFFCURVE",
"651 84 OFFCURVE",
"612 117 CURVE"
);
},
{
closed = 1;
nodes = (
"524 64 OFFCURVE",
"330 64 CURVE SMOOTH",
"234 64 OFFCURVE",
"163 127 OFFCURVE",
"163 221 CURVE SMOOTH",
"163 272.08 OFFCURVE",
"197.97 303.31 OFFCURVE",
"248.28 327.13 CURVE",
"305 242 OFFCURVE",
"380 153 OFFCURVE",
"459 85 CURVE",
"536 189 LINE",
"484 244 OFFCURVE",
"430 312 OFFCURVE",
"387.78 376.27 CURVE",
"497.84 411.47 OFFCURVE",
"607 454.51 OFFCURVE",
"607 574 CURVE SMOOTH",
"607 664 OFFCURVE",
"515 750 OFFCURVE",
"386 750 CURVE SMOOTH",
"255 750 OFFCURVE",
"146 679 OFFCURVE",
"146 569 CURVE SMOOTH",
"146 524 OFFCURVE",
"161 477 OFFCURVE",
"186.06 434.49 CURVE",
"91.03 395.87 OFFCURVE",
"7 337.89 OFFCURVE",
"7 221 CURVE SMOOTH",
"7 84 OFFCURVE",
"142 -43 OFFCURVE",
"330 -43 CURVE SMOOTH",
"406 -43 OFFCURVE",
"489 -23 OFFCURVE",
"556 30 CURVE SMOOTH",
"580 49 OFFCURVE",
"601 70 OFFCURVE",
"621 93 CURVE SMOOTH",
"686 168 OFFCURVE",
"726 284 OFFCURVE",
"724 442 CURVE",
"559 442 LINE",
"560 248 OFFCURVE"
);
},
{
closed = 1;
nodes = (
"311.25 516.85 OFFCURVE",
"302 546.77 OFFCURVE",
"302 569 CURVE SMOOTH",
"302 622 OFFCURVE",
"346 643 OFFCURVE",
"386 643 CURVE SMOOTH",
"428 643 OFFCURVE",
"462 626 OFFCURVE",
"462 574 CURVE SMOOTH",
"462 520 OFFCURVE",
"397.73 506.03 OFFCURVE",
"327.09 482.62 CURVE"
);
}
);
width = 890;
},
{
associatedMasterId = "F5467FAD-1970-4982-B3D3-939C01050498";
layerId = "10802A6B-C442-4881-8C1E-E25AD04E9384";
name = "24 juil. 23  15:26";
paths = (
{
closed = 1;
nodes = (
"543 51 LINE",
"617 -10 OFFCURVE",
"689 -49 OFFCURVE",
"748 -49 CURVE SMOOTH",
"826.39 -49 OFFCURVE",
"877.87 -7.35 OFFCURVE",
"877.87 58.24 CURVE SMOOTH",
"877.87 92.22 OFFCURVE",
"864.05 132.63 OFFCURVE",
"833 176.99 CURVE",
"807 159 LINE",
"838.18 120.93 OFFCURVE",
"851.75 88.64 OFFCURVE",
"851.75 62.95 CURVE SMOOTH",
"851.75 17.78 OFFCURVE",
"809.83 -7 OFFCURVE",
"748 -7 CURVE SMOOTH",
"700 -7 OFFCURVE",
"637 27 OFFCURVE",
"572 81 CURVE"
);
},
{
closed = 1;
nodes = (
"240.08 491.61 OFFCURVE",
"214.99 554.56 OFFCURVE",
"214.99 598.99 CURVE SMOOTH",
"215 690.99 OFFCURVE",
"292 733.99 OFFCURVE",
"377 733.99 CURVE SMOOTH",
"467 733.99 OFFCURVE",
"519 673.99 OFFCURVE",
"519 604.99 CURVE SMOOTH",
"519 501.16 OFFCURVE",
"401.84 462.95 OFFCURVE",
"280.16 422.95 CURVE"
);
},
{
closed = 1;
nodes = (
"576 66 LINE SMOOTH",
"642 138 OFFCURVE",
"689 248 OFFCURVE",
"696 404 CURVE",
"641 404 LINE",
"637 255 OFFCURVE",
"607 152 OFFCURVE",
"557 83 CURVE",
"542 65 LINE SMOOTH",
"486 0 OFFCURVE",
"408 -21 OFFCURVE",
"314 -21 CURVE SMOOTH",
"167 -21 OFFCURVE",
"56.99 70.99 OFFCURVE",
"56.99 201.99 CURVE SMOOTH",
"56.99 308.41 OFFCURVE",
"149.6 351.08 OFFCURVE",
"255.66 384.89 CURVE",
"328 267 OFFCURVE",
"436 138 OFFCURVE",
"542 51 CURVE",
"568 83 LINE",
"470 164 OFFCURVE",
"365 286 OFFCURVE",
"295.72 397.2 CURVE",
"427.2 436.63 OFFCURVE",
"564 473.05 OFFCURVE",
"564 604.99 CURVE SMOOTH",
"564 686.99 OFFCURVE",
"490 755.99 OFFCURVE",
"377 755.99 CURVE SMOOTH",
"266 755.99 OFFCURVE",
"171 696.99 OFFCURVE",
"171 598.99 CURVE SMOOTH",
"171 552.47 OFFCURVE",
"197.74 484.49 OFFCURVE",
"240.8 409.86 CURVE",
"122.79 369.82 OFFCURVE",
"12 321.2 OFFCURVE",
"12 201.99 CURVE SMOOTH",
"12 66.99 OFFCURVE",
"135 -49.01 OFFCURVE",
"314 -49.01 CURVE SMOOTH",
"398 -49 OFFCURVE",
"489 -19 OFFCURVE",
"561 50 CURVE"
);
}
);
width = 890;
}
);
note = ampersand;
unicode = 0026;
},
{
glyphname = paragraph;
lastChange = "2023-07-27 15:47:19 +0000";
layers = (
{
layerId = "F5467FAD-1970-4982-B3D3-939C01050498";
paths = (
{
closed = 1;
nodes = (
"449 -201 LINE",
"449 701 LINE",
"282 701 LINE SMOOTH",
"203 701 OFFCURVE",
"121 665 OFFCURVE",
"121 559 CURVE SMOOTH",
"121 450 OFFCURVE",
"199 416 OFFCURVE",
"288 416 CURVE SMOOTH",
"409 416 LINE",
"409 -201 LINE"
);
},
{
closed = 1;
nodes = (
"640 -201 LINE",
"640 701 LINE",
"600 701 LINE",
"600 -201 LINE"
);
}
);
width = 691;
},
{
layerId = "6DD95C5A-998B-41AB-BDFB-84A73C209871";
paths = (
{
closed = 1;
nodes = (
"450 -194 LINE",
"450 700 LINE",
"262 700 LINE SMOOTH",
"175 700 OFFCURVE",
"63 655 OFFCURVE",
"63 532 CURVE SMOOTH",
"63 408 OFFCURVE",
"171 364 OFFCURVE",
"267 364 CURVE SMOOTH",
"315 364 LINE",
"315 -194 LINE"
);
},
{
closed = 1;
nodes = (
"638 -194 LINE",
"638 700 LINE",
"502 700 LINE",
"502 -194 LINE"
);
}
);
width = 691;
}
);
note = paragraph;
unicode = 00B6;
},
{
glyphname = section;
lastChange = "2023-07-27 15:47:19 +0000";
layers = (
{
layerId = "F5467FAD-1970-4982-B3D3-939C01050498";
paths = (
{
closed = 1;
nodes = (
"478.99 -205 OFFCURVE",
"551.99 -115 OFFCURVE",
"551.99 -8 CURVE SMOOTH",
"551.99 30.69 OFFCURVE",
"538.17 61.21 OFFCURVE",
"516.25 85.77 CURVE",
"536.08 115.95 OFFCURVE",
"546 153.07 OFFCURVE",
"546 192 CURVE SMOOTH",
"546 319 OFFCURVE",
"398 358 OFFCURVE",
"303 387 CURVE SMOOTH",
"186 422 OFFCURVE",
"129 474 OFFCURVE",
"129 546 CURVE SMOOTH",
"129 625 OFFCURVE",
"200 685 OFFCURVE",
"296 685 CURVE SMOOTH",
"375 685 OFFCURVE",
"434 653 OFFCURVE",
"455 595 CURVE",
"497 606 LINE",
"469 675 OFFCURVE",
"390 710 OFFCURVE",
"296 710 CURVE SMOOTH",
"173 710 OFFCURVE",
"84 638 OFFCURVE",
"84 546 CURVE SMOOTH",
"84 507.78 OFFCURVE",
"98.99 473.68 OFFCURVE",
"128.87 444.02 CURVE",
"103.42 416.7 OFFCURVE",
"89.99 383.33 OFFCURVE",
"89.99 346 CURVE SMOOTH",
"89.99 265 OFFCURVE",
"157.99 201 OFFCURVE",
"294.99 160 CURVE SMOOTH",
"386.99 132 OFFCURVE",
"505.99 101 OFFCURVE",
"505.99 -8 CURVE SMOOTH",
"505.99 -103 OFFCURVE",
"443.99 -178 OFFCURVE",
"306.99 -178 CURVE SMOOTH",
"171.99 -178 OFFCURVE",
"102.99 -115 OFFCURVE",
"71.99 -26 CURVE",
"32.99 -45 LINE",
"75.99 -141 OFFCURVE",
"157.99 -205 OFFCURVE",
"306.99 -205 CURVE SMOOTH"
);
},
{
closed = 1;
nodes = (
"432.56 151.05 OFFCURVE",
"361.66 170.62 OFFCURVE",
"308 187.01 CURVE SMOOTH",
"191 222 OFFCURVE",
"134 274 OFFCURVE",
"134 346 CURVE SMOOTH",
"134 374.49 OFFCURVE",
"142.19 399.25 OFFCURVE",
"157.3 420.28 CURVE",
"190.38 396.73 OFFCURVE",
"234.64 376.57 OFFCURVE",
"289.99 360 CURVE SMOOTH",
"380.99 331 OFFCURVE",
"500.99 301 OFFCURVE",
"500.99 192 CURVE SMOOTH",
"500.99 166.5 OFFCURVE",
"495.64 138.33 OFFCURVE",
"484.1 114.22 CURVE"
);
}
);
width = 572;
},
{
layerId = "6DD95C5A-998B-41AB-BDFB-84A73C209871";
paths = (
{
closed = 1;
nodes = (
"487 -227 OFFCURVE",
"573 -119 OFFCURVE",
"573 -9 CURVE SMOOTH",
"573 32.65 OFFCURVE",
"558.45 65.88 OFFCURVE",
"535.73 92.71 CURVE",
"560.98 127.76 OFFCURVE",
"573 168.61 OFFCURVE",
"573 210 CURVE SMOOTH",
"573 352 OFFCURVE",
"404 396 OFFCURVE",
"318 423 CURVE SMOOTH",
"237 447 OFFCURVE",
"207 476 OFFCURVE",
"207 521 CURVE SMOOTH",
"207 568 OFFCURVE",
"242 599 OFFCURVE",
"296 599 CURVE SMOOTH",
"364 599 OFFCURVE",
"389 564 OFFCURVE",
"382 504 CURVE",
"538 544 LINE",
"527 649 OFFCURVE",
"414 709 OFFCURVE",
"296 709 CURVE SMOOTH",
"158 709 OFFCURVE",
"51 621 OFFCURVE",
"51 521 CURVE SMOOTH",
"51 480.36 OFFCURVE",
"66.95 443.32 OFFCURVE",
"97.25 411.02 CURVE",
"68.01 379.62 OFFCURVE",
"51 341.48 OFFCURVE",
"51 302 CURVE SMOOTH",
"51 211 OFFCURVE",
"131 138 OFFCURVE",
"273 96 CURVE SMOOTH",
"351 72 OFFCURVE",
"417 55 OFFCURVE",
"417 -9 CURVE SMOOTH",
"417 -75 OFFCURVE",
"383 -115 OFFCURVE",
"301 -115 CURVE SMOOTH",
"189 -115 OFFCURVE",
"151 -56 OFFCURVE",
"135 48 CURVE",
"-8 -24 LINE",
"28 -135 OFFCURVE",
"119 -227 OFFCURVE",
"301 -227 CURVE SMOOTH"
);
},
{
closed = 1;
nodes = (
"378.01 185.99 OFFCURVE",
"344.16 195.78 OFFCURVE",
"318 204 CURVE SMOOTH",
"237 228 OFFCURVE",
"207 257 OFFCURVE",
"207 302 CURVE SMOOTH",
"207 314.5 OFFCURVE",
"209.5 325.75 OFFCURVE",
"214.12 335.62 CURVE",
"232.35 328.1 OFFCURVE",
"252 321.21 OFFCURVE",
"273 315 CURVE SMOOTH",
"351 291 OFFCURVE",
"417 274 OFFCURVE",
"417 210 CURVE SMOOTH",
"417 196.18 OFFCURVE",
"415.51 183.63 OFFCURVE",
"412.44 172.35 CURVE"
);
}
);
width = 572;
}
);
note = section;
unicode = 00A7;
},
